<ttFont>
    <TTGlyph name="A" xMin="-57" yMin="0" xMax="578" yMax="710">
      <contour>
        <pt x="337" y="710" on="1"/>
        <pt x="486" y="710" on="1"/>
        <pt x="578" y="0" on="1"/>
        <pt x="410" y="0" on="1"/>
        <pt x="395" y="159" on="1"/>
        <pt x="193" y="159" on="1"/>
        <pt x="112" y="0" on="1"/>
        <pt x="-57" y="0" on="1"/>
      </contour>
      <contour>
        <pt x="392" y="272" on="1"/>
        <pt x="372" y="523" on="1"/>
        <pt x="242" y="272" on="1"/>
      </contour>
    </TTGlyph>
    <TTGlyph name="A.sc" xMin="-61" yMin="0" xMax="514" yMax="563">
      <contour>
        <pt x="289" y="563" on="1"/>
        <pt x="405" y="563" on="1"/>
        <pt x="514" y="0" on="1"/>
        <pt x="363" y="0" on="1"/>
        <pt x="343" y="118" on="1"/>
        <pt x="162" y="118" on="1"/>
        <pt x="93" y="0" on="1"/>
        <pt x="-61" y="0" on="1"/>
      </contour>
      <contour>
        <pt x="337" y="243" on="1"/>
        <pt x="310" y="389" on="1"/>
        <pt x="219" y="243" on="1"/>
      </contour>
    </TTGlyph>
    <TTGlyph name="AE" xMin="-80" yMin="0" xMax="978" yMax="710">
      <contour>
        <pt x="484" y="710" on="1"/>
        <pt x="978" y="710" on="1"/>
        <pt x="947" y="566" on="1"/>
        <pt x="660" y="566" on="1"/>
        <pt x="632" y="433" on="1"/>
        <pt x="867" y="433" on="1"/>
        <pt x="837" y="290" on="1"/>
        <pt x="602" y="290" on="1"/>
        <pt x="571" y="144" on="1"/>
        <pt x="865" y="144" on="1"/>
        <pt x="835" y="0" on="1"/>
        <pt x="377" y="0" on="1"/>
        <pt x="411" y="159" on="1"/>
        <pt x="210" y="159" on="1"/>
        <pt x="94" y="0" on="1"/>
        <pt x="-80" y="0" on="1"/>
      </contour>
      <contour>
        <pt x="429" y="303" on="1"/>
        <pt x="476" y="527" on="1"/>
        <pt x="310" y="303" on="1"/>
      </contour>
    </TTGlyph>
    <TTGlyph name="AEacute" xMin="-80" yMin="0" xMax="978" yMax="916">
      <contour>
        <pt x="667" y="772" on="1"/>
        <pt x="561" y="786" on="1"/>
        <pt x="638" y="916" on="1"/>
        <pt x="782" y="916" on="1"/>
      </contour>
      <contour>
        <pt x="484" y="710" on="1"/>
        <pt x="978" y="710" on="1"/>
        <pt x="947" y="566" on="1"/>
        <pt x="660" y="566" on="1"/>
        <pt x="632" y="433" on="1"/>
        <pt x="867" y="433" on="1"/>
        <pt x="837" y="290" on="1"/>
        <pt x="602" y="290" on="1"/>
        <pt x="571" y="144" on="1"/>
        <pt x="865" y="144" on="1"/>
        <pt x="835" y="0" on="1"/>
        <pt x="377" y="0" on="1"/>
        <pt x="411" y="159" on="1"/>
        <pt x="210" y="159" on="1"/>
        <pt x="94" y="0" on="1"/>
        <pt x="-80" y="0" on="1"/>
      </contour>
      <contour>
        <pt x="429" y="303" on="1"/>
        <pt x="476" y="527" on="1"/>
        <pt x="310" y="303" on="1"/>
      </contour>
    </TTGlyph>
    <TTGlyph name="Aacute" xMin="-57" yMin="0" xMax="578" yMax="916">
      <contour>
        <pt x="337" y="710" on="1"/>
        <pt x="486" y="710" on="1"/>
        <pt x="578" y="0" on="1"/>
        <pt x="410" y="0" on="1"/>
        <pt x="395" y="159" on="1"/>
        <pt x="193" y="159" on="1"/>
        <pt x="112" y="0" on="1"/>
        <pt x="-57" y="0" on="1"/>
      </contour>
      <contour>
        <pt x="392" y="272" on="1"/>
        <pt x="372" y="523" on="1"/>
        <pt x="242" y="272" on="1"/>
      </contour>
      <contour>
        <pt x="451" y="772" on="1"/>
        <pt x="345" y="786" on="1"/>
        <pt x="422" y="916" on="1"/>
        <pt x="566" y="916" on="1"/>
      </contour>
    </TTGlyph>
    <TTGlyph name="Abreve" xMin="-57" yMin="0" xMax="585" yMax="916">
      <contour>
        <pt x="337" y="710" on="1"/>
        <pt x="486" y="710" on="1"/>
        <pt x="578" y="0" on="1"/>
        <pt x="410" y="0" on="1"/>
        <pt x="395" y="159" on="1"/>
        <pt x="193" y="159" on="1"/>
        <pt x="112" y="0" on="1"/>
        <pt x="-57" y="0" on="1"/>
      </contour>
      <contour>
        <pt x="392" y="272" on="1"/>
        <pt x="372" y="523" on="1"/>
        <pt x="242" y="272" on="1"/>
      </contour>
      <contour>
        <pt x="428" y="839" on="1"/>
        <pt x="449" y="839" on="0"/>
        <pt x="490" y="882" on="0"/>
        <pt x="501" y="916" on="1"/>
        <pt x="585" y="916" on="1"/>
        <pt x="578" y="884" on="0"/>
        <pt x="546" y="830" on="0"/>
        <pt x="500" y="791" on="0"/>
        <pt x="444" y="769" on="0"/>
        <pt x="413" y="769" on="1"/>
        <pt x="359" y="769" on="0"/>
        <pt x="298" y="829" on="0"/>
        <pt x="298" y="879" on="1"/>
        <pt x="298" y="888" on="0"/>
        <pt x="301" y="906" on="0"/>
        <pt x="303" y="916" on="1"/>
        <pt x="387" y="916" on="1"/>
        <pt x="384" y="905" on="0"/>
        <pt x="384" y="895" on="1"/>
        <pt x="384" y="871" on="0"/>
        <pt x="408" y="839" on="0"/>
      </contour>
    </TTGlyph>
    <TTGlyph name="Acircumflex" xMin="-57" yMin="0" xMax="595" yMax="916">
      <contour>
        <pt x="337" y="710" on="1"/>
        <pt x="486" y="710" on="1"/>
        <pt x="578" y="0" on="1"/>
        <pt x="410" y="0" on="1"/>
        <pt x="395" y="159" on="1"/>
        <pt x="193" y="159" on="1"/>
        <pt x="112" y="0" on="1"/>
        <pt x="-57" y="0" on="1"/>
      </contour>
      <contour>
        <pt x="392" y="272" on="1"/>
        <pt x="372" y="523" on="1"/>
        <pt x="242" y="272" on="1"/>
      </contour>
      <contour>
        <pt x="271" y="808" on="1"/>
        <pt x="399" y="916" on="1"/>
        <pt x="513" y="916" on="1"/>
        <pt x="595" y="808" on="1"/>
        <pt x="506" y="772" on="1"/>
        <pt x="439" y="835" on="1"/>
        <pt x="345" y="772" on="1"/>
      </contour>
    </TTGlyph>
    <TTGlyph name="Adblgrave" xMin="-57" yMin="0" xMax="578" yMax="918">
      <contour>
        <pt x="337" y="710" on="1"/>
        <pt x="486" y="710" on="1"/>
        <pt x="578" y="0" on="1"/>
        <pt x="410" y="0" on="1"/>
        <pt x="395" y="159" on="1"/>
        <pt x="193" y="159" on="1"/>
        <pt x="112" y="0" on="1"/>
        <pt x="-57" y="0" on="1"/>
      </contour>
      <contour>
        <pt x="392" y="272" on="1"/>
        <pt x="372" y="523" on="1"/>
        <pt x="242" y="272" on="1"/>
      </contour>
      <contour>
        <pt x="433" y="918" on="1"/>
        <pt x="551" y="918" on="1"/>
        <pt x="565" y="788" on="1"/>
        <pt x="480" y="772" on="1"/>
      </contour>
      <contour>
        <pt x="263" y="918" on="1"/>
        <pt x="382" y="918" on="1"/>
        <pt x="395" y="788" on="1"/>
        <pt x="310" y="772" on="1"/>
      </contour>
    </TTGlyph>
    <TTGlyph name="Adieresis" xMin="-57" yMin="0" xMax="615" yMax="909">
      <contour>
        <pt x="337" y="710" on="1"/>
        <pt x="486" y="710" on="1"/>
        <pt x="578" y="0" on="1"/>
        <pt x="410" y="0" on="1"/>
        <pt x="395" y="159" on="1"/>
        <pt x="193" y="159" on="1"/>
        <pt x="112" y="0" on="1"/>
        <pt x="-57" y="0" on="1"/>
      </contour>
      <contour>
        <pt x="392" y="272" on="1"/>
        <pt x="372" y="523" on="1"/>
        <pt x="242" y="272" on="1"/>
      </contour>
      <contour>
        <pt x="251" y="780" on="1"/>
        <pt x="279" y="909" on="1"/>
        <pt x="411" y="909" on="1"/>
        <pt x="383" y="780" on="1"/>
      </contour>
      <contour>
        <pt x="456" y="780" on="1"/>
        <pt x="484" y="909" on="1"/>
        <pt x="615" y="909" on="1"/>
        <pt x="588" y="780" on="1"/>
      </contour>
    </TTGlyph>
    <TTGlyph name="Agrave" xMin="-57" yMin="0" xMax="578" yMax="917">
      <contour>
        <pt x="337" y="710" on="1"/>
        <pt x="486" y="710" on="1"/>
        <pt x="578" y="0" on="1"/>
        <pt x="410" y="0" on="1"/>
        <pt x="395" y="159" on="1"/>
        <pt x="193" y="159" on="1"/>
        <pt x="112" y="0" on="1"/>
        <pt x="-57" y="0" on="1"/>
      </contour>
      <contour>
        <pt x="392" y="272" on="1"/>
        <pt x="372" y="523" on="1"/>
        <pt x="242" y="272" on="1"/>
      </contour>
      <contour>
        <pt x="314" y="917" on="1"/>
        <pt x="458" y="917" on="1"/>
        <pt x="480" y="787" on="1"/>
        <pt x="369" y="771" on="1"/>
      </contour>
    </TTGlyph>
    <TTGlyph name="Ainvertedbreve" xMin="-57" yMin="0" xMax="578" yMax="916">
      <contour>
        <pt x="337" y="710" on="1"/>
        <pt x="486" y="710" on="1"/>
        <pt x="578" y="0" on="1"/>
        <pt x="410" y="0" on="1"/>
        <pt x="395" y="159" on="1"/>
        <pt x="193" y="159" on="1"/>
        <pt x="112" y="0" on="1"/>
        <pt x="-57" y="0" on="1"/>
      </contour>
      <contour>
        <pt x="392" y="272" on="1"/>
        <pt x="372" y="523" on="1"/>
        <pt x="242" y="272" on="1"/>
      </contour>
      <contour>
        <pt x="284" y="769" on="1"/>
        <pt x="291" y="801" on="0"/>
        <pt x="323" y="855" on="0"/>
        <pt x="369" y="894" on="0"/>
        <pt x="425" y="916" on="0"/>
        <pt x="456" y="916" on="1"/>
        <pt x="510" y="916" on="0"/>
        <pt x="569" y="850" on="0"/>
        <pt x="569" y="802" on="1"/>
        <pt x="569" y="787" on="0"/>
        <pt x="566" y="769" on="1"/>
        <pt x="482" y="769" on="1"/>
        <pt x="485" y="785" on="0"/>
        <pt x="485" y="799" on="1"/>
        <pt x="485" y="846" on="0"/>
        <pt x="441" y="846" on="1"/>
        <pt x="415" y="846" on="0"/>
        <pt x="375" y="811" on="0"/>
        <pt x="367" y="769" on="1"/>
      </contour>
    </TTGlyph>
    <TTGlyph name="Amacron" xMin="-57" yMin="0" xMax="594" yMax="903">
      <contour>
        <pt x="337" y="710" on="1"/>
        <pt x="486" y="710" on="1"/>
        <pt x="578" y="0" on="1"/>
        <pt x="410" y="0" on="1"/>
        <pt x="395" y="159" on="1"/>
        <pt x="193" y="159" on="1"/>
        <pt x="112" y="0" on="1"/>
        <pt x="-57" y="0" on="1"/>
      </contour>
      <contour>
        <pt x="392" y="272" on="1"/>
        <pt x="372" y="523" on="1"/>
        <pt x="242" y="272" on="1"/>
      </contour>
      <contour>
        <pt x="283" y="806" on="1"/>
        <pt x="303" y="903" on="1"/>
        <pt x="594" y="903" on="1"/>
        <pt x="573" y="806" on="1"/>
      </contour>
    </TTGlyph>
    <TTGlyph name="Aogonek" xMin="-57" yMin="-205" xMax="578" yMax="710">
      <contour>
        <pt x="496" y="-205" on="1"/>
        <pt x="439" y="-197" on="0"/>
        <pt x="384" y="-152" on="0"/>
        <pt x="384" y="-123" on="1"/>
        <pt x="384" y="-59" on="0"/>
        <pt x="490" y="0" on="1"/>
        <pt x="410" y="0" on="1"/>
        <pt x="395" y="159" on="1"/>
        <pt x="193" y="159" on="1"/>
        <pt x="112" y="0" on="1"/>
        <pt x="-57" y="0" on="1"/>
        <pt x="337" y="710" on="1"/>
        <pt x="486" y="710" on="1"/>
        <pt x="578" y="0" on="1"/>
        <pt x="489" y="-51" on="0"/>
        <pt x="489" y="-88" on="1"/>
        <pt x="489" y="-102" on="0"/>
        <pt x="516" y="-120" on="0"/>
        <pt x="545" y="-121" on="1"/>
      </contour>
      <contour>
        <pt x="392" y="272" on="1"/>
        <pt x="372" y="523" on="1"/>
        <pt x="242" y="272" on="1"/>
      </contour>
    </TTGlyph>
    <TTGlyph name="Aring" xMin="-57" yMin="0" xMax="578" yMax="916">
      <contour>
        <pt x="337" y="710" on="1"/>
        <pt x="486" y="710" on="1"/>
        <pt x="578" y="0" on="1"/>
        <pt x="410" y="0" on="1"/>
        <pt x="395" y="159" on="1"/>
        <pt x="193" y="159" on="1"/>
        <pt x="112" y="0" on="1"/>
        <pt x="-57" y="0" on="1"/>
      </contour>
      <contour>
        <pt x="392" y="272" on="1"/>
        <pt x="372" y="523" on="1"/>
        <pt x="242" y="272" on="1"/>
      </contour>
      <contour>
        <pt x="326" y="818" on="1"/>
        <pt x="326" y="866" on="0"/>
        <pt x="395" y="916" on="0"/>
        <pt x="450" y="916" on="1"/>
        <pt x="492" y="916" on="0"/>
        <pt x="538" y="882" on="0"/>
        <pt x="538" y="850" on="1"/>
        <pt x="538" y="803" on="0"/>
        <pt x="469" y="753" on="0"/>
        <pt x="415" y="753" on="1"/>
        <pt x="373" y="753" on="0"/>
        <pt x="326" y="786" on="0"/>
      </contour>
      <contour>
        <pt x="439" y="869" on="1"/>
        <pt x="421" y="869" on="0"/>
        <pt x="394" y="846" on="0"/>
        <pt x="394" y="829" on="1"/>
        <pt x="394" y="816" on="0"/>
        <pt x="411" y="800" on="0"/>
        <pt x="425" y="800" on="1"/>
        <pt x="442" y="800" on="0"/>
        <pt x="471" y="823" on="0"/>
        <pt x="471" y="841" on="1"/>
        <pt x="471" y="853" on="0"/>
        <pt x="453" y="869" on="0"/>
      </contour>
    </TTGlyph>
    <TTGlyph name="Aringacute" xMin="-57" yMin="0" xMax="596" yMax="924">
      <contour>
        <pt x="499" y="808" on="1"/>
        <pt x="522" y="791" on="0"/>
        <pt x="522" y="759" on="1"/>
        <pt x="522" y="715" on="0"/>
        <pt x="489" y="688" on="1"/>
        <pt x="578" y="0" on="1"/>
        <pt x="410" y="0" on="1"/>
        <pt x="395" y="159" on="1"/>
        <pt x="193" y="159" on="1"/>
        <pt x="112" y="0" on="1"/>
        <pt x="-57" y="0" on="1"/>
        <pt x="324" y="687" on="1"/>
        <pt x="310" y="703" on="0"/>
        <pt x="310" y="727" on="1"/>
        <pt x="310" y="763" on="0"/>
        <pt x="351" y="810" on="0"/>
        <pt x="386" y="819" on="1"/>
        <pt x="452" y="924" on="1"/>
        <pt x="596" y="924" on="1"/>
      </contour>
      <contour>
        <pt x="392" y="272" on="1"/>
        <pt x="372" y="523" on="1"/>
        <pt x="242" y="272" on="1"/>
      </contour>
      <contour>
        <pt x="423" y="778" on="1"/>
        <pt x="405" y="778" on="0"/>
        <pt x="378" y="755" on="0"/>
        <pt x="378" y="738" on="1"/>
        <pt x="378" y="725" on="0"/>
        <pt x="395" y="709" on="0"/>
        <pt x="409" y="709" on="1"/>
        <pt x="426" y="709" on="0"/>
        <pt x="455" y="732" on="0"/>
        <pt x="455" y="750" on="1"/>
        <pt x="455" y="762" on="0"/>
        <pt x="437" y="778" on="0"/>
      </contour>
    </TTGlyph>
    <TTGlyph name="Atilde" xMin="-57" yMin="0" xMax="644" yMax="916">
      <contour>
        <pt x="337" y="710" on="1"/>
        <pt x="486" y="710" on="1"/>
        <pt x="578" y="0" on="1"/>
        <pt x="410" y="0" on="1"/>
        <pt x="395" y="159" on="1"/>
        <pt x="193" y="159" on="1"/>
        <pt x="112" y="0" on="1"/>
        <pt x="-57" y="0" on="1"/>
      </contour>
      <contour>
        <pt x="392" y="272" on="1"/>
        <pt x="372" y="523" on="1"/>
        <pt x="242" y="272" on="1"/>
      </contour>
      <contour>
        <pt x="486" y="774" on="1"/>
        <pt x="464" y="774" on="0"/>
        <pt x="434" y="788" on="0"/>
        <pt x="409" y="806" on="0"/>
        <pt x="385" y="820" on="0"/>
        <pt x="369" y="820" on="1"/>
        <pt x="353" y="820" on="0"/>
        <pt x="332" y="806" on="0"/>
        <pt x="320" y="788" on="0"/>
        <pt x="315" y="773" on="0"/>
        <pt x="315" y="772" on="1"/>
        <pt x="228" y="772" on="1"/>
        <pt x="230" y="783" on="0"/>
        <pt x="253" y="830" on="0"/>
        <pt x="293" y="878" on="0"/>
        <pt x="348" y="914" on="0"/>
        <pt x="382" y="914" on="1"/>
        <pt x="405" y="914" on="0"/>
        <pt x="435" y="899" on="0"/>
        <pt x="459" y="881" on="0"/>
        <pt x="482" y="866" on="0"/>
        <pt x="499" y="866" on="1"/>
        <pt x="515" y="866" on="0"/>
        <pt x="538" y="881" on="0"/>
        <pt x="552" y="899" on="0"/>
        <pt x="559" y="915" on="0"/>
        <pt x="559" y="916" on="1"/>
        <pt x="644" y="916" on="1"/>
        <pt x="642" y="908" on="0"/>
        <pt x="619" y="862" on="0"/>
        <pt x="578" y="812" on="0"/>
        <pt x="521" y="774" on="0"/>
      </contour>
    </TTGlyph>
    <TTGlyph name="B" xMin="4" yMin="0" xMax="654" yMax="710">
      <contour>
        <pt x="155" y="710" on="1"/>
        <pt x="534" y="710" on="1"/>
        <pt x="564" y="710" on="0"/>
        <pt x="609" y="685" on="0"/>
        <pt x="639" y="645" on="0"/>
        <pt x="654" y="592" on="0"/>
        <pt x="654" y="564" on="1"/>
        <pt x="654" y="534" on="0"/>
        <pt x="635" y="474" on="0"/>
        <pt x="600" y="421" on="0"/>
        <pt x="549" y="377" on="0"/>
        <pt x="517" y="364" on="1"/>
        <pt x="562" y="350" on="0"/>
        <pt x="610" y="278" on="0"/>
        <pt x="610" y="224" on="1"/>
        <pt x="610" y="167" on="0"/>
        <pt x="564" y="83" on="0"/>
        <pt x="488" y="28" on="0"/>
        <pt x="387" y="0" on="0"/>
        <pt x="333" y="0" on="1"/>
        <pt x="4" y="0" on="1"/>
      </contour>
      <contour>
        <pt x="363" y="139" on="1"/>
        <pt x="379" y="139" on="0"/>
        <pt x="410" y="153" on="0"/>
        <pt x="434" y="179" on="0"/>
        <pt x="448" y="213" on="0"/>
        <pt x="448" y="234" on="1"/>
        <pt x="448" y="260" on="0"/>
        <pt x="423" y="294" on="0"/>
        <pt x="402" y="294" on="1"/>
        <pt x="230" y="294" on="1"/>
        <pt x="198" y="139" on="1"/>
      </contour>
      <contour>
        <pt x="403" y="423" on="1"/>
        <pt x="417" y="423" on="0"/>
        <pt x="446" y="435" on="0"/>
        <pt x="469" y="458" on="0"/>
        <pt x="483" y="493" on="0"/>
        <pt x="483" y="516" on="1"/>
        <pt x="483" y="542" on="0"/>
        <pt x="459" y="570" on="0"/>
        <pt x="440" y="570" on="1"/>
        <pt x="289" y="570" on="1"/>
        <pt x="258" y="423" on="1"/>
      </contour>
    </TTGlyph>
    <TTGlyph name="B.sc" xMin="-2" yMin="0" xMax="556" yMax="563">
      <contour>
        <pt x="118" y="563" on="1"/>
        <pt x="449" y="563" on="1"/>
        <pt x="476" y="563" on="0"/>
        <pt x="516" y="543" on="0"/>
        <pt x="543" y="510" on="0"/>
        <pt x="556" y="467" on="0"/>
        <pt x="556" y="444" on="1"/>
        <pt x="556" y="421" on="0"/>
        <pt x="540" y="374" on="0"/>
        <pt x="511" y="333" on="0"/>
        <pt x="468" y="299" on="0"/>
        <pt x="441" y="289" on="1"/>
        <pt x="480" y="277" on="0"/>
        <pt x="524" y="220" on="0"/>
        <pt x="524" y="176" on="1"/>
        <pt x="524" y="130" on="0"/>
        <pt x="484" y="64" on="0"/>
        <pt x="418" y="21" on="0"/>
        <pt x="332" y="0" on="0"/>
        <pt x="286" y="0" on="1"/>
        <pt x="-2" y="0" on="1"/>
      </contour>
      <contour>
        <pt x="311" y="121" on="1"/>
        <pt x="339" y="121" on="0"/>
        <pt x="381" y="155" on="0"/>
        <pt x="381" y="184" on="1"/>
        <pt x="381" y="203" on="0"/>
        <pt x="359" y="228" on="0"/>
        <pt x="340" y="228" on="1"/>
        <pt x="190" y="228" on="1"/>
        <pt x="167" y="121" on="1"/>
      </contour>
      <contour>
        <pt x="341" y="341" on="1"/>
        <pt x="366" y="341" on="0"/>
        <pt x="406" y="368" on="0"/>
        <pt x="406" y="402" on="1"/>
        <pt x="406" y="422" on="0"/>
        <pt x="383" y="440" on="0"/>
        <pt x="366" y="440" on="1"/>
        <pt x="235" y="440" on="1"/>
        <pt x="214" y="341" on="1"/>
      </contour>
    </TTGlyph>
    <TTGlyph name="C" xMin="33" yMin="-6" xMax="694" yMax="714">
      <contour>
        <pt x="297" y="-6" on="1"/>
        <pt x="234" y="-6" on="0"/>
        <pt x="136" y="45" on="0"/>
        <pt x="68" y="130" on="0"/>
        <pt x="33" y="239" on="0"/>
        <pt x="33" y="297" on="1"/>
        <pt x="33" y="346" on="0"/>
        <pt x="62" y="446" on="0"/>
        <pt x="115" y="539" on="0"/>
        <pt x="191" y="619" on="0"/>
        <pt x="285" y="679" on="0"/>
        <pt x="395" y="714" on="0"/>
        <pt x="456" y="714" on="1"/>
        <pt x="552" y="714" on="0"/>
        <pt x="674" y="628" on="0"/>
        <pt x="694" y="559" on="1"/>
        <pt x="549" y="471" on="1"/>
        <pt x="544" y="499" on="0"/>
        <pt x="519" y="536" on="0"/>
        <pt x="483" y="559" on="0"/>
        <pt x="441" y="568" on="0"/>
        <pt x="421" y="568" on="1"/>
        <pt x="369" y="568" on="0"/>
        <pt x="287" y="519" on="0"/>
        <pt x="230" y="442" on="0"/>
        <pt x="200" y="350" on="0"/>
        <pt x="200" y="307" on="1"/>
        <pt x="200" y="273" on="0"/>
        <pt x="217" y="213" on="0"/>
        <pt x="250" y="167" on="0"/>
        <pt x="300" y="140" on="0"/>
        <pt x="332" y="140" on="1"/>
        <pt x="353" y="140" on="0"/>
        <pt x="398" y="151" on="0"/>
        <pt x="443" y="174" on="0"/>
        <pt x="484" y="211" on="0"/>
        <pt x="499" y="238" on="1"/>
        <pt x="617" y="159" on="1"/>
        <pt x="593" y="120" on="0"/>
        <pt x="519" y="58" on="0"/>
        <pt x="432" y="16" on="0"/>
        <pt x="339" y="-6" on="0"/>
      </contour>
    </TTGlyph>
    <TTGlyph name="C.sc" xMin="19" yMin="-5" xMax="576" yMax="566">
      <contour>
        <pt x="248" y="-5" on="1"/>
        <pt x="194" y="-5" on="0"/>
        <pt x="108" y="36" on="0"/>
        <pt x="50" y="104" on="0"/>
        <pt x="19" y="191" on="0"/>
        <pt x="19" y="238" on="1"/>
        <pt x="19" y="296" on="0"/>
        <pt x="72" y="413" on="0"/>
        <pt x="166" y="507" on="0"/>
        <pt x="297" y="566" on="0"/>
        <pt x="374" y="566" on="1"/>
        <pt x="455" y="566" on="0"/>
        <pt x="559" y="499" on="0"/>
        <pt x="576" y="443" on="1"/>
        <pt x="450" y="365" on="1"/>
        <pt x="445" y="386" on="0"/>
        <pt x="423" y="415" on="0"/>
        <pt x="394" y="431" on="0"/>
        <pt x="360" y="438" on="0"/>
        <pt x="344" y="438" on="1"/>
        <pt x="302" y="438" on="0"/>
        <pt x="236" y="403" on="0"/>
        <pt x="190" y="348" on="0"/>
        <pt x="166" y="281" on="0"/>
        <pt x="166" y="249" on="1"/>
        <pt x="166" y="223" on="0"/>
        <pt x="181" y="178" on="0"/>
        <pt x="209" y="143" on="0"/>
        <pt x="252" y="123" on="0"/>
        <pt x="279" y="123" on="1"/>
        <pt x="312" y="123" on="0"/>
        <pt x="389" y="156" on="0"/>
        <pt x="413" y="196" on="1"/>
        <pt x="515" y="126" on="1"/>
        <pt x="495" y="94" on="0"/>
        <pt x="433" y="46" on="0"/>
        <pt x="361" y="12" on="0"/>
        <pt x="284" y="-5" on="0"/>
      </contour>
    </TTGlyph>
    <TTGlyph name="Cacute" xMin="33" yMin="-6" xMax="694" yMax="916">
      <contour>
        <pt x="513" y="772" on="1"/>
        <pt x="407" y="786" on="1"/>
        <pt x="484" y="916" on="1"/>
        <pt x="628" y="916" on="1"/>
      </contour>
      <contour>
        <pt x="297" y="-6" on="1"/>
        <pt x="234" y="-6" on="0"/>
        <pt x="136" y="45" on="0"/>
        <pt x="68" y="130" on="0"/>
        <pt x="33" y="239" on="0"/>
        <pt x="33" y="297" on="1"/>
        <pt x="33" y="346" on="0"/>
        <pt x="62" y="446" on="0"/>
        <pt x="115" y="539" on="0"/>
        <pt x="191" y="619" on="0"/>
        <pt x="285" y="679" on="0"/>
        <pt x="395" y="714" on="0"/>
        <pt x="456" y="714" on="1"/>
        <pt x="552" y="714" on="0"/>
        <pt x="674" y="628" on="0"/>
        <pt x="694" y="559" on="1"/>
        <pt x="549" y="471" on="1"/>
        <pt x="544" y="499" on="0"/>
        <pt x="519" y="536" on="0"/>
        <pt x="483" y="559" on="0"/>
        <pt x="441" y="568" on="0"/>
        <pt x="421" y="568" on="1"/>
        <pt x="369" y="568" on="0"/>
        <pt x="287" y="519" on="0"/>
        <pt x="230" y="442" on="0"/>
        <pt x="200" y="350" on="0"/>
        <pt x="200" y="307" on="1"/>
        <pt x="200" y="273" on="0"/>
        <pt x="217" y="213" on="0"/>
        <pt x="250" y="167" on="0"/>
        <pt x="300" y="140" on="0"/>
        <pt x="332" y="140" on="1"/>
        <pt x="353" y="140" on="0"/>
        <pt x="398" y="151" on="0"/>
        <pt x="443" y="174" on="0"/>
        <pt x="484" y="211" on="0"/>
        <pt x="499" y="238" on="1"/>
        <pt x="617" y="159" on="1"/>
        <pt x="593" y="120" on="0"/>
        <pt x="519" y="58" on="0"/>
        <pt x="432" y="16" on="0"/>
        <pt x="339" y="-6" on="0"/>
      </contour>
    </TTGlyph>
    <TTGlyph name="Ccaron" xMin="33" yMin="-6" xMax="694" yMax="916">
      <contour>
        <pt x="328" y="879" on="1"/>
        <pt x="417" y="916" on="1"/>
        <pt x="484" y="853" on="1"/>
        <pt x="578" y="916" on="1"/>
        <pt x="653" y="879" on="1"/>
        <pt x="525" y="772" on="1"/>
        <pt x="410" y="772" on="1"/>
      </contour>
      <contour>
        <pt x="297" y="-6" on="1"/>
        <pt x="234" y="-6" on="0"/>
        <pt x="136" y="45" on="0"/>
        <pt x="68" y="130" on="0"/>
        <pt x="33" y="239" on="0"/>
        <pt x="33" y="297" on="1"/>
        <pt x="33" y="346" on="0"/>
        <pt x="62" y="446" on="0"/>
        <pt x="115" y="539" on="0"/>
        <pt x="191" y="619" on="0"/>
        <pt x="285" y="679" on="0"/>
        <pt x="395" y="714" on="0"/>
        <pt x="456" y="714" on="1"/>
        <pt x="552" y="714" on="0"/>
        <pt x="674" y="628" on="0"/>
        <pt x="694" y="559" on="1"/>
        <pt x="549" y="471" on="1"/>
        <pt x="544" y="499" on="0"/>
        <pt x="519" y="536" on="0"/>
        <pt x="483" y="559" on="0"/>
        <pt x="441" y="568" on="0"/>
        <pt x="421" y="568" on="1"/>
        <pt x="369" y="568" on="0"/>
        <pt x="287" y="519" on="0"/>
        <pt x="230" y="442" on="0"/>
        <pt x="200" y="350" on="0"/>
        <pt x="200" y="307" on="1"/>
        <pt x="200" y="273" on="0"/>
        <pt x="217" y="213" on="0"/>
        <pt x="250" y="167" on="0"/>
        <pt x="300" y="140" on="0"/>
        <pt x="332" y="140" on="1"/>
        <pt x="353" y="140" on="0"/>
        <pt x="398" y="151" on="0"/>
        <pt x="443" y="174" on="0"/>
        <pt x="484" y="211" on="0"/>
        <pt x="499" y="238" on="1"/>
        <pt x="617" y="159" on="1"/>
        <pt x="593" y="120" on="0"/>
        <pt x="519" y="58" on="0"/>
        <pt x="432" y="16" on="0"/>
        <pt x="339" y="-6" on="0"/>
      </contour>
    </TTGlyph>
    <TTGlyph name="Ccedilla" xMin="32" yMin="-204" xMax="693" yMax="714">
      <contour>
        <pt x="190" y="-127" on="1"/>
        <pt x="199" y="-134" on="0"/>
        <pt x="246" y="-147" on="0"/>
        <pt x="272" y="-147" on="1"/>
        <pt x="298" y="-147" on="0"/>
        <pt x="332" y="-130" on="0"/>
        <pt x="332" y="-109" on="1"/>
        <pt x="332" y="-95" on="0"/>
        <pt x="308" y="-83" on="0"/>
        <pt x="287" y="-83" on="1"/>
        <pt x="267" y="-83" on="0"/>
        <pt x="221" y="-91" on="0"/>
        <pt x="209" y="-94" on="1"/>
        <pt x="270" y="-5" on="1"/>
        <pt x="213" y="0" on="0"/>
        <pt x="124" y="55" on="0"/>
        <pt x="64" y="138" on="0"/>
        <pt x="32" y="242" on="0"/>
        <pt x="32" y="297" on="1"/>
        <pt x="32" y="346" on="0"/>
        <pt x="61" y="446" on="0"/>
        <pt x="114" y="539" on="0"/>
        <pt x="190" y="619" on="0"/>
        <pt x="284" y="679" on="0"/>
        <pt x="394" y="714" on="0"/>
        <pt x="455" y="714" on="1"/>
        <pt x="551" y="714" on="0"/>
        <pt x="673" y="628" on="0"/>
        <pt x="693" y="559" on="1"/>
        <pt x="548" y="471" on="1"/>
        <pt x="543" y="499" on="0"/>
        <pt x="518" y="536" on="0"/>
        <pt x="482" y="559" on="0"/>
        <pt x="440" y="568" on="0"/>
        <pt x="420" y="568" on="1"/>
        <pt x="368" y="568" on="0"/>
        <pt x="286" y="519" on="0"/>
        <pt x="229" y="442" on="0"/>
        <pt x="199" y="350" on="0"/>
        <pt x="199" y="307" on="1"/>
        <pt x="199" y="273" on="0"/>
        <pt x="216" y="213" on="0"/>
        <pt x="249" y="167" on="0"/>
        <pt x="299" y="140" on="0"/>
        <pt x="331" y="140" on="1"/>
        <pt x="352" y="140" on="0"/>
        <pt x="397" y="151" on="0"/>
        <pt x="442" y="174" on="0"/>
        <pt x="483" y="211" on="0"/>
        <pt x="498" y="238" on="1"/>
        <pt x="616" y="159" on="1"/>
        <pt x="595" y="124" on="0"/>
        <pt x="532" y="68" on="0"/>
        <pt x="458" y="27" on="0"/>
        <pt x="376" y="1" on="0"/>
        <pt x="337" y="-3" on="1"/>
        <pt x="307" y="-38" on="1"/>
        <pt x="319" y="-35" on="0"/>
        <pt x="335" y="-35" on="1"/>
        <pt x="364" y="-35" on="0"/>
        <pt x="407" y="-63" on="0"/>
        <pt x="407" y="-95" on="1"/>
        <pt x="407" y="-117" on="0"/>
        <pt x="387" y="-156" on="0"/>
        <pt x="348" y="-186" on="0"/>
        <pt x="289" y="-204" on="0"/>
        <pt x="249" y="-204" on="1"/>
        <pt x="216" y="-204" on="0"/>
        <pt x="165" y="-191" on="0"/>
        <pt x="148" y="-183" on="1"/>
      </contour>
    </TTGlyph>
    <TTGlyph name="Ccircumflex" xMin="33" yMin="-6" xMax="694" yMax="916">
      <contour>
        <pt x="316" y="808" on="1"/>
        <pt x="444" y="916" on="1"/>
        <pt x="558" y="916" on="1"/>
        <pt x="640" y="808" on="1"/>
        <pt x="551" y="772" on="1"/>
        <pt x="484" y="835" on="1"/>
        <pt x="390" y="772" on="1"/>
      </contour>
      <contour>
        <pt x="297" y="-6" on="1"/>
        <pt x="234" y="-6" on="0"/>
        <pt x="136" y="45" on="0"/>
        <pt x="68" y="130" on="0"/>
        <pt x="33" y="239" on="0"/>
        <pt x="33" y="297" on="1"/>
        <pt x="33" y="346" on="0"/>
        <pt x="62" y="446" on="0"/>
        <pt x="115" y="539" on="0"/>
        <pt x="191" y="619" on="0"/>
        <pt x="285" y="679" on="0"/>
        <pt x="395" y="714" on="0"/>
        <pt x="456" y="714" on="1"/>
        <pt x="552" y="714" on="0"/>
        <pt x="674" y="628" on="0"/>
        <pt x="694" y="559" on="1"/>
        <pt x="549" y="471" on="1"/>
        <pt x="544" y="499" on="0"/>
        <pt x="519" y="536" on="0"/>
        <pt x="483" y="559" on="0"/>
        <pt x="441" y="568" on="0"/>
        <pt x="421" y="568" on="1"/>
        <pt x="369" y="568" on="0"/>
        <pt x="287" y="519" on="0"/>
        <pt x="230" y="442" on="0"/>
        <pt x="200" y="350" on="0"/>
        <pt x="200" y="307" on="1"/>
        <pt x="200" y="273" on="0"/>
        <pt x="217" y="213" on="0"/>
        <pt x="250" y="167" on="0"/>
        <pt x="300" y="140" on="0"/>
        <pt x="332" y="140" on="1"/>
        <pt x="353" y="140" on="0"/>
        <pt x="398" y="151" on="0"/>
        <pt x="443" y="174" on="0"/>
        <pt x="484" y="211" on="0"/>
        <pt x="499" y="238" on="1"/>
        <pt x="617" y="159" on="1"/>
        <pt x="593" y="120" on="0"/>
        <pt x="519" y="58" on="0"/>
        <pt x="432" y="16" on="0"/>
        <pt x="339" y="-6" on="0"/>
      </contour>
    </TTGlyph>
    <TTGlyph name="Cdotaccent" xMin="33" yMin="-6" xMax="694" yMax="916">
      <contour>
        <pt x="297" y="-6" on="1"/>
        <pt x="234" y="-6" on="0"/>
        <pt x="136" y="45" on="0"/>
        <pt x="68" y="130" on="0"/>
        <pt x="33" y="239" on="0"/>
        <pt x="33" y="297" on="1"/>
        <pt x="33" y="346" on="0"/>
        <pt x="62" y="446" on="0"/>
        <pt x="115" y="539" on="0"/>
        <pt x="191" y="619" on="0"/>
        <pt x="285" y="679" on="0"/>
        <pt x="395" y="714" on="0"/>
        <pt x="456" y="714" on="1"/>
        <pt x="552" y="714" on="0"/>
        <pt x="674" y="628" on="0"/>
        <pt x="694" y="559" on="1"/>
        <pt x="549" y="471" on="1"/>
        <pt x="544" y="499" on="0"/>
        <pt x="519" y="536" on="0"/>
        <pt x="483" y="559" on="0"/>
        <pt x="441" y="568" on="0"/>
        <pt x="421" y="568" on="1"/>
        <pt x="369" y="568" on="0"/>
        <pt x="287" y="519" on="0"/>
        <pt x="230" y="442" on="0"/>
        <pt x="200" y="350" on="0"/>
        <pt x="200" y="307" on="1"/>
        <pt x="200" y="273" on="0"/>
        <pt x="217" y="213" on="0"/>
        <pt x="250" y="167" on="0"/>
        <pt x="300" y="140" on="0"/>
        <pt x="332" y="140" on="1"/>
        <pt x="353" y="140" on="0"/>
        <pt x="398" y="151" on="0"/>
        <pt x="443" y="174" on="0"/>
        <pt x="484" y="211" on="0"/>
        <pt x="499" y="238" on="1"/>
        <pt x="617" y="159" on="1"/>
        <pt x="593" y="120" on="0"/>
        <pt x="519" y="58" on="0"/>
        <pt x="432" y="16" on="0"/>
        <pt x="339" y="-6" on="0"/>
      </contour>
      <contour>
        <pt x="401" y="779" on="1"/>
        <pt x="430" y="916" on="1"/>
        <pt x="574" y="916" on="1"/>
        <pt x="545" y="779" on="1"/>
      </contour>
    </TTGlyph>
    <TTGlyph name="D" xMin="4" yMin="0" xMax="681" yMax="710">
      <contour>
        <pt x="155" y="710" on="1"/>
        <pt x="409" y="710" on="1"/>
        <pt x="478" y="710" on="0"/>
        <pt x="581" y="667" on="0"/>
        <pt x="648" y="593" on="0"/>
        <pt x="681" y="492" on="0"/>
        <pt x="681" y="434" on="1"/>
        <pt x="681" y="340" on="0"/>
        <pt x="617" y="181" on="0"/>
        <pt x="503" y="65" on="0"/>
        <pt x="348" y="0" on="0"/>
        <pt x="258" y="0" on="1"/>
        <pt x="4" y="0" on="1"/>
      </contour>
      <contour>
        <pt x="288" y="144" on="1"/>
        <pt x="338" y="144" on="0"/>
        <pt x="420" y="187" on="0"/>
        <pt x="479" y="261" on="0"/>
        <pt x="511" y="357" on="0"/>
        <pt x="511" y="410" on="1"/>
        <pt x="511" y="480" on="0"/>
        <pt x="444" y="566" on="0"/>
        <pt x="378" y="566" on="1"/>
        <pt x="288" y="566" on="1"/>
        <pt x="198" y="144" on="1"/>
      </contour>
    </TTGlyph>
    <TTGlyph name="D.sc" xMin="-2" yMin="0" xMax="590" yMax="563">
      <contour>
        <pt x="118" y="563" on="1"/>
        <pt x="343" y="563" on="1"/>
        <pt x="406" y="563" on="0"/>
        <pt x="499" y="528" on="0"/>
        <pt x="560" y="467" on="0"/>
        <pt x="590" y="385" on="0"/>
        <pt x="590" y="338" on="1"/>
        <pt x="590" y="264" on="0"/>
        <pt x="534" y="140" on="0"/>
        <pt x="436" y="50" on="0"/>
        <pt x="302" y="0" on="0"/>
        <pt x="223" y="0" on="1"/>
        <pt x="-2" y="0" on="1"/>
      </contour>
      <contour>
        <pt x="249" y="125" on="1"/>
        <pt x="293" y="125" on="0"/>
        <pt x="365" y="156" on="0"/>
        <pt x="415" y="208" on="0"/>
        <pt x="442" y="277" on="0"/>
        <pt x="442" y="316" on="1"/>
        <pt x="442" y="371" on="0"/>
        <pt x="378" y="438" on="0"/>
        <pt x="316" y="438" on="1"/>
        <pt x="234" y="438" on="1"/>
        <pt x="168" y="125" on="1"/>
      </contour>
    </TTGlyph>
    <TTGlyph name="Dcaron" xMin="4" yMin="0" xMax="681" yMax="916">
      <contour>
        <pt x="268" y="879" on="1"/>
        <pt x="357" y="916" on="1"/>
        <pt x="424" y="853" on="1"/>
        <pt x="518" y="916" on="1"/>
        <pt x="593" y="879" on="1"/>
        <pt x="465" y="772" on="1"/>
        <pt x="350" y="772" on="1"/>
      </contour>
      <contour>
        <pt x="155" y="710" on="1"/>
        <pt x="409" y="710" on="1"/>
        <pt x="478" y="710" on="0"/>
        <pt x="581" y="667" on="0"/>
        <pt x="648" y="593" on="0"/>
        <pt x="681" y="492" on="0"/>
        <pt x="681" y="434" on="1"/>
        <pt x="681" y="340" on="0"/>
        <pt x="617" y="181" on="0"/>
        <pt x="503" y="65" on="0"/>
        <pt x="348" y="0" on="0"/>
        <pt x="258" y="0" on="1"/>
        <pt x="4" y="0" on="1"/>
      </contour>
      <contour>
        <pt x="288" y="144" on="1"/>
        <pt x="338" y="144" on="0"/>
        <pt x="420" y="187" on="0"/>
        <pt x="479" y="261" on="0"/>
        <pt x="511" y="357" on="0"/>
        <pt x="511" y="410" on="1"/>
        <pt x="511" y="480" on="0"/>
        <pt x="444" y="566" on="0"/>
        <pt x="378" y="566" on="1"/>
        <pt x="288" y="566" on="1"/>
        <pt x="198" y="144" on="1"/>
      </contour>
    </TTGlyph>
    <TTGlyph name="Dcroat" xMin="8" yMin="0" xMax="685" yMax="710">
      <contour>
        <pt x="57" y="416" on="1"/>
        <pt x="96" y="416" on="1"/>
        <pt x="159" y="710" on="1"/>
        <pt x="413" y="710" on="1"/>
        <pt x="482" y="710" on="0"/>
        <pt x="585" y="667" on="0"/>
        <pt x="652" y="593" on="0"/>
        <pt x="685" y="492" on="0"/>
        <pt x="685" y="434" on="1"/>
        <pt x="685" y="340" on="0"/>
        <pt x="621" y="181" on="0"/>
        <pt x="507" y="65" on="0"/>
        <pt x="352" y="0" on="0"/>
        <pt x="262" y="0" on="1"/>
        <pt x="8" y="0" on="1"/>
        <pt x="71" y="298" on="1"/>
        <pt x="32" y="298" on="1"/>
      </contour>
      <contour>
        <pt x="292" y="144" on="1"/>
        <pt x="342" y="144" on="0"/>
        <pt x="425" y="187" on="0"/>
        <pt x="484" y="261" on="0"/>
        <pt x="516" y="357" on="0"/>
        <pt x="516" y="410" on="1"/>
        <pt x="516" y="480" on="0"/>
        <pt x="449" y="566" on="0"/>
        <pt x="383" y="566" on="1"/>
        <pt x="293" y="566" on="1"/>
        <pt x="260" y="416" on="1"/>
        <pt x="379" y="416" on="1"/>
        <pt x="353" y="298" on="1"/>
        <pt x="235" y="298" on="1"/>
        <pt x="202" y="144" on="1"/>
      </contour>
    </TTGlyph>
    <TTGlyph name="Ddotbelow" xMin="4" yMin="-204" xMax="681" yMax="710">
      <contour>
        <pt x="155" y="-204" on="1"/>
        <pt x="184" y="-67" on="1"/>
        <pt x="328" y="-67" on="1"/>
        <pt x="299" y="-204" on="1"/>
      </contour>
      <contour>
        <pt x="155" y="710" on="1"/>
        <pt x="409" y="710" on="1"/>
        <pt x="478" y="710" on="0"/>
        <pt x="581" y="667" on="0"/>
        <pt x="648" y="593" on="0"/>
        <pt x="681" y="492" on="0"/>
        <pt x="681" y="434" on="1"/>
        <pt x="681" y="340" on="0"/>
        <pt x="617" y="181" on="0"/>
        <pt x="503" y="65" on="0"/>
        <pt x="348" y="0" on="0"/>
        <pt x="258" y="0" on="1"/>
        <pt x="4" y="0" on="1"/>
      </contour>
      <contour>
        <pt x="288" y="144" on="1"/>
        <pt x="338" y="144" on="0"/>
        <pt x="420" y="187" on="0"/>
        <pt x="479" y="261" on="0"/>
        <pt x="511" y="357" on="0"/>
        <pt x="511" y="410" on="1"/>
        <pt x="511" y="480" on="0"/>
        <pt x="444" y="566" on="0"/>
        <pt x="378" y="566" on="1"/>
        <pt x="288" y="566" on="1"/>
        <pt x="198" y="144" on="1"/>
      </contour>
    </TTGlyph>
    <TTGlyph name="Delta" xMin="1" yMin="0" xMax="623" yMax="710">
      <contour>
        <pt x="623" y="126" on="1"/>
        <pt x="623" y="0" on="1"/>
        <pt x="1" y="0" on="1"/>
        <pt x="1" y="126" on="1"/>
        <pt x="246" y="710" on="1"/>
        <pt x="379" y="710" on="1"/>
      </contour>
      <contour>
        <pt x="466" y="144" on="1"/>
        <pt x="313" y="529" on="1"/>
        <pt x="164" y="144" on="1"/>
      </contour>
    </TTGlyph>
    <TTGlyph name="E" xMin="4" yMin="0" xMax="622" yMax="710">
      <contour>
        <pt x="155" y="710" on="1"/>
        <pt x="622" y="710" on="1"/>
        <pt x="591" y="566" on="1"/>
        <pt x="288" y="566" on="1"/>
        <pt x="259" y="428" on="1"/>
        <pt x="519" y="428" on="1"/>
        <pt x="491" y="295" on="1"/>
        <pt x="231" y="295" on="1"/>
        <pt x="198" y="144" on="1"/>
        <pt x="510" y="144" on="1"/>
        <pt x="480" y="0" on="1"/>
        <pt x="4" y="0" on="1"/>
      </contour>
    </TTGlyph>
    <TTGlyph name="E.sc" xMin="-2" yMin="0" xMax="533" yMax="563">
      <contour>
        <pt x="118" y="563" on="1"/>
        <pt x="533" y="563" on="1"/>
        <pt x="506" y="438" on="1"/>
        <pt x="234" y="438" on="1"/>
        <pt x="215" y="345" on="1"/>
        <pt x="448" y="345" on="1"/>
        <pt x="424" y="228" on="1"/>
        <pt x="190" y="228" on="1"/>
        <pt x="168" y="125" on="1"/>
        <pt x="447" y="125" on="1"/>
        <pt x="420" y="0" on="1"/>
        <pt x="-2" y="0" on="1"/>
      </contour>
    </TTGlyph>
    <TTGlyph name="Eacute" xMin="4" yMin="0" xMax="622" yMax="916">
      <contour>
        <pt x="431" y="772" on="1"/>
        <pt x="325" y="786" on="1"/>
        <pt x="402" y="916" on="1"/>
        <pt x="546" y="916" on="1"/>
      </contour>
      <contour>
        <pt x="155" y="710" on="1"/>
        <pt x="622" y="710" on="1"/>
        <pt x="591" y="566" on="1"/>
        <pt x="288" y="566" on="1"/>
        <pt x="259" y="428" on="1"/>
        <pt x="519" y="428" on="1"/>
        <pt x="491" y="295" on="1"/>
        <pt x="231" y="295" on="1"/>
        <pt x="198" y="144" on="1"/>
        <pt x="510" y="144" on="1"/>
        <pt x="480" y="0" on="1"/>
        <pt x="4" y="0" on="1"/>
      </contour>
    </TTGlyph>
    <TTGlyph name="Ebreve" xMin="4" yMin="0" xMax="622" yMax="916">
      <contour>
        <pt x="155" y="710" on="1"/>
        <pt x="622" y="710" on="1"/>
        <pt x="591" y="566" on="1"/>
        <pt x="288" y="566" on="1"/>
        <pt x="259" y="428" on="1"/>
        <pt x="519" y="428" on="1"/>
        <pt x="491" y="295" on="1"/>
        <pt x="231" y="295" on="1"/>
        <pt x="198" y="144" on="1"/>
        <pt x="510" y="144" on="1"/>
        <pt x="480" y="0" on="1"/>
        <pt x="4" y="0" on="1"/>
      </contour>
      <contour>
        <pt x="405" y="839" on="1"/>
        <pt x="426" y="839" on="0"/>
        <pt x="467" y="882" on="0"/>
        <pt x="478" y="916" on="1"/>
        <pt x="562" y="916" on="1"/>
        <pt x="555" y="884" on="0"/>
        <pt x="523" y="830" on="0"/>
        <pt x="477" y="791" on="0"/>
        <pt x="421" y="769" on="0"/>
        <pt x="390" y="769" on="1"/>
        <pt x="336" y="769" on="0"/>
        <pt x="275" y="829" on="0"/>
        <pt x="275" y="879" on="1"/>
        <pt x="275" y="888" on="0"/>
        <pt x="278" y="906" on="0"/>
        <pt x="280" y="916" on="1"/>
        <pt x="364" y="916" on="1"/>
        <pt x="361" y="905" on="0"/>
        <pt x="361" y="895" on="1"/>
        <pt x="361" y="871" on="0"/>
        <pt x="385" y="839" on="0"/>
      </contour>
    </TTGlyph>
    <TTGlyph name="Ecaron" xMin="4" yMin="0" xMax="622" yMax="916">
      <contour>
        <pt x="254" y="879" on="1"/>
        <pt x="343" y="916" on="1"/>
        <pt x="410" y="853" on="1"/>
        <pt x="504" y="916" on="1"/>
        <pt x="579" y="879" on="1"/>
        <pt x="451" y="772" on="1"/>
        <pt x="336" y="772" on="1"/>
      </contour>
      <contour>
        <pt x="155" y="710" on="1"/>
        <pt x="622" y="710" on="1"/>
        <pt x="591" y="566" on="1"/>
        <pt x="288" y="566" on="1"/>
        <pt x="259" y="428" on="1"/>
        <pt x="519" y="428" on="1"/>
        <pt x="491" y="295" on="1"/>
        <pt x="231" y="295" on="1"/>
        <pt x="198" y="144" on="1"/>
        <pt x="510" y="144" on="1"/>
        <pt x="480" y="0" on="1"/>
        <pt x="4" y="0" on="1"/>
      </contour>
    </TTGlyph>
    <TTGlyph name="Ecircumflex" xMin="4" yMin="0" xMax="622" yMax="916">
      <contour>
        <pt x="242" y="808" on="1"/>
        <pt x="370" y="916" on="1"/>
        <pt x="484" y="916" on="1"/>
        <pt x="566" y="808" on="1"/>
        <pt x="477" y="772" on="1"/>
        <pt x="410" y="835" on="1"/>
        <pt x="316" y="772" on="1"/>
      </contour>
      <contour>
        <pt x="155" y="710" on="1"/>
        <pt x="622" y="710" on="1"/>
        <pt x="591" y="566" on="1"/>
        <pt x="288" y="566" on="1"/>
        <pt x="259" y="428" on="1"/>
        <pt x="519" y="428" on="1"/>
        <pt x="491" y="295" on="1"/>
        <pt x="231" y="295" on="1"/>
        <pt x="198" y="144" on="1"/>
        <pt x="510" y="144" on="1"/>
        <pt x="480" y="0" on="1"/>
        <pt x="4" y="0" on="1"/>
      </contour>
    </TTGlyph>
    <TTGlyph name="Edblgrave" xMin="4" yMin="0" xMax="622" yMax="918">
      <contour>
        <pt x="415" y="918" on="1"/>
        <pt x="533" y="918" on="1"/>
        <pt x="547" y="788" on="1"/>
        <pt x="462" y="772" on="1"/>
      </contour>
      <contour>
        <pt x="245" y="918" on="1"/>
        <pt x="364" y="918" on="1"/>
        <pt x="377" y="788" on="1"/>
        <pt x="292" y="772" on="1"/>
      </contour>
      <contour>
        <pt x="155" y="710" on="1"/>
        <pt x="622" y="710" on="1"/>
        <pt x="591" y="566" on="1"/>
        <pt x="288" y="566" on="1"/>
        <pt x="259" y="428" on="1"/>
        <pt x="519" y="428" on="1"/>
        <pt x="491" y="295" on="1"/>
        <pt x="231" y="295" on="1"/>
        <pt x="198" y="144" on="1"/>
        <pt x="510" y="144" on="1"/>
        <pt x="480" y="0" on="1"/>
        <pt x="4" y="0" on="1"/>
      </contour>
    </TTGlyph>
    <TTGlyph name="Edieresis" xMin="4" yMin="0" xMax="622" yMax="909">
      <contour>
        <pt x="233" y="780" on="1"/>
        <pt x="261" y="909" on="1"/>
        <pt x="393" y="909" on="1"/>
        <pt x="365" y="780" on="1"/>
      </contour>
      <contour>
        <pt x="438" y="780" on="1"/>
        <pt x="466" y="909" on="1"/>
        <pt x="597" y="909" on="1"/>
        <pt x="570" y="780" on="1"/>
      </contour>
      <contour>
        <pt x="155" y="710" on="1"/>
        <pt x="622" y="710" on="1"/>
        <pt x="591" y="566" on="1"/>
        <pt x="288" y="566" on="1"/>
        <pt x="259" y="428" on="1"/>
        <pt x="519" y="428" on="1"/>
        <pt x="491" y="295" on="1"/>
        <pt x="231" y="295" on="1"/>
        <pt x="198" y="144" on="1"/>
        <pt x="510" y="144" on="1"/>
        <pt x="480" y="0" on="1"/>
        <pt x="4" y="0" on="1"/>
      </contour>
    </TTGlyph>
    <TTGlyph name="Edotaccent" xMin="4" yMin="0" xMax="622" yMax="916">
      <contour>
        <pt x="155" y="710" on="1"/>
        <pt x="622" y="710" on="1"/>
        <pt x="591" y="566" on="1"/>
        <pt x="288" y="566" on="1"/>
        <pt x="259" y="428" on="1"/>
        <pt x="519" y="428" on="1"/>
        <pt x="491" y="295" on="1"/>
        <pt x="231" y="295" on="1"/>
        <pt x="198" y="144" on="1"/>
        <pt x="510" y="144" on="1"/>
        <pt x="480" y="0" on="1"/>
        <pt x="4" y="0" on="1"/>
      </contour>
      <contour>
        <pt x="328" y="779" on="1"/>
        <pt x="357" y="916" on="1"/>
        <pt x="501" y="916" on="1"/>
        <pt x="472" y="779" on="1"/>
      </contour>
    </TTGlyph>
    <TTGlyph name="Edotbelow" xMin="4" yMin="-204" xMax="622" yMax="710">
      <contour>
        <pt x="155" y="710" on="1"/>
        <pt x="622" y="710" on="1"/>
        <pt x="591" y="566" on="1"/>
        <pt x="288" y="566" on="1"/>
        <pt x="259" y="428" on="1"/>
        <pt x="519" y="428" on="1"/>
        <pt x="491" y="295" on="1"/>
        <pt x="231" y="295" on="1"/>
        <pt x="198" y="144" on="1"/>
        <pt x="510" y="144" on="1"/>
        <pt x="480" y="0" on="1"/>
        <pt x="4" y="0" on="1"/>
      </contour>
      <contour>
        <pt x="120" y="-204" on="1"/>
        <pt x="149" y="-67" on="1"/>
        <pt x="293" y="-67" on="1"/>
        <pt x="264" y="-204" on="1"/>
      </contour>
    </TTGlyph>
    <TTGlyph name="Egrave" xMin="4" yMin="0" xMax="622" yMax="917">
      <contour>
        <pt x="155" y="710" on="1"/>
        <pt x="622" y="710" on="1"/>
        <pt x="591" y="566" on="1"/>
        <pt x="288" y="566" on="1"/>
        <pt x="259" y="428" on="1"/>
        <pt x="519" y="428" on="1"/>
        <pt x="491" y="295" on="1"/>
        <pt x="231" y="295" on="1"/>
        <pt x="198" y="144" on="1"/>
        <pt x="510" y="144" on="1"/>
        <pt x="480" y="0" on="1"/>
        <pt x="4" y="0" on="1"/>
      </contour>
      <contour>
        <pt x="310" y="917" on="1"/>
        <pt x="454" y="917" on="1"/>
        <pt x="476" y="787" on="1"/>
        <pt x="365" y="771" on="1"/>
      </contour>
    </TTGlyph>
    <TTGlyph name="Einvertedbreve" xMin="4" yMin="0" xMax="622" yMax="916">
      <contour>
        <pt x="260" y="769" on="1"/>
        <pt x="267" y="801" on="0"/>
        <pt x="299" y="855" on="0"/>
        <pt x="345" y="894" on="0"/>
        <pt x="401" y="916" on="0"/>
        <pt x="432" y="916" on="1"/>
        <pt x="486" y="916" on="0"/>
        <pt x="545" y="850" on="0"/>
        <pt x="545" y="802" on="1"/>
        <pt x="545" y="787" on="0"/>
        <pt x="542" y="769" on="1"/>
        <pt x="458" y="769" on="1"/>
        <pt x="461" y="785" on="0"/>
        <pt x="461" y="799" on="1"/>
        <pt x="461" y="846" on="0"/>
        <pt x="417" y="846" on="1"/>
        <pt x="391" y="846" on="0"/>
        <pt x="351" y="811" on="0"/>
        <pt x="343" y="769" on="1"/>
      </contour>
      <contour>
        <pt x="155" y="710" on="1"/>
        <pt x="622" y="710" on="1"/>
        <pt x="591" y="566" on="1"/>
        <pt x="288" y="566" on="1"/>
        <pt x="259" y="428" on="1"/>
        <pt x="519" y="428" on="1"/>
        <pt x="491" y="295" on="1"/>
        <pt x="231" y="295" on="1"/>
        <pt x="198" y="144" on="1"/>
        <pt x="510" y="144" on="1"/>
        <pt x="480" y="0" on="1"/>
        <pt x="4" y="0" on="1"/>
      </contour>
    </TTGlyph>
    <TTGlyph name="Emacron" xMin="4" yMin="0" xMax="622" yMax="903">
      <contour>
        <pt x="155" y="710" on="1"/>
        <pt x="622" y="710" on="1"/>
        <pt x="591" y="566" on="1"/>
        <pt x="288" y="566" on="1"/>
        <pt x="259" y="428" on="1"/>
        <pt x="519" y="428" on="1"/>
        <pt x="491" y="295" on="1"/>
        <pt x="231" y="295" on="1"/>
        <pt x="198" y="144" on="1"/>
        <pt x="510" y="144" on="1"/>
        <pt x="480" y="0" on="1"/>
        <pt x="4" y="0" on="1"/>
      </contour>
      <contour>
        <pt x="262" y="806" on="1"/>
        <pt x="282" y="903" on="1"/>
        <pt x="573" y="903" on="1"/>
        <pt x="552" y="806" on="1"/>
      </contour>
    </TTGlyph>
    <TTGlyph name="Eng" xMin="4" yMin="-202" xMax="732" yMax="710">
      <contour>
        <pt x="351" y="-202" on="1"/>
        <pt x="313" y="-202" on="0"/>
        <pt x="249" y="-177" on="0"/>
        <pt x="226" y="-152" on="1"/>
        <pt x="316" y="-43" on="1"/>
        <pt x="323" y="-54" on="0"/>
        <pt x="347" y="-64" on="0"/>
        <pt x="361" y="-64" on="1"/>
        <pt x="381" y="-64" on="0"/>
        <pt x="414" y="-34" on="0"/>
        <pt x="419" y="-9" on="1"/>
        <pt x="429" y="35" on="1"/>
        <pt x="253" y="401" on="1"/>
        <pt x="168" y="0" on="1"/>
        <pt x="4" y="0" on="1"/>
        <pt x="155" y="710" on="1"/>
        <pt x="281" y="710" on="1"/>
        <pt x="481" y="301" on="1"/>
        <pt x="568" y="709" on="1"/>
        <pt x="732" y="709" on="1"/>
        <pt x="580" y="-2" on="1"/>
        <pt x="570" y="-47" on="0"/>
        <pt x="525" y="-121" on="0"/>
        <pt x="464" y="-174" on="0"/>
        <pt x="390" y="-202" on="0"/>
      </contour>
    </TTGlyph>
    <TTGlyph name="Eogonek" xMin="4" yMin="-204" xMax="622" yMax="710">
      <contour>
        <pt x="155" y="710" on="1"/>
        <pt x="622" y="710" on="1"/>
        <pt x="591" y="566" on="1"/>
        <pt x="288" y="566" on="1"/>
        <pt x="259" y="428" on="1"/>
        <pt x="519" y="428" on="1"/>
        <pt x="491" y="295" on="1"/>
        <pt x="231" y="295" on="1"/>
        <pt x="198" y="144" on="1"/>
        <pt x="510" y="144" on="1"/>
        <pt x="480" y="0" on="1"/>
        <pt x="292" y="0" on="1"/>
        <pt x="205" y="-50" on="0"/>
        <pt x="205" y="-87" on="1"/>
        <pt x="205" y="-101" on="0"/>
        <pt x="232" y="-119" on="0"/>
        <pt x="261" y="-120" on="1"/>
        <pt x="212" y="-204" on="1"/>
        <pt x="155" y="-196" on="0"/>
        <pt x="100" y="-151" on="0"/>
        <pt x="100" y="-122" on="1"/>
        <pt x="100" y="-92" on="0"/>
        <pt x="152" y="-29" on="0"/>
        <pt x="205" y="0" on="1"/>
        <pt x="4" y="0" on="1"/>
      </contour>
    </TTGlyph>
    <TTGlyph name="Eth" xMin="8" yMin="0" xMax="685" yMax="710">
      <contour>
        <pt x="57" y="416" on="1"/>
        <pt x="96" y="416" on="1"/>
        <pt x="159" y="710" on="1"/>
        <pt x="413" y="710" on="1"/>
        <pt x="482" y="710" on="0"/>
        <pt x="585" y="667" on="0"/>
        <pt x="652" y="593" on="0"/>
        <pt x="685" y="492" on="0"/>
        <pt x="685" y="434" on="1"/>
        <pt x="685" y="340" on="0"/>
        <pt x="621" y="181" on="0"/>
        <pt x="507" y="65" on="0"/>
        <pt x="352" y="0" on="0"/>
        <pt x="262" y="0" on="1"/>
        <pt x="8" y="0" on="1"/>
        <pt x="71" y="298" on="1"/>
        <pt x="32" y="298" on="1"/>
      </contour>
      <contour>
        <pt x="292" y="144" on="1"/>
        <pt x="342" y="144" on="0"/>
        <pt x="425" y="187" on="0"/>
        <pt x="484" y="261" on="0"/>
        <pt x="516" y="357" on="0"/>
        <pt x="516" y="410" on="1"/>
        <pt x="516" y="480" on="0"/>
        <pt x="449" y="566" on="0"/>
        <pt x="383" y="566" on="1"/>
        <pt x="293" y="566" on="1"/>
        <pt x="260" y="416" on="1"/>
        <pt x="379" y="416" on="1"/>
        <pt x="353" y="298" on="1"/>
        <pt x="235" y="298" on="1"/>
        <pt x="202" y="144" on="1"/>
      </contour>
    </TTGlyph>
    <TTGlyph name="Etilde" xMin="4" yMin="0" xMax="622" yMax="916">
      <contour>
        <pt x="155" y="710" on="1"/>
        <pt x="622" y="710" on="1"/>
        <pt x="591" y="566" on="1"/>
        <pt x="288" y="566" on="1"/>
        <pt x="259" y="428" on="1"/>
        <pt x="519" y="428" on="1"/>
        <pt x="491" y="295" on="1"/>
        <pt x="231" y="295" on="1"/>
        <pt x="198" y="144" on="1"/>
        <pt x="510" y="144" on="1"/>
        <pt x="480" y="0" on="1"/>
        <pt x="4" y="0" on="1"/>
      </contour>
      <contour>
        <pt x="459" y="774" on="1"/>
        <pt x="437" y="774" on="0"/>
        <pt x="407" y="788" on="0"/>
        <pt x="382" y="806" on="0"/>
        <pt x="358" y="820" on="0"/>
        <pt x="342" y="820" on="1"/>
        <pt x="326" y="820" on="0"/>
        <pt x="305" y="806" on="0"/>
        <pt x="293" y="788" on="0"/>
        <pt x="288" y="773" on="0"/>
        <pt x="288" y="772" on="1"/>
        <pt x="201" y="772" on="1"/>
        <pt x="203" y="783" on="0"/>
        <pt x="226" y="830" on="0"/>
        <pt x="266" y="878" on="0"/>
        <pt x="321" y="914" on="0"/>
        <pt x="355" y="914" on="1"/>
        <pt x="378" y="914" on="0"/>
        <pt x="408" y="899" on="0"/>
        <pt x="432" y="881" on="0"/>
        <pt x="455" y="866" on="0"/>
        <pt x="472" y="866" on="1"/>
        <pt x="488" y="866" on="0"/>
        <pt x="511" y="881" on="0"/>
        <pt x="525" y="899" on="0"/>
        <pt x="532" y="915" on="0"/>
        <pt x="532" y="916" on="1"/>
        <pt x="617" y="916" on="1"/>
        <pt x="615" y="908" on="0"/>
        <pt x="592" y="862" on="0"/>
        <pt x="551" y="812" on="0"/>
        <pt x="494" y="774" on="0"/>
      </contour>
    </TTGlyph>
    <TTGlyph name="Euro" xMin="20" yMin="-6" xMax="771" yMax="714">
      <contour>
        <pt x="145" y="452" on="1"/>
        <pt x="169" y="505" on="0"/>
        <pt x="245" y="600" on="0"/>
        <pt x="345" y="672" on="0"/>
        <pt x="465" y="714" on="0"/>
        <pt x="533" y="714" on="1"/>
        <pt x="629" y="714" on="0"/>
        <pt x="751" y="628" on="0"/>
        <pt x="771" y="559" on="1"/>
        <pt x="626" y="471" on="1"/>
        <pt x="621" y="499" on="0"/>
        <pt x="595" y="536" on="0"/>
        <pt x="560" y="559" on="0"/>
        <pt x="518" y="568" on="0"/>
        <pt x="498" y="568" on="1"/>
        <pt x="436" y="568" on="0"/>
        <pt x="345" y="501" on="0"/>
        <pt x="317" y="452" on="1"/>
        <pt x="524" y="452" on="1"/>
        <pt x="471" y="366" on="1"/>
        <pt x="284" y="366" on="1"/>
        <pt x="281" y="354" on="0"/>
        <pt x="277" y="329" on="0"/>
        <pt x="277" y="318" on="1"/>
        <pt x="467" y="318" on="1"/>
        <pt x="414" y="232" on="1"/>
        <pt x="289" y="232" on="1"/>
        <pt x="303" y="191" on="0"/>
        <pt x="363" y="140" on="0"/>
        <pt x="409" y="140" on="1"/>
        <pt x="429" y="140" on="0"/>
        <pt x="475" y="151" on="0"/>
        <pt x="520" y="174" on="0"/>
        <pt x="561" y="211" on="0"/>
        <pt x="576" y="238" on="1"/>
        <pt x="694" y="159" on="1"/>
        <pt x="670" y="120" on="0"/>
        <pt x="596" y="58" on="0"/>
        <pt x="509" y="16" on="0"/>
        <pt x="416" y="-6" on="0"/>
        <pt x="374" y="-6" on="1"/>
        <pt x="320" y="-6" on="0"/>
        <pt x="232" y="32" on="0"/>
        <pt x="167" y="97" on="0"/>
        <pt x="125" y="184" on="0"/>
        <pt x="116" y="232" on="1"/>
        <pt x="20" y="232" on="1"/>
        <pt x="73" y="318" on="1"/>
        <pt x="111" y="318" on="1"/>
        <pt x="112" y="342" on="0"/>
        <pt x="117" y="366" on="1"/>
        <pt x="53" y="366" on="1"/>
        <pt x="106" y="452" on="1"/>
      </contour>
    </TTGlyph>
    <TTGlyph name="F" xMin="4" yMin="0" xMax="613" yMax="710">
      <contour>
        <pt x="155" y="710" on="1"/>
        <pt x="613" y="710" on="1"/>
        <pt x="583" y="566" on="1"/>
        <pt x="288" y="566" on="1"/>
        <pt x="256" y="413" on="1"/>
        <pt x="498" y="413" on="1"/>
        <pt x="470" y="280" on="1"/>
        <pt x="227" y="280" on="1"/>
        <pt x="168" y="0" on="1"/>
        <pt x="4" y="0" on="1"/>
      </contour>
    </TTGlyph>
    <TTGlyph name="F.sc" xMin="-2" yMin="0" xMax="525" yMax="563">
      <contour>
        <pt x="118" y="563" on="1"/>
        <pt x="525" y="563" on="1"/>
        <pt x="499" y="438" on="1"/>
        <pt x="234" y="438" on="1"/>
        <pt x="212" y="332" on="1"/>
        <pt x="430" y="332" on="1"/>
        <pt x="405" y="215" on="1"/>
        <pt x="187" y="215" on="1"/>
        <pt x="141" y="0" on="1"/>
        <pt x="-2" y="0" on="1"/>
      </contour>
    </TTGlyph>
    <TTGlyph name="G" xMin="33" yMin="-5" xMax="696" yMax="715">
      <contour>
        <pt x="481" y="70" on="1"/>
        <pt x="433" y="32" on="0"/>
        <pt x="342" y="-5" on="0"/>
        <pt x="291" y="-5" on="1"/>
        <pt x="234" y="-5" on="0"/>
        <pt x="140" y="37" on="0"/>
        <pt x="71" y="113" on="0"/>
        <pt x="33" y="220" on="0"/>
        <pt x="33" y="285" on="1"/>
        <pt x="33" y="373" on="0"/>
        <pt x="104" y="530" on="0"/>
        <pt x="223" y="647" on="0"/>
        <pt x="376" y="715" on="0"/>
        <pt x="458" y="715" on="1"/>
        <pt x="551" y="715" on="0"/>
        <pt x="676" y="632" on="0"/>
        <pt x="696" y="560" on="1"/>
        <pt x="555" y="468" on="1"/>
        <pt x="542" y="516" on="0"/>
        <pt x="469" y="569" on="0"/>
        <pt x="421" y="569" on="1"/>
        <pt x="377" y="569" on="0"/>
        <pt x="298" y="526" on="0"/>
        <pt x="238" y="453" on="0"/>
        <pt x="202" y="357" on="0"/>
        <pt x="202" y="304" on="1"/>
        <pt x="202" y="269" on="0"/>
        <pt x="220" y="209" on="0"/>
        <pt x="255" y="165" on="0"/>
        <pt x="304" y="141" on="0"/>
        <pt x="336" y="141" on="1"/>
        <pt x="425" y="141" on="0"/>
        <pt x="515" y="229" on="1"/>
        <pt x="520" y="252" on="1"/>
        <pt x="391" y="252" on="1"/>
        <pt x="416" y="371" on="1"/>
        <pt x="681" y="371" on="1"/>
        <pt x="602" y="0" on="1"/>
        <pt x="466" y="0" on="1"/>
      </contour>
    </TTGlyph>
    <TTGlyph name="G.alt" xMin="34" yMin="-5" xMax="684" yMax="715">
      <contour>
        <pt x="302" y="-5" on="1"/>
        <pt x="238" y="-5" on="0"/>
        <pt x="139" y="44" on="0"/>
        <pt x="70" y="126" on="0"/>
        <pt x="34" y="234" on="0"/>
        <pt x="34" y="294" on="1"/>
        <pt x="34" y="371" on="0"/>
        <pt x="97" y="522" on="0"/>
        <pt x="209" y="641" on="0"/>
        <pt x="361" y="715" on="0"/>
        <pt x="450" y="715" on="1"/>
        <pt x="537" y="715" on="0"/>
        <pt x="653" y="638" on="0"/>
        <pt x="676" y="568" on="1"/>
        <pt x="524" y="466" on="1"/>
        <pt x="522" y="476" on="0"/>
        <pt x="510" y="511" on="0"/>
        <pt x="484" y="544" on="0"/>
        <pt x="441" y="569" on="0"/>
        <pt x="409" y="569" on="1"/>
        <pt x="362" y="569" on="0"/>
        <pt x="285" y="519" on="0"/>
        <pt x="230" y="441" on="0"/>
        <pt x="200" y="345" on="0"/>
        <pt x="200" y="298" on="1"/>
        <pt x="200" y="269" on="0"/>
        <pt x="213" y="212" on="0"/>
        <pt x="241" y="168" on="0"/>
        <pt x="285" y="141" on="0"/>
        <pt x="317" y="141" on="1"/>
        <pt x="342" y="141" on="0"/>
        <pt x="389" y="158" on="0"/>
        <pt x="431" y="186" on="0"/>
        <pt x="465" y="222" on="0"/>
        <pt x="476" y="242" on="1"/>
        <pt x="354" y="242" on="1"/>
        <pt x="385" y="386" on="1"/>
        <pt x="684" y="386" on="1"/>
        <pt x="667" y="309" on="1"/>
        <pt x="653" y="245" on="0"/>
        <pt x="585" y="131" on="0"/>
        <pt x="489" y="45" on="0"/>
        <pt x="369" y="-5" on="0"/>
      </contour>
    </TTGlyph>
    <TTGlyph name="G.sc" xMin="20" yMin="-4" xMax="569" yMax="567">
      <contour>
        <pt x="388" y="49" on="1"/>
        <pt x="350" y="21" on="0"/>
        <pt x="277" y="-4" on="0"/>
        <pt x="238" y="-4" on="1"/>
        <pt x="190" y="-4" on="0"/>
        <pt x="109" y="34" on="0"/>
        <pt x="52" y="100" on="0"/>
        <pt x="20" y="187" on="0"/>
        <pt x="20" y="236" on="1"/>
        <pt x="20" y="303" on="0"/>
        <pt x="78" y="424" on="0"/>
        <pt x="176" y="514" on="0"/>
        <pt x="302" y="567" on="0"/>
        <pt x="371" y="567" on="1"/>
        <pt x="449" y="567" on="0"/>
        <pt x="552" y="501" on="0"/>
        <pt x="569" y="444" on="1"/>
        <pt x="445" y="363" on="1"/>
        <pt x="435" y="398" on="0"/>
        <pt x="377" y="439" on="0"/>
        <pt x="339" y="439" on="1"/>
        <pt x="304" y="439" on="0"/>
        <pt x="242" y="408" on="0"/>
        <pt x="195" y="356" on="0"/>
        <pt x="167" y="285" on="0"/>
        <pt x="167" y="246" on="1"/>
        <pt x="167" y="192" on="0"/>
        <pt x="226" y="124" on="0"/>
        <pt x="277" y="124" on="1"/>
        <pt x="312" y="124" on="0"/>
        <pt x="383" y="157" on="0"/>
        <pt x="418" y="188" on="1"/>
        <pt x="419" y="194" on="1"/>
        <pt x="306" y="194" on="1"/>
        <pt x="327" y="297" on="1"/>
        <pt x="560" y="297" on="1"/>
        <pt x="497" y="0" on="1"/>
        <pt x="378" y="0" on="1"/>
      </contour>
    </TTGlyph>
    <TTGlyph name="Gacute" xMin="33" yMin="-5" xMax="696" yMax="916">
      <contour>
        <pt x="506" y="772" on="1"/>
        <pt x="400" y="786" on="1"/>
        <pt x="477" y="916" on="1"/>
        <pt x="621" y="916" on="1"/>
      </contour>
      <contour>
        <pt x="481" y="70" on="1"/>
        <pt x="433" y="32" on="0"/>
        <pt x="342" y="-5" on="0"/>
        <pt x="291" y="-5" on="1"/>
        <pt x="234" y="-5" on="0"/>
        <pt x="140" y="37" on="0"/>
        <pt x="71" y="113" on="0"/>
        <pt x="33" y="220" on="0"/>
        <pt x="33" y="285" on="1"/>
        <pt x="33" y="373" on="0"/>
        <pt x="104" y="530" on="0"/>
        <pt x="223" y="647" on="0"/>
        <pt x="376" y="715" on="0"/>
        <pt x="458" y="715" on="1"/>
        <pt x="551" y="715" on="0"/>
        <pt x="676" y="632" on="0"/>
        <pt x="696" y="560" on="1"/>
        <pt x="555" y="468" on="1"/>
        <pt x="542" y="516" on="0"/>
        <pt x="469" y="569" on="0"/>
        <pt x="421" y="569" on="1"/>
        <pt x="377" y="569" on="0"/>
        <pt x="298" y="526" on="0"/>
        <pt x="238" y="453" on="0"/>
        <pt x="202" y="357" on="0"/>
        <pt x="202" y="304" on="1"/>
        <pt x="202" y="269" on="0"/>
        <pt x="220" y="209" on="0"/>
        <pt x="255" y="165" on="0"/>
        <pt x="304" y="141" on="0"/>
        <pt x="336" y="141" on="1"/>
        <pt x="425" y="141" on="0"/>
        <pt x="515" y="229" on="1"/>
        <pt x="520" y="252" on="1"/>
        <pt x="391" y="252" on="1"/>
        <pt x="416" y="371" on="1"/>
        <pt x="681" y="371" on="1"/>
        <pt x="602" y="0" on="1"/>
        <pt x="466" y="0" on="1"/>
      </contour>
    </TTGlyph>
    <TTGlyph name="Gbreve" xMin="33" yMin="-5" xMax="696" yMax="916">
      <contour>
        <pt x="481" y="70" on="1"/>
        <pt x="433" y="32" on="0"/>
        <pt x="342" y="-5" on="0"/>
        <pt x="291" y="-5" on="1"/>
        <pt x="234" y="-5" on="0"/>
        <pt x="140" y="37" on="0"/>
        <pt x="71" y="113" on="0"/>
        <pt x="33" y="220" on="0"/>
        <pt x="33" y="285" on="1"/>
        <pt x="33" y="373" on="0"/>
        <pt x="104" y="530" on="0"/>
        <pt x="223" y="647" on="0"/>
        <pt x="376" y="715" on="0"/>
        <pt x="458" y="715" on="1"/>
        <pt x="551" y="715" on="0"/>
        <pt x="676" y="632" on="0"/>
        <pt x="696" y="560" on="1"/>
        <pt x="555" y="468" on="1"/>
        <pt x="542" y="516" on="0"/>
        <pt x="469" y="569" on="0"/>
        <pt x="421" y="569" on="1"/>
        <pt x="377" y="569" on="0"/>
        <pt x="298" y="526" on="0"/>
        <pt x="238" y="453" on="0"/>
        <pt x="202" y="357" on="0"/>
        <pt x="202" y="304" on="1"/>
        <pt x="202" y="269" on="0"/>
        <pt x="220" y="209" on="0"/>
        <pt x="255" y="165" on="0"/>
        <pt x="304" y="141" on="0"/>
        <pt x="336" y="141" on="1"/>
        <pt x="425" y="141" on="0"/>
        <pt x="515" y="229" on="1"/>
        <pt x="520" y="252" on="1"/>
        <pt x="391" y="252" on="1"/>
        <pt x="416" y="371" on="1"/>
        <pt x="681" y="371" on="1"/>
        <pt x="602" y="0" on="1"/>
        <pt x="466" y="0" on="1"/>
      </contour>
      <contour>
        <pt x="477" y="839" on="1"/>
        <pt x="498" y="839" on="0"/>
        <pt x="539" y="882" on="0"/>
        <pt x="550" y="916" on="1"/>
        <pt x="634" y="916" on="1"/>
        <pt x="627" y="884" on="0"/>
        <pt x="595" y="830" on="0"/>
        <pt x="549" y="791" on="0"/>
        <pt x="493" y="769" on="0"/>
        <pt x="462" y="769" on="1"/>
        <pt x="408" y="769" on="0"/>
        <pt x="347" y="829" on="0"/>
        <pt x="347" y="879" on="1"/>
        <pt x="347" y="888" on="0"/>
        <pt x="350" y="906" on="0"/>
        <pt x="352" y="916" on="1"/>
        <pt x="436" y="916" on="1"/>
        <pt x="433" y="905" on="0"/>
        <pt x="433" y="895" on="1"/>
        <pt x="433" y="871" on="0"/>
        <pt x="457" y="839" on="0"/>
      </contour>
    </TTGlyph>
    <TTGlyph name="Gcircumflex" xMin="33" yMin="-5" xMax="696" yMax="916">
      <contour>
        <pt x="315" y="808" on="1"/>
        <pt x="443" y="916" on="1"/>
        <pt x="557" y="916" on="1"/>
        <pt x="639" y="808" on="1"/>
        <pt x="550" y="772" on="1"/>
        <pt x="483" y="835" on="1"/>
        <pt x="389" y="772" on="1"/>
      </contour>
      <contour>
        <pt x="481" y="70" on="1"/>
        <pt x="433" y="32" on="0"/>
        <pt x="342" y="-5" on="0"/>
        <pt x="291" y="-5" on="1"/>
        <pt x="234" y="-5" on="0"/>
        <pt x="140" y="37" on="0"/>
        <pt x="71" y="113" on="0"/>
        <pt x="33" y="220" on="0"/>
        <pt x="33" y="285" on="1"/>
        <pt x="33" y="373" on="0"/>
        <pt x="104" y="530" on="0"/>
        <pt x="223" y="647" on="0"/>
        <pt x="376" y="715" on="0"/>
        <pt x="458" y="715" on="1"/>
        <pt x="551" y="715" on="0"/>
        <pt x="676" y="632" on="0"/>
        <pt x="696" y="560" on="1"/>
        <pt x="555" y="468" on="1"/>
        <pt x="542" y="516" on="0"/>
        <pt x="469" y="569" on="0"/>
        <pt x="421" y="569" on="1"/>
        <pt x="377" y="569" on="0"/>
        <pt x="298" y="526" on="0"/>
        <pt x="238" y="453" on="0"/>
        <pt x="202" y="357" on="0"/>
        <pt x="202" y="304" on="1"/>
        <pt x="202" y="269" on="0"/>
        <pt x="220" y="209" on="0"/>
        <pt x="255" y="165" on="0"/>
        <pt x="304" y="141" on="0"/>
        <pt x="336" y="141" on="1"/>
        <pt x="425" y="141" on="0"/>
        <pt x="515" y="229" on="1"/>
        <pt x="520" y="252" on="1"/>
        <pt x="391" y="252" on="1"/>
        <pt x="416" y="371" on="1"/>
        <pt x="681" y="371" on="1"/>
        <pt x="602" y="0" on="1"/>
        <pt x="466" y="0" on="1"/>
      </contour>
    </TTGlyph>
    <TTGlyph name="Gcommaaccent" xMin="33" yMin="-213" xMax="696" yMax="715">
      <contour>
        <pt x="209" y="-213" on="1"/>
        <pt x="254" y="-146" on="1"/>
        <pt x="207" y="-146" on="1"/>
        <pt x="228" y="-47" on="1"/>
        <pt x="361" y="-47" on="1"/>
        <pt x="340" y="-146" on="1"/>
        <pt x="279" y="-213" on="1"/>
      </contour>
      <contour>
        <pt x="481" y="70" on="1"/>
        <pt x="433" y="32" on="0"/>
        <pt x="342" y="-5" on="0"/>
        <pt x="291" y="-5" on="1"/>
        <pt x="234" y="-5" on="0"/>
        <pt x="140" y="37" on="0"/>
        <pt x="71" y="113" on="0"/>
        <pt x="33" y="220" on="0"/>
        <pt x="33" y="285" on="1"/>
        <pt x="33" y="373" on="0"/>
        <pt x="104" y="530" on="0"/>
        <pt x="223" y="647" on="0"/>
        <pt x="376" y="715" on="0"/>
        <pt x="458" y="715" on="1"/>
        <pt x="551" y="715" on="0"/>
        <pt x="676" y="632" on="0"/>
        <pt x="696" y="560" on="1"/>
        <pt x="555" y="468" on="1"/>
        <pt x="542" y="516" on="0"/>
        <pt x="469" y="569" on="0"/>
        <pt x="421" y="569" on="1"/>
        <pt x="377" y="569" on="0"/>
        <pt x="298" y="526" on="0"/>
        <pt x="238" y="453" on="0"/>
        <pt x="202" y="357" on="0"/>
        <pt x="202" y="304" on="1"/>
        <pt x="202" y="269" on="0"/>
        <pt x="220" y="209" on="0"/>
        <pt x="255" y="165" on="0"/>
        <pt x="304" y="141" on="0"/>
        <pt x="336" y="141" on="1"/>
        <pt x="425" y="141" on="0"/>
        <pt x="515" y="229" on="1"/>
        <pt x="520" y="252" on="1"/>
        <pt x="391" y="252" on="1"/>
        <pt x="416" y="371" on="1"/>
        <pt x="681" y="371" on="1"/>
        <pt x="602" y="0" on="1"/>
        <pt x="466" y="0" on="1"/>
      </contour>
    </TTGlyph>
    <TTGlyph name="Gdotaccent" xMin="33" yMin="-5" xMax="696" yMax="916">
      <contour>
        <pt x="481" y="70" on="1"/>
        <pt x="433" y="32" on="0"/>
        <pt x="342" y="-5" on="0"/>
        <pt x="291" y="-5" on="1"/>
        <pt x="234" y="-5" on="0"/>
        <pt x="140" y="37" on="0"/>
        <pt x="71" y="113" on="0"/>
        <pt x="33" y="220" on="0"/>
        <pt x="33" y="285" on="1"/>
        <pt x="33" y="373" on="0"/>
        <pt x="104" y="530" on="0"/>
        <pt x="223" y="647" on="0"/>
        <pt x="376" y="715" on="0"/>
        <pt x="458" y="715" on="1"/>
        <pt x="551" y="715" on="0"/>
        <pt x="676" y="632" on="0"/>
        <pt x="696" y="560" on="1"/>
        <pt x="555" y="468" on="1"/>
        <pt x="542" y="516" on="0"/>
        <pt x="469" y="569" on="0"/>
        <pt x="421" y="569" on="1"/>
        <pt x="377" y="569" on="0"/>
        <pt x="298" y="526" on="0"/>
        <pt x="238" y="453" on="0"/>
        <pt x="202" y="357" on="0"/>
        <pt x="202" y="304" on="1"/>
        <pt x="202" y="269" on="0"/>
        <pt x="220" y="209" on="0"/>
        <pt x="255" y="165" on="0"/>
        <pt x="304" y="141" on="0"/>
        <pt x="336" y="141" on="1"/>
        <pt x="425" y="141" on="0"/>
        <pt x="515" y="229" on="1"/>
        <pt x="520" y="252" on="1"/>
        <pt x="391" y="252" on="1"/>
        <pt x="416" y="371" on="1"/>
        <pt x="681" y="371" on="1"/>
        <pt x="602" y="0" on="1"/>
        <pt x="466" y="0" on="1"/>
      </contour>
      <contour>
        <pt x="400" y="779" on="1"/>
        <pt x="429" y="916" on="1"/>
        <pt x="573" y="916" on="1"/>
        <pt x="544" y="779" on="1"/>
      </contour>
    </TTGlyph>
    <TTGlyph name="H" xMin="4" yMin="0" xMax="740" yMax="710">
      <contour>
        <pt x="155" y="710" on="1"/>
        <pt x="319" y="710" on="1"/>
        <pt x="260" y="435" on="1"/>
        <pt x="517" y="435" on="1"/>
        <pt x="576" y="710" on="1"/>
        <pt x="740" y="710" on="1"/>
        <pt x="589" y="0" on="1"/>
        <pt x="425" y="0" on="1"/>
        <pt x="487" y="291" on="1"/>
        <pt x="230" y="291" on="1"/>
        <pt x="168" y="0" on="1"/>
        <pt x="4" y="0" on="1"/>
      </contour>
    </TTGlyph>
    <TTGlyph name="H.sc" xMin="-2" yMin="0" xMax="637" yMax="563">
      <contour>
        <pt x="118" y="563" on="1"/>
        <pt x="261" y="563" on="1"/>
        <pt x="215" y="351" on="1"/>
        <pt x="448" y="351" on="1"/>
        <pt x="493" y="563" on="1"/>
        <pt x="637" y="563" on="1"/>
        <pt x="517" y="0" on="1"/>
        <pt x="373" y="0" on="1"/>
        <pt x="421" y="225" on="1"/>
        <pt x="189" y="225" on="1"/>
        <pt x="141" y="0" on="1"/>
        <pt x="-2" y="0" on="1"/>
      </contour>
    </TTGlyph>
    <TTGlyph name="Hbar" xMin="8" yMin="0" xMax="771" yMax="710">
      <contour>
        <pt x="92" y="617" on="1"/>
        <pt x="139" y="617" on="1"/>
        <pt x="159" y="710" on="1"/>
        <pt x="323" y="710" on="1"/>
        <pt x="303" y="617" on="1"/>
        <pt x="560" y="617" on="1"/>
        <pt x="580" y="710" on="1"/>
        <pt x="744" y="710" on="1"/>
        <pt x="724" y="617" on="1"/>
        <pt x="771" y="617" on="1"/>
        <pt x="755" y="541" on="1"/>
        <pt x="708" y="541" on="1"/>
        <pt x="593" y="0" on="1"/>
        <pt x="429" y="0" on="1"/>
        <pt x="491" y="291" on="1"/>
        <pt x="234" y="291" on="1"/>
        <pt x="172" y="0" on="1"/>
        <pt x="8" y="0" on="1"/>
        <pt x="123" y="541" on="1"/>
        <pt x="75" y="541" on="1"/>
      </contour>
      <contour>
        <pt x="521" y="435" on="1"/>
        <pt x="543" y="541" on="1"/>
        <pt x="286" y="541" on="1"/>
        <pt x="264" y="435" on="1"/>
      </contour>
    </TTGlyph>
    <TTGlyph name="Hcircumflex" xMin="4" yMin="0" xMax="740" yMax="916">
      <contour>
        <pt x="306" y="808" on="1"/>
        <pt x="434" y="916" on="1"/>
        <pt x="548" y="916" on="1"/>
        <pt x="630" y="808" on="1"/>
        <pt x="541" y="772" on="1"/>
        <pt x="474" y="835" on="1"/>
        <pt x="380" y="772" on="1"/>
      </contour>
      <contour>
        <pt x="155" y="710" on="1"/>
        <pt x="319" y="710" on="1"/>
        <pt x="260" y="435" on="1"/>
        <pt x="517" y="435" on="1"/>
        <pt x="576" y="710" on="1"/>
        <pt x="740" y="710" on="1"/>
        <pt x="589" y="0" on="1"/>
        <pt x="425" y="0" on="1"/>
        <pt x="487" y="291" on="1"/>
        <pt x="230" y="291" on="1"/>
        <pt x="168" y="0" on="1"/>
        <pt x="4" y="0" on="1"/>
      </contour>
    </TTGlyph>
    <TTGlyph name="Hdotbelow" xMin="4" yMin="-204" xMax="740" yMax="710">
      <contour>
        <pt x="155" y="710" on="1"/>
        <pt x="319" y="710" on="1"/>
        <pt x="260" y="435" on="1"/>
        <pt x="517" y="435" on="1"/>
        <pt x="576" y="710" on="1"/>
        <pt x="740" y="710" on="1"/>
        <pt x="589" y="0" on="1"/>
        <pt x="425" y="0" on="1"/>
        <pt x="487" y="291" on="1"/>
        <pt x="230" y="291" on="1"/>
        <pt x="168" y="0" on="1"/>
        <pt x="4" y="0" on="1"/>
      </contour>
      <contour>
        <pt x="179" y="-204" on="1"/>
        <pt x="208" y="-67" on="1"/>
        <pt x="352" y="-67" on="1"/>
        <pt x="323" y="-204" on="1"/>
      </contour>
    </TTGlyph>
    <TTGlyph name="I" xMin="4" yMin="0" xMax="319" yMax="710">
      <contour>
        <pt x="155" y="710" on="1"/>
        <pt x="319" y="710" on="1"/>
        <pt x="168" y="0" on="1"/>
        <pt x="4" y="0" on="1"/>
      </contour>
    </TTGlyph>
    <TTGlyph name="I.sc" xMin="-2" yMin="0" xMax="261" yMax="563">
      <contour>
        <pt x="118" y="563" on="1"/>
        <pt x="261" y="563" on="1"/>
        <pt x="141" y="0" on="1"/>
        <pt x="-2" y="0" on="1"/>
      </contour>
    </TTGlyph>
    <TTGlyph name="IJ" xMin="4" yMin="-11" xMax="811" yMax="710">
      <contour>
        <pt x="155" y="710" on="1"/>
        <pt x="319" y="710" on="1"/>
        <pt x="168" y="0" on="1"/>
        <pt x="4" y="0" on="1"/>
      </contour>
      <contour>
        <pt x="392" y="-11" on="1"/>
        <pt x="307" y="-11" on="0"/>
        <pt x="255" y="33" on="1"/>
        <pt x="318" y="167" on="1"/>
        <pt x="325" y="159" on="0"/>
        <pt x="382" y="135" on="0"/>
        <pt x="423" y="135" on="1"/>
        <pt x="456" y="135" on="0"/>
        <pt x="501" y="160" on="0"/>
        <pt x="533" y="212" on="0"/>
        <pt x="557" y="293" on="0"/>
        <pt x="569" y="349" on="1"/>
        <pt x="646" y="710" on="1"/>
        <pt x="811" y="710" on="1"/>
        <pt x="734" y="349" on="1"/>
        <pt x="717" y="268" on="0"/>
        <pt x="672" y="135" on="0"/>
        <pt x="597" y="41" on="0"/>
        <pt x="480" y="-11" on="0"/>
      </contour>
    </TTGlyph>
    <TTGlyph name="Iacute" xMin="4" yMin="0" xMax="387" yMax="916">
      <contour>
        <pt x="155" y="710" on="1"/>
        <pt x="319" y="710" on="1"/>
        <pt x="168" y="0" on="1"/>
        <pt x="4" y="0" on="1"/>
      </contour>
      <contour>
        <pt x="272" y="772" on="1"/>
        <pt x="166" y="786" on="1"/>
        <pt x="243" y="916" on="1"/>
        <pt x="387" y="916" on="1"/>
      </contour>
    </TTGlyph>
    <TTGlyph name="Ibreve" xMin="4" yMin="0" xMax="418" yMax="916">
      <contour>
        <pt x="155" y="710" on="1"/>
        <pt x="319" y="710" on="1"/>
        <pt x="168" y="0" on="1"/>
        <pt x="4" y="0" on="1"/>
      </contour>
      <contour>
        <pt x="261" y="839" on="1"/>
        <pt x="282" y="839" on="0"/>
        <pt x="323" y="882" on="0"/>
        <pt x="334" y="916" on="1"/>
        <pt x="418" y="916" on="1"/>
        <pt x="411" y="884" on="0"/>
        <pt x="379" y="830" on="0"/>
        <pt x="333" y="791" on="0"/>
        <pt x="277" y="769" on="0"/>
        <pt x="246" y="769" on="1"/>
        <pt x="192" y="769" on="0"/>
        <pt x="131" y="829" on="0"/>
        <pt x="131" y="879" on="1"/>
        <pt x="131" y="888" on="0"/>
        <pt x="134" y="906" on="0"/>
        <pt x="136" y="916" on="1"/>
        <pt x="220" y="916" on="1"/>
        <pt x="217" y="905" on="0"/>
        <pt x="217" y="895" on="1"/>
        <pt x="217" y="871" on="0"/>
        <pt x="241" y="839" on="0"/>
      </contour>
    </TTGlyph>
    <TTGlyph name="Icircumflex" xMin="4" yMin="0" xMax="422" yMax="916">
      <contour>
        <pt x="155" y="710" on="1"/>
        <pt x="319" y="710" on="1"/>
        <pt x="168" y="0" on="1"/>
        <pt x="4" y="0" on="1"/>
      </contour>
      <contour>
        <pt x="98" y="808" on="1"/>
        <pt x="226" y="916" on="1"/>
        <pt x="340" y="916" on="1"/>
        <pt x="422" y="808" on="1"/>
        <pt x="333" y="772" on="1"/>
        <pt x="266" y="835" on="1"/>
        <pt x="172" y="772" on="1"/>
      </contour>
    </TTGlyph>
    <TTGlyph name="Idblgrave" xMin="4" yMin="0" xMax="398" yMax="918">
      <contour>
        <pt x="155" y="710" on="1"/>
        <pt x="319" y="710" on="1"/>
        <pt x="168" y="0" on="1"/>
        <pt x="4" y="0" on="1"/>
      </contour>
      <contour>
        <pt x="266" y="918" on="1"/>
        <pt x="384" y="918" on="1"/>
        <pt x="398" y="788" on="1"/>
        <pt x="313" y="772" on="1"/>
      </contour>
      <contour>
        <pt x="96" y="918" on="1"/>
        <pt x="215" y="918" on="1"/>
        <pt x="228" y="788" on="1"/>
        <pt x="143" y="772" on="1"/>
      </contour>
    </TTGlyph>
    <TTGlyph name="Idieresis" xMin="4" yMin="0" xMax="448" yMax="909">
      <contour>
        <pt x="155" y="710" on="1"/>
        <pt x="319" y="710" on="1"/>
        <pt x="168" y="0" on="1"/>
        <pt x="4" y="0" on="1"/>
      </contour>
      <contour>
        <pt x="84" y="780" on="1"/>
        <pt x="112" y="909" on="1"/>
        <pt x="244" y="909" on="1"/>
        <pt x="216" y="780" on="1"/>
      </contour>
      <contour>
        <pt x="289" y="780" on="1"/>
        <pt x="317" y="909" on="1"/>
        <pt x="448" y="909" on="1"/>
        <pt x="421" y="780" on="1"/>
      </contour>
    </TTGlyph>
    <TTGlyph name="Idotaccent" xMin="4" yMin="0" xMax="354" yMax="916">
      <contour>
        <pt x="155" y="710" on="1"/>
        <pt x="319" y="710" on="1"/>
        <pt x="168" y="0" on="1"/>
        <pt x="4" y="0" on="1"/>
      </contour>
      <contour>
        <pt x="181" y="779" on="1"/>
        <pt x="210" y="916" on="1"/>
        <pt x="354" y="916" on="1"/>
        <pt x="325" y="779" on="1"/>
      </contour>
    </TTGlyph>
    <TTGlyph name="Idotbelow" xMin="-27" yMin="-204" xMax="319" yMax="710">
      <contour>
        <pt x="155" y="710" on="1"/>
        <pt x="319" y="710" on="1"/>
        <pt x="168" y="0" on="1"/>
        <pt x="4" y="0" on="1"/>
      </contour>
      <contour>
        <pt x="-27" y="-204" on="1"/>
        <pt x="2" y="-67" on="1"/>
        <pt x="146" y="-67" on="1"/>
        <pt x="117" y="-204" on="1"/>
      </contour>
    </TTGlyph>
    <TTGlyph name="Igrave" xMin="4" yMin="0" xMax="324" yMax="917">
      <contour>
        <pt x="155" y="710" on="1"/>
        <pt x="319" y="710" on="1"/>
        <pt x="168" y="0" on="1"/>
        <pt x="4" y="0" on="1"/>
      </contour>
      <contour>
        <pt x="158" y="917" on="1"/>
        <pt x="302" y="917" on="1"/>
        <pt x="324" y="787" on="1"/>
        <pt x="213" y="771" on="1"/>
      </contour>
    </TTGlyph>
    <TTGlyph name="Iinvertedbreve" xMin="4" yMin="0" xMax="394" yMax="916">
      <contour>
        <pt x="155" y="710" on="1"/>
        <pt x="319" y="710" on="1"/>
        <pt x="168" y="0" on="1"/>
        <pt x="4" y="0" on="1"/>
      </contour>
      <contour>
        <pt x="109" y="769" on="1"/>
        <pt x="116" y="801" on="0"/>
        <pt x="148" y="855" on="0"/>
        <pt x="194" y="894" on="0"/>
        <pt x="250" y="916" on="0"/>
        <pt x="281" y="916" on="1"/>
        <pt x="335" y="916" on="0"/>
        <pt x="394" y="850" on="0"/>
        <pt x="394" y="802" on="1"/>
        <pt x="394" y="787" on="0"/>
        <pt x="391" y="769" on="1"/>
        <pt x="307" y="769" on="1"/>
        <pt x="310" y="785" on="0"/>
        <pt x="310" y="799" on="1"/>
        <pt x="310" y="846" on="0"/>
        <pt x="266" y="846" on="1"/>
        <pt x="240" y="846" on="0"/>
        <pt x="200" y="811" on="0"/>
        <pt x="192" y="769" on="1"/>
      </contour>
    </TTGlyph>
    <TTGlyph name="Imacron" xMin="4" yMin="0" xMax="424" yMax="903">
      <contour>
        <pt x="155" y="710" on="1"/>
        <pt x="319" y="710" on="1"/>
        <pt x="168" y="0" on="1"/>
        <pt x="4" y="0" on="1"/>
      </contour>
      <contour>
        <pt x="113" y="806" on="1"/>
        <pt x="133" y="903" on="1"/>
        <pt x="424" y="903" on="1"/>
        <pt x="403" y="806" on="1"/>
      </contour>
    </TTGlyph>
    <TTGlyph name="Iogonek" xMin="-26" yMin="-205" xMax="319" yMax="710">
      <contour>
        <pt x="155" y="710" on="1"/>
        <pt x="319" y="710" on="1"/>
        <pt x="168" y="0" on="1"/>
        <pt x="79" y="-51" on="0"/>
        <pt x="79" y="-88" on="1"/>
        <pt x="79" y="-102" on="0"/>
        <pt x="106" y="-120" on="0"/>
        <pt x="135" y="-121" on="1"/>
        <pt x="86" y="-205" on="1"/>
        <pt x="29" y="-197" on="0"/>
        <pt x="-26" y="-152" on="0"/>
        <pt x="-26" y="-123" on="1"/>
        <pt x="-26" y="-59" on="0"/>
        <pt x="80" y="0" on="1"/>
        <pt x="4" y="0" on="1"/>
      </contour>
    </TTGlyph>
    <TTGlyph name="Itilde" xMin="4" yMin="0" xMax="477" yMax="916">
      <contour>
        <pt x="155" y="710" on="1"/>
        <pt x="319" y="710" on="1"/>
        <pt x="168" y="0" on="1"/>
        <pt x="4" y="0" on="1"/>
      </contour>
      <contour>
        <pt x="319" y="774" on="1"/>
        <pt x="297" y="774" on="0"/>
        <pt x="267" y="788" on="0"/>
        <pt x="242" y="806" on="0"/>
        <pt x="218" y="820" on="0"/>
        <pt x="202" y="820" on="1"/>
        <pt x="186" y="820" on="0"/>
        <pt x="165" y="806" on="0"/>
        <pt x="153" y="788" on="0"/>
        <pt x="148" y="773" on="0"/>
        <pt x="148" y="772" on="1"/>
        <pt x="61" y="772" on="1"/>
        <pt x="63" y="783" on="0"/>
        <pt x="86" y="830" on="0"/>
        <pt x="126" y="878" on="0"/>
        <pt x="181" y="914" on="0"/>
        <pt x="215" y="914" on="1"/>
        <pt x="238" y="914" on="0"/>
        <pt x="268" y="899" on="0"/>
        <pt x="292" y="881" on="0"/>
        <pt x="315" y="866" on="0"/>
        <pt x="332" y="866" on="1"/>
        <pt x="348" y="866" on="0"/>
        <pt x="371" y="881" on="0"/>
        <pt x="385" y="899" on="0"/>
        <pt x="392" y="915" on="0"/>
        <pt x="392" y="916" on="1"/>
        <pt x="477" y="916" on="1"/>
        <pt x="475" y="908" on="0"/>
        <pt x="452" y="862" on="0"/>
        <pt x="411" y="812" on="0"/>
        <pt x="354" y="774" on="0"/>
      </contour>
    </TTGlyph>
    <TTGlyph name="J" xMin="-45" yMin="-11" xMax="511" yMax="710">
      <contour>
        <pt x="92" y="-11" on="1"/>
        <pt x="7" y="-11" on="0"/>
        <pt x="-45" y="33" on="1"/>
        <pt x="18" y="167" on="1"/>
        <pt x="25" y="159" on="0"/>
        <pt x="82" y="135" on="0"/>
        <pt x="123" y="135" on="1"/>
        <pt x="156" y="135" on="0"/>
        <pt x="201" y="160" on="0"/>
        <pt x="233" y="212" on="0"/>
        <pt x="257" y="293" on="0"/>
        <pt x="269" y="349" on="1"/>
        <pt x="346" y="710" on="1"/>
        <pt x="511" y="710" on="1"/>
        <pt x="434" y="349" on="1"/>
        <pt x="417" y="268" on="0"/>
        <pt x="372" y="135" on="0"/>
        <pt x="297" y="41" on="0"/>
        <pt x="180" y="-11" on="0"/>
      </contour>
    </TTGlyph>
    <TTGlyph name="J.sc" xMin="-45" yMin="-9" xMax="435" yMax="563">
      <contour>
        <pt x="78" y="-9" on="1"/>
        <pt x="2" y="-9" on="0"/>
        <pt x="-45" y="26" on="1"/>
        <pt x="11" y="143" on="1"/>
        <pt x="19" y="135" on="0"/>
        <pt x="69" y="119" on="0"/>
        <pt x="105" y="119" on="1"/>
        <pt x="136" y="119" on="0"/>
        <pt x="176" y="137" on="0"/>
        <pt x="203" y="175" on="0"/>
        <pt x="221" y="235" on="0"/>
        <pt x="230" y="277" on="1"/>
        <pt x="291" y="563" on="1"/>
        <pt x="435" y="563" on="1"/>
        <pt x="374" y="277" on="1"/>
        <pt x="360" y="212" on="0"/>
        <pt x="323" y="107" on="0"/>
        <pt x="259" y="32" on="0"/>
        <pt x="157" y="-9" on="0"/>
      </contour>
    </TTGlyph>
    <TTGlyph name="Jcircumflex" xMin="-45" yMin="-11" xMax="610" yMax="916">
      <contour>
        <pt x="286" y="808" on="1"/>
        <pt x="414" y="916" on="1"/>
        <pt x="528" y="916" on="1"/>
        <pt x="610" y="808" on="1"/>
        <pt x="521" y="772" on="1"/>
        <pt x="454" y="835" on="1"/>
        <pt x="360" y="772" on="1"/>
      </contour>
      <contour>
        <pt x="92" y="-11" on="1"/>
        <pt x="7" y="-11" on="0"/>
        <pt x="-45" y="33" on="1"/>
        <pt x="18" y="167" on="1"/>
        <pt x="25" y="159" on="0"/>
        <pt x="82" y="135" on="0"/>
        <pt x="123" y="135" on="1"/>
        <pt x="156" y="135" on="0"/>
        <pt x="201" y="160" on="0"/>
        <pt x="233" y="212" on="0"/>
        <pt x="257" y="293" on="0"/>
        <pt x="269" y="349" on="1"/>
        <pt x="346" y="710" on="1"/>
        <pt x="511" y="710" on="1"/>
        <pt x="434" y="349" on="1"/>
        <pt x="417" y="268" on="0"/>
        <pt x="372" y="135" on="0"/>
        <pt x="297" y="41" on="0"/>
        <pt x="180" y="-11" on="0"/>
      </contour>
    </TTGlyph>
    <TTGlyph name="K" xMin="4" yMin="0" xMax="739" yMax="710">
      <contour>
        <pt x="155" y="710" on="1"/>
        <pt x="319" y="710" on="1"/>
        <pt x="254" y="404" on="1"/>
        <pt x="554" y="710" on="1"/>
        <pt x="739" y="710" on="1"/>
        <pt x="420" y="393" on="1"/>
        <pt x="604" y="0" on="1"/>
        <pt x="416" y="0" on="1"/>
        <pt x="293" y="286" on="1"/>
        <pt x="212" y="209" on="1"/>
        <pt x="168" y="0" on="1"/>
        <pt x="4" y="0" on="1"/>
      </contour>
    </TTGlyph>
    <TTGlyph name="K.sc" xMin="-2" yMin="0" xMax="635" yMax="563">
      <contour>
        <pt x="118" y="563" on="1"/>
        <pt x="261" y="563" on="1"/>
        <pt x="209" y="322" on="1"/>
        <pt x="486" y="563" on="1"/>
        <pt x="635" y="563" on="1"/>
        <pt x="358" y="312" on="1"/>
        <pt x="530" y="0" on="1"/>
        <pt x="379" y="0" on="1"/>
        <pt x="256" y="231" on="1"/>
        <pt x="177" y="168" on="1"/>
        <pt x="141" y="0" on="1"/>
        <pt x="-2" y="0" on="1"/>
      </contour>
    </TTGlyph>
    <TTGlyph name="Kcommaaccent" xMin="4" yMin="-213" xMax="739" yMax="710">
      <contour>
        <pt x="202" y="-213" on="1"/>
        <pt x="247" y="-146" on="1"/>
        <pt x="200" y="-146" on="1"/>
        <pt x="221" y="-47" on="1"/>
        <pt x="354" y="-47" on="1"/>
        <pt x="333" y="-146" on="1"/>
        <pt x="272" y="-213" on="1"/>
      </contour>
      <contour>
        <pt x="155" y="710" on="1"/>
        <pt x="319" y="710" on="1"/>
        <pt x="254" y="404" on="1"/>
        <pt x="554" y="710" on="1"/>
        <pt x="739" y="710" on="1"/>
        <pt x="420" y="393" on="1"/>
        <pt x="604" y="0" on="1"/>
        <pt x="416" y="0" on="1"/>
        <pt x="293" y="286" on="1"/>
        <pt x="212" y="209" on="1"/>
        <pt x="168" y="0" on="1"/>
        <pt x="4" y="0" on="1"/>
      </contour>
    </TTGlyph>
    <TTGlyph name="L" xMin="4" yMin="0" xMax="519" yMax="710">
      <contour>
        <pt x="155" y="710" on="1"/>
        <pt x="319" y="710" on="1"/>
        <pt x="198" y="144" on="1"/>
        <pt x="519" y="144" on="1"/>
        <pt x="489" y="0" on="1"/>
        <pt x="4" y="0" on="1"/>
      </contour>
    </TTGlyph>
    <TTGlyph name="L.sc" xMin="-2" yMin="0" xMax="418" yMax="563">
      <contour>
        <pt x="118" y="563" on="1"/>
        <pt x="261" y="563" on="1"/>
        <pt x="168" y="125" on="1"/>
        <pt x="418" y="125" on="1"/>
        <pt x="391" y="0" on="1"/>
        <pt x="-2" y="0" on="1"/>
      </contour>
    </TTGlyph>
    <TTGlyph name="Lacute" xMin="4" yMin="0" xMax="519" yMax="916">
      <contour>
        <pt x="280" y="772" on="1"/>
        <pt x="174" y="786" on="1"/>
        <pt x="251" y="916" on="1"/>
        <pt x="395" y="916" on="1"/>
      </contour>
      <contour>
        <pt x="155" y="710" on="1"/>
        <pt x="319" y="710" on="1"/>
        <pt x="198" y="144" on="1"/>
        <pt x="519" y="144" on="1"/>
        <pt x="489" y="0" on="1"/>
        <pt x="4" y="0" on="1"/>
      </contour>
    </TTGlyph>
    <TTGlyph name="Lcaron" xMin="4" yMin="0" xMax="578" yMax="730">
      <contour>
        <pt x="357" y="600" on="1"/>
        <pt x="434" y="730" on="1"/>
        <pt x="578" y="730" on="1"/>
        <pt x="453" y="572" on="1"/>
      </contour>
      <contour>
        <pt x="155" y="710" on="1"/>
        <pt x="319" y="710" on="1"/>
        <pt x="198" y="144" on="1"/>
        <pt x="519" y="144" on="1"/>
        <pt x="489" y="0" on="1"/>
        <pt x="4" y="0" on="1"/>
      </contour>
    </TTGlyph>
    <TTGlyph name="Lcommaaccent" xMin="4" yMin="-213" xMax="519" yMax="710">
      <contour>
        <pt x="156" y="-213" on="1"/>
        <pt x="201" y="-146" on="1"/>
        <pt x="154" y="-146" on="1"/>
        <pt x="175" y="-47" on="1"/>
        <pt x="308" y="-47" on="1"/>
        <pt x="287" y="-146" on="1"/>
        <pt x="226" y="-213" on="1"/>
      </contour>
      <contour>
        <pt x="155" y="710" on="1"/>
        <pt x="319" y="710" on="1"/>
        <pt x="198" y="144" on="1"/>
        <pt x="519" y="144" on="1"/>
        <pt x="489" y="0" on="1"/>
        <pt x="4" y="0" on="1"/>
      </contour>
    </TTGlyph>
    <TTGlyph name="Ldot" xMin="4" yMin="0" xMax="519" yMax="710">
      <contour>
        <pt x="155" y="710" on="1"/>
        <pt x="319" y="710" on="1"/>
        <pt x="198" y="144" on="1"/>
        <pt x="519" y="144" on="1"/>
        <pt x="489" y="0" on="1"/>
        <pt x="4" y="0" on="1"/>
      </contour>
      <contour>
        <pt x="341" y="338" on="1"/>
        <pt x="376" y="504" on="1"/>
        <pt x="507" y="504" on="1"/>
        <pt x="472" y="338" on="1"/>
      </contour>
    </TTGlyph>
    <TTGlyph name="Lslash" xMin="0" yMin="0" xMax="528" yMax="710">
      <contour>
        <pt x="0" y="332" on="1"/>
        <pt x="94" y="381" on="1"/>
        <pt x="164" y="710" on="1"/>
        <pt x="328" y="710" on="1"/>
        <pt x="278" y="477" on="1"/>
        <pt x="371" y="526" on="1"/>
        <pt x="390" y="440" on="1"/>
        <pt x="255" y="369" on="1"/>
        <pt x="207" y="144" on="1"/>
        <pt x="528" y="144" on="1"/>
        <pt x="498" y="0" on="1"/>
        <pt x="13" y="0" on="1"/>
        <pt x="71" y="273" on="1"/>
        <pt x="19" y="246" on="1"/>
      </contour>
    </TTGlyph>
    <TTGlyph name="M" xMin="4" yMin="0" xMax="845" yMax="710">
      <contour>
        <pt x="155" y="710" on="1"/>
        <pt x="333" y="710" on="1"/>
        <pt x="421" y="339" on="1"/>
        <pt x="667" y="710" on="1"/>
        <pt x="845" y="710" on="1"/>
        <pt x="694" y="0" on="1"/>
        <pt x="529" y="0" on="1"/>
        <pt x="620" y="425" on="1"/>
        <pt x="417" y="116" on="1"/>
        <pt x="329" y="116" on="1"/>
        <pt x="259" y="425" on="1"/>
        <pt x="168" y="0" on="1"/>
        <pt x="4" y="0" on="1"/>
      </contour>
    </TTGlyph>
    <TTGlyph name="M.sc" xMin="-2" yMin="0" xMax="730" yMax="563">
      <contour>
        <pt x="118" y="563" on="1"/>
        <pt x="274" y="563" on="1"/>
        <pt x="365" y="285" on="1"/>
        <pt x="575" y="563" on="1"/>
        <pt x="730" y="563" on="1"/>
        <pt x="610" y="0" on="1"/>
        <pt x="467" y="0" on="1"/>
        <pt x="534" y="314" on="1"/>
        <pt x="362" y="90" on="1"/>
        <pt x="285" y="90" on="1"/>
        <pt x="208" y="314" on="1"/>
        <pt x="141" y="0" on="1"/>
        <pt x="-2" y="0" on="1"/>
      </contour>
    </TTGlyph>
    <TTGlyph name="N" xMin="4" yMin="0" xMax="748" yMax="710">
      <contour>
        <pt x="155" y="710" on="1"/>
        <pt x="283" y="710" on="1"/>
        <pt x="496" y="293" on="1"/>
        <pt x="584" y="710" on="1"/>
        <pt x="748" y="710" on="1"/>
        <pt x="597" y="0" on="1"/>
        <pt x="467" y="0" on="1"/>
        <pt x="254" y="406" on="1"/>
        <pt x="168" y="0" on="1"/>
        <pt x="4" y="0" on="1"/>
      </contour>
    </TTGlyph>
    <TTGlyph name="N.sc" xMin="-2" yMin="0" xMax="645" yMax="563">
      <contour>
        <pt x="118" y="563" on="1"/>
        <pt x="230" y="563" on="1"/>
        <pt x="437" y="257" on="1"/>
        <pt x="502" y="563" on="1"/>
        <pt x="645" y="563" on="1"/>
        <pt x="526" y="0" on="1"/>
        <pt x="411" y="0" on="1"/>
        <pt x="204" y="297" on="1"/>
        <pt x="141" y="0" on="1"/>
        <pt x="-2" y="0" on="1"/>
      </contour>
    </TTGlyph>
    <TTGlyph name="Nacute" xMin="4" yMin="0" xMax="748" yMax="916">
      <contour>
        <pt x="493" y="772" on="1"/>
        <pt x="387" y="786" on="1"/>
        <pt x="464" y="916" on="1"/>
        <pt x="608" y="916" on="1"/>
      </contour>
      <contour>
        <pt x="155" y="710" on="1"/>
        <pt x="283" y="710" on="1"/>
        <pt x="496" y="293" on="1"/>
        <pt x="584" y="710" on="1"/>
        <pt x="748" y="710" on="1"/>
        <pt x="597" y="0" on="1"/>
        <pt x="467" y="0" on="1"/>
        <pt x="254" y="406" on="1"/>
        <pt x="168" y="0" on="1"/>
        <pt x="4" y="0" on="1"/>
      </contour>
    </TTGlyph>
    <TTGlyph name="Ncaron" xMin="4" yMin="0" xMax="748" yMax="916">
      <contour>
        <pt x="310" y="879" on="1"/>
        <pt x="399" y="916" on="1"/>
        <pt x="466" y="853" on="1"/>
        <pt x="560" y="916" on="1"/>
        <pt x="635" y="879" on="1"/>
        <pt x="507" y="772" on="1"/>
        <pt x="392" y="772" on="1"/>
      </contour>
      <contour>
        <pt x="155" y="710" on="1"/>
        <pt x="283" y="710" on="1"/>
        <pt x="496" y="293" on="1"/>
        <pt x="584" y="710" on="1"/>
        <pt x="748" y="710" on="1"/>
        <pt x="597" y="0" on="1"/>
        <pt x="467" y="0" on="1"/>
        <pt x="254" y="406" on="1"/>
        <pt x="168" y="0" on="1"/>
        <pt x="4" y="0" on="1"/>
      </contour>
    </TTGlyph>
    <TTGlyph name="Ncommaaccent" xMin="4" yMin="-213" xMax="748" yMax="710">
      <contour>
        <pt x="213" y="-213" on="1"/>
        <pt x="258" y="-146" on="1"/>
        <pt x="211" y="-146" on="1"/>
        <pt x="232" y="-47" on="1"/>
        <pt x="365" y="-47" on="1"/>
        <pt x="344" y="-146" on="1"/>
        <pt x="283" y="-213" on="1"/>
      </contour>
      <contour>
        <pt x="155" y="710" on="1"/>
        <pt x="283" y="710" on="1"/>
        <pt x="496" y="293" on="1"/>
        <pt x="584" y="710" on="1"/>
        <pt x="748" y="710" on="1"/>
        <pt x="597" y="0" on="1"/>
        <pt x="467" y="0" on="1"/>
        <pt x="254" y="406" on="1"/>
        <pt x="168" y="0" on="1"/>
        <pt x="4" y="0" on="1"/>
      </contour>
    </TTGlyph>
    <TTGlyph name="Ndotaccent" xMin="4" yMin="0" xMax="748" yMax="916">
      <contour>
        <pt x="387" y="779" on="1"/>
        <pt x="416" y="916" on="1"/>
        <pt x="560" y="916" on="1"/>
        <pt x="531" y="779" on="1"/>
      </contour>
      <contour>
        <pt x="155" y="710" on="1"/>
        <pt x="283" y="710" on="1"/>
        <pt x="496" y="293" on="1"/>
        <pt x="584" y="710" on="1"/>
        <pt x="748" y="710" on="1"/>
        <pt x="597" y="0" on="1"/>
        <pt x="467" y="0" on="1"/>
        <pt x="254" y="406" on="1"/>
        <pt x="168" y="0" on="1"/>
        <pt x="4" y="0" on="1"/>
      </contour>
    </TTGlyph>
    <TTGlyph name="Ntilde" xMin="4" yMin="0" xMax="748" yMax="916">
      <contour>
        <pt x="155" y="710" on="1"/>
        <pt x="283" y="710" on="1"/>
        <pt x="496" y="293" on="1"/>
        <pt x="584" y="710" on="1"/>
        <pt x="748" y="710" on="1"/>
        <pt x="597" y="0" on="1"/>
        <pt x="467" y="0" on="1"/>
        <pt x="254" y="406" on="1"/>
        <pt x="168" y="0" on="1"/>
        <pt x="4" y="0" on="1"/>
      </contour>
      <contour>
        <pt x="528" y="774" on="1"/>
        <pt x="506" y="774" on="0"/>
        <pt x="476" y="788" on="0"/>
        <pt x="451" y="806" on="0"/>
        <pt x="427" y="820" on="0"/>
        <pt x="411" y="820" on="1"/>
        <pt x="395" y="820" on="0"/>
        <pt x="374" y="806" on="0"/>
        <pt x="362" y="788" on="0"/>
        <pt x="357" y="773" on="0"/>
        <pt x="357" y="772" on="1"/>
        <pt x="270" y="772" on="1"/>
        <pt x="272" y="783" on="0"/>
        <pt x="295" y="830" on="0"/>
        <pt x="335" y="878" on="0"/>
        <pt x="390" y="914" on="0"/>
        <pt x="424" y="914" on="1"/>
        <pt x="447" y="914" on="0"/>
        <pt x="477" y="899" on="0"/>
        <pt x="501" y="881" on="0"/>
        <pt x="524" y="866" on="0"/>
        <pt x="541" y="866" on="1"/>
        <pt x="557" y="866" on="0"/>
        <pt x="580" y="881" on="0"/>
        <pt x="594" y="899" on="0"/>
        <pt x="601" y="915" on="0"/>
        <pt x="601" y="916" on="1"/>
        <pt x="686" y="916" on="1"/>
        <pt x="684" y="908" on="0"/>
        <pt x="661" y="862" on="0"/>
        <pt x="620" y="812" on="0"/>
        <pt x="563" y="774" on="0"/>
      </contour>
    </TTGlyph>
    <TTGlyph name="O" xMin="33" yMin="-6" xMax="723" yMax="714">
      <contour>
        <pt x="301" y="-6" on="1"/>
        <pt x="236" y="-6" on="0"/>
        <pt x="136" y="43" on="0"/>
        <pt x="68" y="126" on="0"/>
        <pt x="33" y="233" on="0"/>
        <pt x="33" y="291" on="1"/>
        <pt x="33" y="345" on="0"/>
        <pt x="65" y="449" on="0"/>
        <pt x="122" y="543" on="0"/>
        <pt x="200" y="623" on="0"/>
        <pt x="295" y="681" on="0"/>
        <pt x="401" y="714" on="0"/>
        <pt x="457" y="714" on="1"/>
        <pt x="521" y="714" on="0"/>
        <pt x="621" y="664" on="0"/>
        <pt x="688" y="582" on="0"/>
        <pt x="723" y="474" on="0"/>
        <pt x="723" y="417" on="1"/>
        <pt x="723" y="337" on="0"/>
        <pt x="654" y="185" on="0"/>
        <pt x="537" y="66" on="0"/>
        <pt x="385" y="-6" on="0"/>
      </contour>
      <contour>
        <pt x="333" y="140" on="1"/>
        <pt x="385" y="140" on="0"/>
        <pt x="467" y="190" on="0"/>
        <pt x="524" y="267" on="0"/>
        <pt x="555" y="361" on="0"/>
        <pt x="555" y="406" on="1"/>
        <pt x="555" y="439" on="0"/>
        <pt x="539" y="497" on="0"/>
        <pt x="507" y="542" on="0"/>
        <pt x="457" y="568" on="0"/>
        <pt x="423" y="568" on="1"/>
        <pt x="372" y="568" on="0"/>
        <pt x="289" y="519" on="0"/>
        <pt x="232" y="443" on="0"/>
        <pt x="201" y="349" on="0"/>
        <pt x="201" y="304" on="1"/>
        <pt x="201" y="271" on="0"/>
        <pt x="217" y="212" on="0"/>
        <pt x="249" y="167" on="0"/>
        <pt x="299" y="140" on="0"/>
      </contour>
    </TTGlyph>
    <TTGlyph name="O.sc" xMin="19" yMin="-5" xMax="604" yMax="566">
      <contour>
        <pt x="250" y="-5" on="1"/>
        <pt x="195" y="-5" on="0"/>
        <pt x="109" y="35" on="0"/>
        <pt x="50" y="101" on="0"/>
        <pt x="19" y="187" on="0"/>
        <pt x="19" y="234" on="1"/>
        <pt x="19" y="298" on="0"/>
        <pt x="77" y="417" on="0"/>
        <pt x="175" y="510" on="0"/>
        <pt x="303" y="566" on="0"/>
        <pt x="374" y="566" on="1"/>
        <pt x="430" y="566" on="0"/>
        <pt x="516" y="526" on="0"/>
        <pt x="574" y="459" on="0"/>
        <pt x="604" y="373" on="0"/>
        <pt x="604" y="327" on="1"/>
        <pt x="604" y="264" on="0"/>
        <pt x="547" y="145" on="0"/>
        <pt x="449" y="52" on="0"/>
        <pt x="321" y="-5" on="0"/>
      </contour>
      <contour>
        <pt x="279" y="123" on="1"/>
        <pt x="320" y="123" on="0"/>
        <pt x="386" y="159" on="0"/>
        <pt x="432" y="214" on="0"/>
        <pt x="457" y="282" on="0"/>
        <pt x="457" y="315" on="1"/>
        <pt x="457" y="340" on="0"/>
        <pt x="443" y="384" on="0"/>
        <pt x="415" y="418" on="0"/>
        <pt x="373" y="438" on="0"/>
        <pt x="345" y="438" on="1"/>
        <pt x="304" y="438" on="0"/>
        <pt x="238" y="403" on="0"/>
        <pt x="192" y="349" on="0"/>
        <pt x="167" y="281" on="0"/>
        <pt x="167" y="248" on="1"/>
        <pt x="167" y="223" on="0"/>
        <pt x="180" y="178" on="0"/>
        <pt x="208" y="143" on="0"/>
        <pt x="250" y="123" on="0"/>
      </contour>
    </TTGlyph>
    <TTGlyph name="OE" xMin="33" yMin="-5" xMax="1053" yMax="715">
      <contour>
        <pt x="286" y="-5" on="1"/>
        <pt x="225" y="-5" on="0"/>
        <pt x="131" y="44" on="0"/>
        <pt x="66" y="125" on="0"/>
        <pt x="33" y="231" on="0"/>
        <pt x="33" y="288" on="1"/>
        <pt x="33" y="369" on="0"/>
        <pt x="101" y="523" on="0"/>
        <pt x="214" y="643" on="0"/>
        <pt x="362" y="715" on="0"/>
        <pt x="443" y="715" on="1"/>
        <pt x="491" y="715" on="0"/>
        <pt x="562" y="671" on="0"/>
        <pt x="587" y="636" on="1"/>
        <pt x="602" y="710" on="1"/>
        <pt x="1053" y="710" on="1"/>
        <pt x="1022" y="566" on="1"/>
        <pt x="736" y="566" on="1"/>
        <pt x="707" y="433" on="1"/>
        <pt x="943" y="433" on="1"/>
        <pt x="912" y="290" on="1"/>
        <pt x="677" y="290" on="1"/>
        <pt x="645" y="144" on="1"/>
        <pt x="941" y="144" on="1"/>
        <pt x="910" y="0" on="1"/>
        <pt x="451" y="0" on="1"/>
        <pt x="467" y="75" on="1"/>
        <pt x="427" y="40" on="0"/>
        <pt x="334" y="-5" on="0"/>
      </contour>
      <contour>
        <pt x="318" y="141" on="1"/>
        <pt x="366" y="141" on="0"/>
        <pt x="443" y="192" on="0"/>
        <pt x="498" y="270" on="0"/>
        <pt x="527" y="365" on="0"/>
        <pt x="527" y="410" on="1"/>
        <pt x="527" y="442" on="0"/>
        <pt x="513" y="500" on="0"/>
        <pt x="483" y="543" on="0"/>
        <pt x="439" y="569" on="0"/>
        <pt x="409" y="569" on="1"/>
        <pt x="362" y="569" on="0"/>
        <pt x="285" y="519" on="0"/>
        <pt x="230" y="440" on="0"/>
        <pt x="200" y="345" on="0"/>
        <pt x="200" y="300" on="1"/>
        <pt x="200" y="268" on="0"/>
        <pt x="214" y="210" on="0"/>
        <pt x="244" y="167" on="0"/>
        <pt x="288" y="141" on="0"/>
      </contour>
    </TTGlyph>
    <TTGlyph name="Oacute" xMin="33" yMin="-6" xMax="723" yMax="916">
      <contour>
        <pt x="505" y="772" on="1"/>
        <pt x="399" y="786" on="1"/>
        <pt x="476" y="916" on="1"/>
        <pt x="620" y="916" on="1"/>
      </contour>
      <contour>
        <pt x="301" y="-6" on="1"/>
        <pt x="236" y="-6" on="0"/>
        <pt x="136" y="43" on="0"/>
        <pt x="68" y="126" on="0"/>
        <pt x="33" y="233" on="0"/>
        <pt x="33" y="291" on="1"/>
        <pt x="33" y="345" on="0"/>
        <pt x="65" y="449" on="0"/>
        <pt x="122" y="543" on="0"/>
        <pt x="200" y="623" on="0"/>
        <pt x="295" y="681" on="0"/>
        <pt x="401" y="714" on="0"/>
        <pt x="457" y="714" on="1"/>
        <pt x="521" y="714" on="0"/>
        <pt x="621" y="664" on="0"/>
        <pt x="688" y="582" on="0"/>
        <pt x="723" y="474" on="0"/>
        <pt x="723" y="417" on="1"/>
        <pt x="723" y="337" on="0"/>
        <pt x="654" y="185" on="0"/>
        <pt x="537" y="66" on="0"/>
        <pt x="385" y="-6" on="0"/>
      </contour>
      <contour>
        <pt x="333" y="140" on="1"/>
        <pt x="385" y="140" on="0"/>
        <pt x="467" y="190" on="0"/>
        <pt x="524" y="267" on="0"/>
        <pt x="555" y="361" on="0"/>
        <pt x="555" y="406" on="1"/>
        <pt x="555" y="439" on="0"/>
        <pt x="539" y="497" on="0"/>
        <pt x="507" y="542" on="0"/>
        <pt x="457" y="568" on="0"/>
        <pt x="423" y="568" on="1"/>
        <pt x="372" y="568" on="0"/>
        <pt x="289" y="519" on="0"/>
        <pt x="232" y="443" on="0"/>
        <pt x="201" y="349" on="0"/>
        <pt x="201" y="304" on="1"/>
        <pt x="201" y="271" on="0"/>
        <pt x="217" y="212" on="0"/>
        <pt x="249" y="167" on="0"/>
        <pt x="299" y="140" on="0"/>
      </contour>
    </TTGlyph>
    <TTGlyph name="Obreve" xMin="33" yMin="-6" xMax="723" yMax="916">
      <contour>
        <pt x="301" y="-6" on="1"/>
        <pt x="236" y="-6" on="0"/>
        <pt x="136" y="43" on="0"/>
        <pt x="68" y="126" on="0"/>
        <pt x="33" y="233" on="0"/>
        <pt x="33" y="291" on="1"/>
        <pt x="33" y="345" on="0"/>
        <pt x="65" y="449" on="0"/>
        <pt x="122" y="543" on="0"/>
        <pt x="200" y="623" on="0"/>
        <pt x="295" y="681" on="0"/>
        <pt x="401" y="714" on="0"/>
        <pt x="457" y="714" on="1"/>
        <pt x="521" y="714" on="0"/>
        <pt x="621" y="664" on="0"/>
        <pt x="688" y="582" on="0"/>
        <pt x="723" y="474" on="0"/>
        <pt x="723" y="417" on="1"/>
        <pt x="723" y="337" on="0"/>
        <pt x="654" y="185" on="0"/>
        <pt x="537" y="66" on="0"/>
        <pt x="385" y="-6" on="0"/>
      </contour>
      <contour>
        <pt x="333" y="140" on="1"/>
        <pt x="385" y="140" on="0"/>
        <pt x="467" y="190" on="0"/>
        <pt x="524" y="267" on="0"/>
        <pt x="555" y="361" on="0"/>
        <pt x="555" y="406" on="1"/>
        <pt x="555" y="439" on="0"/>
        <pt x="539" y="497" on="0"/>
        <pt x="507" y="542" on="0"/>
        <pt x="457" y="568" on="0"/>
        <pt x="423" y="568" on="1"/>
        <pt x="372" y="568" on="0"/>
        <pt x="289" y="519" on="0"/>
        <pt x="232" y="443" on="0"/>
        <pt x="201" y="349" on="0"/>
        <pt x="201" y="304" on="1"/>
        <pt x="201" y="271" on="0"/>
        <pt x="217" y="212" on="0"/>
        <pt x="249" y="167" on="0"/>
        <pt x="299" y="140" on="0"/>
      </contour>
      <contour>
        <pt x="481" y="839" on="1"/>
        <pt x="502" y="839" on="0"/>
        <pt x="543" y="882" on="0"/>
        <pt x="554" y="916" on="1"/>
        <pt x="638" y="916" on="1"/>
        <pt x="631" y="884" on="0"/>
        <pt x="599" y="830" on="0"/>
        <pt x="553" y="791" on="0"/>
        <pt x="497" y="769" on="0"/>
        <pt x="466" y="769" on="1"/>
        <pt x="412" y="769" on="0"/>
        <pt x="351" y="829" on="0"/>
        <pt x="351" y="879" on="1"/>
        <pt x="351" y="888" on="0"/>
        <pt x="354" y="906" on="0"/>
        <pt x="356" y="916" on="1"/>
        <pt x="440" y="916" on="1"/>
        <pt x="437" y="905" on="0"/>
        <pt x="437" y="895" on="1"/>
        <pt x="437" y="871" on="0"/>
        <pt x="461" y="839" on="0"/>
      </contour>
    </TTGlyph>
    <TTGlyph name="Ocircumflex" xMin="33" yMin="-6" xMax="723" yMax="916">
      <contour>
        <pt x="316" y="808" on="1"/>
        <pt x="444" y="916" on="1"/>
        <pt x="558" y="916" on="1"/>
        <pt x="640" y="808" on="1"/>
        <pt x="551" y="772" on="1"/>
        <pt x="484" y="835" on="1"/>
        <pt x="390" y="772" on="1"/>
      </contour>
      <contour>
        <pt x="301" y="-6" on="1"/>
        <pt x="236" y="-6" on="0"/>
        <pt x="136" y="43" on="0"/>
        <pt x="68" y="126" on="0"/>
        <pt x="33" y="233" on="0"/>
        <pt x="33" y="291" on="1"/>
        <pt x="33" y="345" on="0"/>
        <pt x="65" y="449" on="0"/>
        <pt x="122" y="543" on="0"/>
        <pt x="200" y="623" on="0"/>
        <pt x="295" y="681" on="0"/>
        <pt x="401" y="714" on="0"/>
        <pt x="457" y="714" on="1"/>
        <pt x="521" y="714" on="0"/>
        <pt x="621" y="664" on="0"/>
        <pt x="688" y="582" on="0"/>
        <pt x="723" y="474" on="0"/>
        <pt x="723" y="417" on="1"/>
        <pt x="723" y="337" on="0"/>
        <pt x="654" y="185" on="0"/>
        <pt x="537" y="66" on="0"/>
        <pt x="385" y="-6" on="0"/>
      </contour>
      <contour>
        <pt x="333" y="140" on="1"/>
        <pt x="385" y="140" on="0"/>
        <pt x="467" y="190" on="0"/>
        <pt x="524" y="267" on="0"/>
        <pt x="555" y="361" on="0"/>
        <pt x="555" y="406" on="1"/>
        <pt x="555" y="439" on="0"/>
        <pt x="539" y="497" on="0"/>
        <pt x="507" y="542" on="0"/>
        <pt x="457" y="568" on="0"/>
        <pt x="423" y="568" on="1"/>
        <pt x="372" y="568" on="0"/>
        <pt x="289" y="519" on="0"/>
        <pt x="232" y="443" on="0"/>
        <pt x="201" y="349" on="0"/>
        <pt x="201" y="304" on="1"/>
        <pt x="201" y="271" on="0"/>
        <pt x="217" y="212" on="0"/>
        <pt x="249" y="167" on="0"/>
        <pt x="299" y="140" on="0"/>
      </contour>
    </TTGlyph>
    <TTGlyph name="Odblgrave" xMin="33" yMin="-6" xMax="723" yMax="918">
      <contour>
        <pt x="506" y="918" on="1"/>
        <pt x="624" y="918" on="1"/>
        <pt x="638" y="788" on="1"/>
        <pt x="553" y="772" on="1"/>
      </contour>
      <contour>
        <pt x="336" y="918" on="1"/>
        <pt x="455" y="918" on="1"/>
        <pt x="468" y="788" on="1"/>
        <pt x="383" y="772" on="1"/>
      </contour>
      <contour>
        <pt x="301" y="-6" on="1"/>
        <pt x="236" y="-6" on="0"/>
        <pt x="136" y="43" on="0"/>
        <pt x="68" y="126" on="0"/>
        <pt x="33" y="233" on="0"/>
        <pt x="33" y="291" on="1"/>
        <pt x="33" y="345" on="0"/>
        <pt x="65" y="449" on="0"/>
        <pt x="122" y="543" on="0"/>
        <pt x="200" y="623" on="0"/>
        <pt x="295" y="681" on="0"/>
        <pt x="401" y="714" on="0"/>
        <pt x="457" y="714" on="1"/>
        <pt x="521" y="714" on="0"/>
        <pt x="621" y="664" on="0"/>
        <pt x="688" y="582" on="0"/>
        <pt x="723" y="474" on="0"/>
        <pt x="723" y="417" on="1"/>
        <pt x="723" y="337" on="0"/>
        <pt x="654" y="185" on="0"/>
        <pt x="537" y="66" on="0"/>
        <pt x="385" y="-6" on="0"/>
      </contour>
      <contour>
        <pt x="333" y="140" on="1"/>
        <pt x="385" y="140" on="0"/>
        <pt x="467" y="190" on="0"/>
        <pt x="524" y="267" on="0"/>
        <pt x="555" y="361" on="0"/>
        <pt x="555" y="406" on="1"/>
        <pt x="555" y="439" on="0"/>
        <pt x="539" y="497" on="0"/>
        <pt x="507" y="542" on="0"/>
        <pt x="457" y="568" on="0"/>
        <pt x="423" y="568" on="1"/>
        <pt x="372" y="568" on="0"/>
        <pt x="289" y="519" on="0"/>
        <pt x="232" y="443" on="0"/>
        <pt x="201" y="349" on="0"/>
        <pt x="201" y="304" on="1"/>
        <pt x="201" y="271" on="0"/>
        <pt x="217" y="212" on="0"/>
        <pt x="249" y="167" on="0"/>
        <pt x="299" y="140" on="0"/>
      </contour>
    </TTGlyph>
    <TTGlyph name="Odieresis" xMin="33" yMin="-6" xMax="723" yMax="909">
      <contour>
        <pt x="301" y="780" on="1"/>
        <pt x="329" y="909" on="1"/>
        <pt x="461" y="909" on="1"/>
        <pt x="433" y="780" on="1"/>
      </contour>
      <contour>
        <pt x="506" y="780" on="1"/>
        <pt x="534" y="909" on="1"/>
        <pt x="665" y="909" on="1"/>
        <pt x="638" y="780" on="1"/>
      </contour>
      <contour>
        <pt x="301" y="-6" on="1"/>
        <pt x="236" y="-6" on="0"/>
        <pt x="136" y="43" on="0"/>
        <pt x="68" y="126" on="0"/>
        <pt x="33" y="233" on="0"/>
        <pt x="33" y="291" on="1"/>
        <pt x="33" y="345" on="0"/>
        <pt x="65" y="449" on="0"/>
        <pt x="122" y="543" on="0"/>
        <pt x="200" y="623" on="0"/>
        <pt x="295" y="681" on="0"/>
        <pt x="401" y="714" on="0"/>
        <pt x="457" y="714" on="1"/>
        <pt x="521" y="714" on="0"/>
        <pt x="621" y="664" on="0"/>
        <pt x="688" y="582" on="0"/>
        <pt x="723" y="474" on="0"/>
        <pt x="723" y="417" on="1"/>
        <pt x="723" y="337" on="0"/>
        <pt x="654" y="185" on="0"/>
        <pt x="537" y="66" on="0"/>
        <pt x="385" y="-6" on="0"/>
      </contour>
      <contour>
        <pt x="333" y="140" on="1"/>
        <pt x="385" y="140" on="0"/>
        <pt x="467" y="190" on="0"/>
        <pt x="524" y="267" on="0"/>
        <pt x="555" y="361" on="0"/>
        <pt x="555" y="406" on="1"/>
        <pt x="555" y="439" on="0"/>
        <pt x="539" y="497" on="0"/>
        <pt x="507" y="542" on="0"/>
        <pt x="457" y="568" on="0"/>
        <pt x="423" y="568" on="1"/>
        <pt x="372" y="568" on="0"/>
        <pt x="289" y="519" on="0"/>
        <pt x="232" y="443" on="0"/>
        <pt x="201" y="349" on="0"/>
        <pt x="201" y="304" on="1"/>
        <pt x="201" y="271" on="0"/>
        <pt x="217" y="212" on="0"/>
        <pt x="249" y="167" on="0"/>
        <pt x="299" y="140" on="0"/>
      </contour>
    </TTGlyph>
    <TTGlyph name="Odotbelow" xMin="33" yMin="-204" xMax="723" yMax="714">
      <contour>
        <pt x="190" y="-204" on="1"/>
        <pt x="219" y="-67" on="1"/>
        <pt x="363" y="-67" on="1"/>
        <pt x="334" y="-204" on="1"/>
      </contour>
      <contour>
        <pt x="301" y="-6" on="1"/>
        <pt x="236" y="-6" on="0"/>
        <pt x="136" y="43" on="0"/>
        <pt x="68" y="126" on="0"/>
        <pt x="33" y="233" on="0"/>
        <pt x="33" y="291" on="1"/>
        <pt x="33" y="345" on="0"/>
        <pt x="65" y="449" on="0"/>
        <pt x="122" y="543" on="0"/>
        <pt x="200" y="623" on="0"/>
        <pt x="295" y="681" on="0"/>
        <pt x="401" y="714" on="0"/>
        <pt x="457" y="714" on="1"/>
        <pt x="521" y="714" on="0"/>
        <pt x="621" y="664" on="0"/>
        <pt x="688" y="582" on="0"/>
        <pt x="723" y="474" on="0"/>
        <pt x="723" y="417" on="1"/>
        <pt x="723" y="337" on="0"/>
        <pt x="654" y="185" on="0"/>
        <pt x="537" y="66" on="0"/>
        <pt x="385" y="-6" on="0"/>
      </contour>
      <contour>
        <pt x="333" y="140" on="1"/>
        <pt x="385" y="140" on="0"/>
        <pt x="467" y="190" on="0"/>
        <pt x="524" y="267" on="0"/>
        <pt x="555" y="361" on="0"/>
        <pt x="555" y="406" on="1"/>
        <pt x="555" y="439" on="0"/>
        <pt x="539" y="497" on="0"/>
        <pt x="507" y="542" on="0"/>
        <pt x="457" y="568" on="0"/>
        <pt x="423" y="568" on="1"/>
        <pt x="372" y="568" on="0"/>
        <pt x="289" y="519" on="0"/>
        <pt x="232" y="443" on="0"/>
        <pt x="201" y="349" on="0"/>
        <pt x="201" y="304" on="1"/>
        <pt x="201" y="271" on="0"/>
        <pt x="217" y="212" on="0"/>
        <pt x="249" y="167" on="0"/>
        <pt x="299" y="140" on="0"/>
      </contour>
    </TTGlyph>
    <TTGlyph name="Ograve" xMin="33" yMin="-6" xMax="723" yMax="917">
      <contour>
        <pt x="301" y="-6" on="1"/>
        <pt x="236" y="-6" on="0"/>
        <pt x="136" y="43" on="0"/>
        <pt x="68" y="126" on="0"/>
        <pt x="33" y="233" on="0"/>
        <pt x="33" y="291" on="1"/>
        <pt x="33" y="345" on="0"/>
        <pt x="65" y="449" on="0"/>
        <pt x="122" y="543" on="0"/>
        <pt x="200" y="623" on="0"/>
        <pt x="295" y="681" on="0"/>
        <pt x="401" y="714" on="0"/>
        <pt x="457" y="714" on="1"/>
        <pt x="521" y="714" on="0"/>
        <pt x="621" y="664" on="0"/>
        <pt x="688" y="582" on="0"/>
        <pt x="723" y="474" on="0"/>
        <pt x="723" y="417" on="1"/>
        <pt x="723" y="337" on="0"/>
        <pt x="654" y="185" on="0"/>
        <pt x="537" y="66" on="0"/>
        <pt x="385" y="-6" on="0"/>
      </contour>
      <contour>
        <pt x="333" y="140" on="1"/>
        <pt x="385" y="140" on="0"/>
        <pt x="467" y="190" on="0"/>
        <pt x="524" y="267" on="0"/>
        <pt x="555" y="361" on="0"/>
        <pt x="555" y="406" on="1"/>
        <pt x="555" y="439" on="0"/>
        <pt x="539" y="497" on="0"/>
        <pt x="507" y="542" on="0"/>
        <pt x="457" y="568" on="0"/>
        <pt x="423" y="568" on="1"/>
        <pt x="372" y="568" on="0"/>
        <pt x="289" y="519" on="0"/>
        <pt x="232" y="443" on="0"/>
        <pt x="201" y="349" on="0"/>
        <pt x="201" y="304" on="1"/>
        <pt x="201" y="271" on="0"/>
        <pt x="217" y="212" on="0"/>
        <pt x="249" y="167" on="0"/>
        <pt x="299" y="140" on="0"/>
      </contour>
      <contour>
        <pt x="378" y="917" on="1"/>
        <pt x="522" y="917" on="1"/>
        <pt x="544" y="787" on="1"/>
        <pt x="433" y="771" on="1"/>
      </contour>
    </TTGlyph>
    <TTGlyph name="Ohungarumlaut" xMin="33" yMin="-6" xMax="723" yMax="899">
      <contour>
        <pt x="398" y="757" on="1"/>
        <pt x="317" y="769" on="1"/>
        <pt x="385" y="899" on="1"/>
        <pt x="504" y="899" on="1"/>
      </contour>
      <contour>
        <pt x="568" y="757" on="1"/>
        <pt x="487" y="769" on="1"/>
        <pt x="554" y="899" on="1"/>
        <pt x="674" y="899" on="1"/>
      </contour>
      <contour>
        <pt x="301" y="-6" on="1"/>
        <pt x="236" y="-6" on="0"/>
        <pt x="136" y="43" on="0"/>
        <pt x="68" y="126" on="0"/>
        <pt x="33" y="233" on="0"/>
        <pt x="33" y="291" on="1"/>
        <pt x="33" y="345" on="0"/>
        <pt x="65" y="449" on="0"/>
        <pt x="122" y="543" on="0"/>
        <pt x="200" y="623" on="0"/>
        <pt x="295" y="681" on="0"/>
        <pt x="401" y="714" on="0"/>
        <pt x="457" y="714" on="1"/>
        <pt x="521" y="714" on="0"/>
        <pt x="621" y="664" on="0"/>
        <pt x="688" y="582" on="0"/>
        <pt x="723" y="474" on="0"/>
        <pt x="723" y="417" on="1"/>
        <pt x="723" y="337" on="0"/>
        <pt x="654" y="185" on="0"/>
        <pt x="537" y="66" on="0"/>
        <pt x="385" y="-6" on="0"/>
      </contour>
      <contour>
        <pt x="333" y="140" on="1"/>
        <pt x="385" y="140" on="0"/>
        <pt x="467" y="190" on="0"/>
        <pt x="524" y="267" on="0"/>
        <pt x="555" y="361" on="0"/>
        <pt x="555" y="406" on="1"/>
        <pt x="555" y="439" on="0"/>
        <pt x="539" y="497" on="0"/>
        <pt x="507" y="542" on="0"/>
        <pt x="457" y="568" on="0"/>
        <pt x="423" y="568" on="1"/>
        <pt x="372" y="568" on="0"/>
        <pt x="289" y="519" on="0"/>
        <pt x="232" y="443" on="0"/>
        <pt x="201" y="349" on="0"/>
        <pt x="201" y="304" on="1"/>
        <pt x="201" y="271" on="0"/>
        <pt x="217" y="212" on="0"/>
        <pt x="249" y="167" on="0"/>
        <pt x="299" y="140" on="0"/>
      </contour>
    </TTGlyph>
    <TTGlyph name="Oinvertedbreve" xMin="33" yMin="-6" xMax="723" yMax="916">
      <contour>
        <pt x="332" y="769" on="1"/>
        <pt x="339" y="801" on="0"/>
        <pt x="371" y="855" on="0"/>
        <pt x="417" y="894" on="0"/>
        <pt x="473" y="916" on="0"/>
        <pt x="504" y="916" on="1"/>
        <pt x="558" y="916" on="0"/>
        <pt x="617" y="850" on="0"/>
        <pt x="617" y="802" on="1"/>
        <pt x="617" y="787" on="0"/>
        <pt x="614" y="769" on="1"/>
        <pt x="530" y="769" on="1"/>
        <pt x="533" y="785" on="0"/>
        <pt x="533" y="799" on="1"/>
        <pt x="533" y="846" on="0"/>
        <pt x="489" y="846" on="1"/>
        <pt x="463" y="846" on="0"/>
        <pt x="423" y="811" on="0"/>
        <pt x="415" y="769" on="1"/>
      </contour>
      <contour>
        <pt x="301" y="-6" on="1"/>
        <pt x="236" y="-6" on="0"/>
        <pt x="136" y="43" on="0"/>
        <pt x="68" y="126" on="0"/>
        <pt x="33" y="233" on="0"/>
        <pt x="33" y="291" on="1"/>
        <pt x="33" y="345" on="0"/>
        <pt x="65" y="449" on="0"/>
        <pt x="122" y="543" on="0"/>
        <pt x="200" y="623" on="0"/>
        <pt x="295" y="681" on="0"/>
        <pt x="401" y="714" on="0"/>
        <pt x="457" y="714" on="1"/>
        <pt x="521" y="714" on="0"/>
        <pt x="621" y="664" on="0"/>
        <pt x="688" y="582" on="0"/>
        <pt x="723" y="474" on="0"/>
        <pt x="723" y="417" on="1"/>
        <pt x="723" y="337" on="0"/>
        <pt x="654" y="185" on="0"/>
        <pt x="537" y="66" on="0"/>
        <pt x="385" y="-6" on="0"/>
      </contour>
      <contour>
        <pt x="333" y="140" on="1"/>
        <pt x="385" y="140" on="0"/>
        <pt x="467" y="190" on="0"/>
        <pt x="524" y="267" on="0"/>
        <pt x="555" y="361" on="0"/>
        <pt x="555" y="406" on="1"/>
        <pt x="555" y="439" on="0"/>
        <pt x="539" y="497" on="0"/>
        <pt x="507" y="542" on="0"/>
        <pt x="457" y="568" on="0"/>
        <pt x="423" y="568" on="1"/>
        <pt x="372" y="568" on="0"/>
        <pt x="289" y="519" on="0"/>
        <pt x="232" y="443" on="0"/>
        <pt x="201" y="349" on="0"/>
        <pt x="201" y="304" on="1"/>
        <pt x="201" y="271" on="0"/>
        <pt x="217" y="212" on="0"/>
        <pt x="249" y="167" on="0"/>
        <pt x="299" y="140" on="0"/>
      </contour>
    </TTGlyph>
    <TTGlyph name="Omacron" xMin="33" yMin="-6" xMax="723" yMax="903">
      <contour>
        <pt x="330" y="806" on="1"/>
        <pt x="350" y="903" on="1"/>
        <pt x="641" y="903" on="1"/>
        <pt x="620" y="806" on="1"/>
      </contour>
      <contour>
        <pt x="301" y="-6" on="1"/>
        <pt x="236" y="-6" on="0"/>
        <pt x="136" y="43" on="0"/>
        <pt x="68" y="126" on="0"/>
        <pt x="33" y="233" on="0"/>
        <pt x="33" y="291" on="1"/>
        <pt x="33" y="345" on="0"/>
        <pt x="65" y="449" on="0"/>
        <pt x="122" y="543" on="0"/>
        <pt x="200" y="623" on="0"/>
        <pt x="295" y="681" on="0"/>
        <pt x="401" y="714" on="0"/>
        <pt x="457" y="714" on="1"/>
        <pt x="521" y="714" on="0"/>
        <pt x="621" y="664" on="0"/>
        <pt x="688" y="582" on="0"/>
        <pt x="723" y="474" on="0"/>
        <pt x="723" y="417" on="1"/>
        <pt x="723" y="337" on="0"/>
        <pt x="654" y="185" on="0"/>
        <pt x="537" y="66" on="0"/>
        <pt x="385" y="-6" on="0"/>
      </contour>
      <contour>
        <pt x="333" y="140" on="1"/>
        <pt x="385" y="140" on="0"/>
        <pt x="467" y="190" on="0"/>
        <pt x="524" y="267" on="0"/>
        <pt x="555" y="361" on="0"/>
        <pt x="555" y="406" on="1"/>
        <pt x="555" y="439" on="0"/>
        <pt x="539" y="497" on="0"/>
        <pt x="507" y="542" on="0"/>
        <pt x="457" y="568" on="0"/>
        <pt x="423" y="568" on="1"/>
        <pt x="372" y="568" on="0"/>
        <pt x="289" y="519" on="0"/>
        <pt x="232" y="443" on="0"/>
        <pt x="201" y="349" on="0"/>
        <pt x="201" y="304" on="1"/>
        <pt x="201" y="271" on="0"/>
        <pt x="217" y="212" on="0"/>
        <pt x="249" y="167" on="0"/>
        <pt x="299" y="140" on="0"/>
      </contour>
    </TTGlyph>
    <TTGlyph name="Omega" xMin="40" yMin="0" xMax="755" yMax="715">
      <contour>
        <pt x="40" y="115" on="1"/>
        <pt x="198" y="115" on="1"/>
        <pt x="129" y="154" on="0"/>
        <pt x="50" y="287" on="0"/>
        <pt x="50" y="372" on="1"/>
        <pt x="50" y="440" on="0"/>
        <pt x="103" y="564" on="0"/>
        <pt x="196" y="659" on="0"/>
        <pt x="323" y="715" on="0"/>
        <pt x="398" y="715" on="1"/>
        <pt x="472" y="715" on="0"/>
        <pt x="599" y="659" on="0"/>
        <pt x="692" y="564" on="0"/>
        <pt x="745" y="440" on="0"/>
        <pt x="745" y="372" on="1"/>
        <pt x="745" y="287" on="0"/>
        <pt x="666" y="154" on="0"/>
        <pt x="597" y="115" on="1"/>
        <pt x="755" y="115" on="1"/>
        <pt x="755" y="0" on="1"/>
        <pt x="438" y="0" on="1"/>
        <pt x="438" y="115" on="1"/>
        <pt x="471" y="128" on="0"/>
        <pt x="525" y="181" on="0"/>
        <pt x="563" y="250" on="0"/>
        <pt x="583" y="331" on="0"/>
        <pt x="583" y="372" on="1"/>
        <pt x="583" y="409" on="0"/>
        <pt x="558" y="479" on="0"/>
        <pt x="510" y="535" on="0"/>
        <pt x="441" y="569" on="0"/>
        <pt x="398" y="569" on="1"/>
        <pt x="354" y="569" on="0"/>
        <pt x="285" y="535" on="0"/>
        <pt x="237" y="479" on="0"/>
        <pt x="212" y="409" on="0"/>
        <pt x="212" y="372" on="1"/>
        <pt x="212" y="331" on="0"/>
        <pt x="232" y="250" on="0"/>
        <pt x="270" y="181" on="0"/>
        <pt x="324" y="128" on="0"/>
        <pt x="358" y="115" on="1"/>
        <pt x="358" y="0" on="1"/>
        <pt x="40" y="0" on="1"/>
      </contour>
    </TTGlyph>
    <TTGlyph name="Oogonek" xMin="33" yMin="-204" xMax="723" yMax="714">
      <contour>
        <pt x="277" y="-204" on="1"/>
        <pt x="220" y="-196" on="0"/>
        <pt x="165" y="-151" on="0"/>
        <pt x="165" y="-122" on="1"/>
        <pt x="165" y="-93" on="0"/>
        <pt x="214" y="-32" on="0"/>
        <pt x="263" y="-3" on="1"/>
        <pt x="207" y="4" on="0"/>
        <pt x="121" y="57" on="0"/>
        <pt x="63" y="137" on="0"/>
        <pt x="33" y="237" on="0"/>
        <pt x="33" y="291" on="1"/>
        <pt x="33" y="345" on="0"/>
        <pt x="65" y="449" on="0"/>
        <pt x="122" y="543" on="0"/>
        <pt x="200" y="623" on="0"/>
        <pt x="295" y="681" on="0"/>
        <pt x="401" y="714" on="0"/>
        <pt x="457" y="714" on="1"/>
        <pt x="521" y="714" on="0"/>
        <pt x="621" y="664" on="0"/>
        <pt x="688" y="582" on="0"/>
        <pt x="723" y="474" on="0"/>
        <pt x="723" y="417" on="1"/>
        <pt x="723" y="343" on="0"/>
        <pt x="664" y="202" on="0"/>
        <pt x="563" y="87" on="0"/>
        <pt x="428" y="9" on="0"/>
        <pt x="353" y="-2" on="1"/>
        <pt x="270" y="-50" on="0"/>
        <pt x="270" y="-87" on="1"/>
        <pt x="270" y="-101" on="0"/>
        <pt x="297" y="-119" on="0"/>
        <pt x="326" y="-120" on="1"/>
      </contour>
      <contour>
        <pt x="333" y="140" on="1"/>
        <pt x="385" y="140" on="0"/>
        <pt x="467" y="190" on="0"/>
        <pt x="524" y="267" on="0"/>
        <pt x="555" y="361" on="0"/>
        <pt x="555" y="406" on="1"/>
        <pt x="555" y="439" on="0"/>
        <pt x="539" y="497" on="0"/>
        <pt x="507" y="542" on="0"/>
        <pt x="457" y="568" on="0"/>
        <pt x="423" y="568" on="1"/>
        <pt x="372" y="568" on="0"/>
        <pt x="289" y="519" on="0"/>
        <pt x="232" y="443" on="0"/>
        <pt x="201" y="349" on="0"/>
        <pt x="201" y="304" on="1"/>
        <pt x="201" y="271" on="0"/>
        <pt x="217" y="212" on="0"/>
        <pt x="249" y="167" on="0"/>
        <pt x="299" y="140" on="0"/>
      </contour>
    </TTGlyph>
    <TTGlyph name="Oslash" xMin="-26" yMin="-6" xMax="783" yMax="714">
      <contour>
        <pt x="783" y="710" on="1"/>
        <pt x="677" y="591" on="1"/>
        <pt x="700" y="553" on="0"/>
        <pt x="723" y="464" on="0"/>
        <pt x="723" y="417" on="1"/>
        <pt x="723" y="337" on="0"/>
        <pt x="654" y="185" on="0"/>
        <pt x="537" y="66" on="0"/>
        <pt x="385" y="-6" on="0"/>
        <pt x="301" y="-6" on="1"/>
        <pt x="229" y="-6" on="0"/>
        <pt x="173" y="25" on="1"/>
        <pt x="150" y="0" on="1"/>
        <pt x="-26" y="0" on="1"/>
        <pt x="78" y="117" on="1"/>
        <pt x="55" y="155" on="0"/>
        <pt x="33" y="243" on="0"/>
        <pt x="33" y="291" on="1"/>
        <pt x="33" y="345" on="0"/>
        <pt x="65" y="449" on="0"/>
        <pt x="122" y="543" on="0"/>
        <pt x="200" y="623" on="0"/>
        <pt x="295" y="681" on="0"/>
        <pt x="401" y="714" on="0"/>
        <pt x="457" y="714" on="1"/>
        <pt x="493" y="714" on="0"/>
        <pt x="556" y="697" on="0"/>
        <pt x="583" y="683" on="1"/>
        <pt x="607" y="710" on="1"/>
      </contour>
      <contour>
        <pt x="333" y="140" on="1"/>
        <pt x="385" y="140" on="0"/>
        <pt x="467" y="190" on="0"/>
        <pt x="524" y="267" on="0"/>
        <pt x="555" y="361" on="0"/>
        <pt x="555" y="406" on="1"/>
        <pt x="555" y="417" on="0"/>
        <pt x="553" y="439" on="0"/>
        <pt x="551" y="450" on="1"/>
        <pt x="283" y="149" on="1"/>
        <pt x="304" y="140" on="0"/>
      </contour>
      <contour>
        <pt x="201" y="304" on="1"/>
        <pt x="201" y="279" on="0"/>
        <pt x="205" y="259" on="1"/>
        <pt x="472" y="559" on="1"/>
        <pt x="461" y="563" on="0"/>
        <pt x="437" y="568" on="0"/>
        <pt x="423" y="568" on="1"/>
        <pt x="372" y="568" on="0"/>
        <pt x="289" y="519" on="0"/>
        <pt x="232" y="443" on="0"/>
        <pt x="201" y="349" on="0"/>
      </contour>
    </TTGlyph>
    <TTGlyph name="Oslashacute" xMin="-28" yMin="-6" xMax="781" yMax="916">
      <contour>
        <pt x="781" y="710" on="1"/>
        <pt x="676" y="592" on="1"/>
        <pt x="699" y="554" on="0"/>
        <pt x="723" y="465" on="0"/>
        <pt x="723" y="417" on="1"/>
        <pt x="723" y="337" on="0"/>
        <pt x="654" y="185" on="0"/>
        <pt x="537" y="66" on="0"/>
        <pt x="385" y="-6" on="0"/>
        <pt x="301" y="-6" on="1"/>
        <pt x="263" y="-6" on="0"/>
        <pt x="199" y="11" on="0"/>
        <pt x="171" y="26" on="1"/>
        <pt x="148" y="0" on="1"/>
        <pt x="-28" y="0" on="1"/>
        <pt x="78" y="119" on="1"/>
        <pt x="55" y="156" on="0"/>
        <pt x="33" y="243" on="0"/>
        <pt x="33" y="291" on="1"/>
        <pt x="33" y="345" on="0"/>
        <pt x="65" y="449" on="0"/>
        <pt x="122" y="543" on="0"/>
        <pt x="200" y="623" on="0"/>
        <pt x="295" y="681" on="0"/>
        <pt x="401" y="714" on="0"/>
        <pt x="457" y="714" on="1"/>
        <pt x="492" y="714" on="0"/>
        <pt x="555" y="697" on="0"/>
        <pt x="581" y="683" on="1"/>
        <pt x="605" y="710" on="1"/>
      </contour>
      <contour>
        <pt x="333" y="140" on="1"/>
        <pt x="385" y="140" on="0"/>
        <pt x="467" y="190" on="0"/>
        <pt x="524" y="267" on="0"/>
        <pt x="555" y="361" on="0"/>
        <pt x="555" y="406" on="1"/>
        <pt x="555" y="432" on="0"/>
        <pt x="551" y="452" on="1"/>
        <pt x="281" y="150" on="1"/>
        <pt x="302" y="140" on="0"/>
      </contour>
      <contour>
        <pt x="201" y="304" on="1"/>
        <pt x="201" y="282" on="0"/>
        <pt x="204" y="261" on="1"/>
        <pt x="471" y="559" on="1"/>
        <pt x="450" y="568" on="0"/>
        <pt x="423" y="568" on="1"/>
        <pt x="372" y="568" on="0"/>
        <pt x="289" y="519" on="0"/>
        <pt x="232" y="443" on="0"/>
        <pt x="201" y="349" on="0"/>
      </contour>
      <contour>
        <pt x="508" y="772" on="1"/>
        <pt x="402" y="786" on="1"/>
        <pt x="479" y="916" on="1"/>
        <pt x="623" y="916" on="1"/>
      </contour>
    </TTGlyph>
    <TTGlyph name="Otilde" xMin="33" yMin="-6" xMax="723" yMax="916">
      <contour>
        <pt x="301" y="-6" on="1"/>
        <pt x="236" y="-6" on="0"/>
        <pt x="136" y="43" on="0"/>
        <pt x="68" y="126" on="0"/>
        <pt x="33" y="233" on="0"/>
        <pt x="33" y="291" on="1"/>
        <pt x="33" y="345" on="0"/>
        <pt x="65" y="449" on="0"/>
        <pt x="122" y="543" on="0"/>
        <pt x="200" y="623" on="0"/>
        <pt x="295" y="681" on="0"/>
        <pt x="401" y="714" on="0"/>
        <pt x="457" y="714" on="1"/>
        <pt x="521" y="714" on="0"/>
        <pt x="621" y="664" on="0"/>
        <pt x="688" y="582" on="0"/>
        <pt x="723" y="474" on="0"/>
        <pt x="723" y="417" on="1"/>
        <pt x="723" y="337" on="0"/>
        <pt x="654" y="185" on="0"/>
        <pt x="537" y="66" on="0"/>
        <pt x="385" y="-6" on="0"/>
      </contour>
      <contour>
        <pt x="333" y="140" on="1"/>
        <pt x="385" y="140" on="0"/>
        <pt x="467" y="190" on="0"/>
        <pt x="524" y="267" on="0"/>
        <pt x="555" y="361" on="0"/>
        <pt x="555" y="406" on="1"/>
        <pt x="555" y="439" on="0"/>
        <pt x="539" y="497" on="0"/>
        <pt x="507" y="542" on="0"/>
        <pt x="457" y="568" on="0"/>
        <pt x="423" y="568" on="1"/>
        <pt x="372" y="568" on="0"/>
        <pt x="289" y="519" on="0"/>
        <pt x="232" y="443" on="0"/>
        <pt x="201" y="349" on="0"/>
        <pt x="201" y="304" on="1"/>
        <pt x="201" y="271" on="0"/>
        <pt x="217" y="212" on="0"/>
        <pt x="249" y="167" on="0"/>
        <pt x="299" y="140" on="0"/>
      </contour>
      <contour>
        <pt x="535" y="774" on="1"/>
        <pt x="513" y="774" on="0"/>
        <pt x="483" y="788" on="0"/>
        <pt x="458" y="806" on="0"/>
        <pt x="434" y="820" on="0"/>
        <pt x="418" y="820" on="1"/>
        <pt x="402" y="820" on="0"/>
        <pt x="381" y="806" on="0"/>
        <pt x="369" y="788" on="0"/>
        <pt x="364" y="773" on="0"/>
        <pt x="364" y="772" on="1"/>
        <pt x="277" y="772" on="1"/>
        <pt x="279" y="783" on="0"/>
        <pt x="302" y="830" on="0"/>
        <pt x="342" y="878" on="0"/>
        <pt x="397" y="914" on="0"/>
        <pt x="431" y="914" on="1"/>
        <pt x="454" y="914" on="0"/>
        <pt x="484" y="899" on="0"/>
        <pt x="508" y="881" on="0"/>
        <pt x="531" y="866" on="0"/>
        <pt x="548" y="866" on="1"/>
        <pt x="564" y="866" on="0"/>
        <pt x="587" y="881" on="0"/>
        <pt x="601" y="899" on="0"/>
        <pt x="608" y="915" on="0"/>
        <pt x="608" y="916" on="1"/>
        <pt x="693" y="916" on="1"/>
        <pt x="691" y="908" on="0"/>
        <pt x="668" y="862" on="0"/>
        <pt x="627" y="812" on="0"/>
        <pt x="570" y="774" on="0"/>
      </contour>
    </TTGlyph>
    <TTGlyph name="P" xMin="4" yMin="0" xMax="620" yMax="710">
      <contour>
        <pt x="155" y="710" on="1"/>
        <pt x="444" y="710" on="1"/>
        <pt x="485" y="710" on="0"/>
        <pt x="551" y="676" on="0"/>
        <pt x="596" y="620" on="0"/>
        <pt x="620" y="548" on="0"/>
        <pt x="620" y="510" on="1"/>
        <pt x="620" y="459" on="0"/>
        <pt x="576" y="358" on="0"/>
        <pt x="501" y="279" on="0"/>
        <pt x="402" y="229" on="0"/>
        <pt x="346" y="229" on="1"/>
        <pt x="216" y="229" on="1"/>
        <pt x="168" y="0" on="1"/>
        <pt x="4" y="0" on="1"/>
      </contour>
      <contour>
        <pt x="366" y="372" on="1"/>
        <pt x="381" y="372" on="0"/>
        <pt x="412" y="389" on="0"/>
        <pt x="437" y="422" on="0"/>
        <pt x="452" y="467" on="0"/>
        <pt x="452" y="496" on="1"/>
        <pt x="452" y="532" on="0"/>
        <pt x="422" y="566" on="0"/>
        <pt x="402" y="566" on="1"/>
        <pt x="288" y="566" on="1"/>
        <pt x="247" y="372" on="1"/>
      </contour>
    </TTGlyph>
    <TTGlyph name="P.sc" xMin="-2" yMin="0" xMax="534" yMax="563">
      <contour>
        <pt x="118" y="563" on="1"/>
        <pt x="374" y="563" on="1"/>
        <pt x="411" y="563" on="0"/>
        <pt x="471" y="535" on="0"/>
        <pt x="512" y="490" on="0"/>
        <pt x="534" y="431" on="0"/>
        <pt x="534" y="400" on="1"/>
        <pt x="534" y="359" on="0"/>
        <pt x="496" y="279" on="0"/>
        <pt x="432" y="215" on="0"/>
        <pt x="345" y="176" on="0"/>
        <pt x="296" y="176" on="1"/>
        <pt x="179" y="176" on="1"/>
        <pt x="141" y="0" on="1"/>
        <pt x="-2" y="0" on="1"/>
      </contour>
      <contour>
        <pt x="314" y="302" on="1"/>
        <pt x="341" y="302" on="0"/>
        <pt x="387" y="343" on="0"/>
        <pt x="387" y="386" on="1"/>
        <pt x="387" y="414" on="0"/>
        <pt x="358" y="438" on="0"/>
        <pt x="339" y="438" on="1"/>
        <pt x="234" y="438" on="1"/>
        <pt x="205" y="302" on="1"/>
      </contour>
    </TTGlyph>
    <TTGlyph name="Q" xMin="32" yMin="-5" xMax="722" yMax="715">
      <contour>
        <pt x="472" y="36" on="1"/>
        <pt x="432" y="16" on="0"/>
        <pt x="345" y="-5" on="0"/>
        <pt x="300" y="-5" on="1"/>
        <pt x="235" y="-5" on="0"/>
        <pt x="136" y="44" on="0"/>
        <pt x="67" y="126" on="0"/>
        <pt x="32" y="233" on="0"/>
        <pt x="32" y="291" on="1"/>
        <pt x="32" y="372" on="0"/>
        <pt x="102" y="524" on="0"/>
        <pt x="219" y="643" on="0"/>
        <pt x="372" y="715" on="0"/>
        <pt x="456" y="715" on="1"/>
        <pt x="521" y="715" on="0"/>
        <pt x="620" y="665" on="0"/>
        <pt x="688" y="582" on="0"/>
        <pt x="722" y="474" on="0"/>
        <pt x="722" y="417" on="1"/>
        <pt x="722" y="331" on="0"/>
        <pt x="644" y="170" on="0"/>
        <pt x="578" y="110" on="1"/>
        <pt x="652" y="0" on="1"/>
        <pt x="497" y="0" on="1"/>
      </contour>
      <contour>
        <pt x="333" y="141" on="1"/>
        <pt x="365" y="141" on="0"/>
        <pt x="396" y="152" on="1"/>
        <pt x="311" y="280" on="1"/>
        <pt x="464" y="280" on="1"/>
        <pt x="497" y="230" on="1"/>
        <pt x="525" y="268" on="0"/>
        <pt x="555" y="361" on="0"/>
        <pt x="555" y="406" on="1"/>
        <pt x="555" y="439" on="0"/>
        <pt x="539" y="498" on="0"/>
        <pt x="506" y="543" on="0"/>
        <pt x="457" y="569" on="0"/>
        <pt x="423" y="569" on="1"/>
        <pt x="372" y="569" on="0"/>
        <pt x="289" y="520" on="0"/>
        <pt x="231" y="443" on="0"/>
        <pt x="200" y="349" on="0"/>
        <pt x="200" y="304" on="1"/>
        <pt x="200" y="272" on="0"/>
        <pt x="216" y="213" on="0"/>
        <pt x="249" y="168" on="0"/>
        <pt x="299" y="141" on="0"/>
      </contour>
    </TTGlyph>
    <TTGlyph name="Q.sc" xMin="18" yMin="-4" xMax="603" yMax="567">
      <contour>
        <pt x="402" y="32" on="1"/>
        <pt x="367" y="15" on="0"/>
        <pt x="290" y="-4" on="0"/>
        <pt x="249" y="-4" on="1"/>
        <pt x="194" y="-4" on="0"/>
        <pt x="108" y="35" on="0"/>
        <pt x="49" y="101" on="0"/>
        <pt x="18" y="187" on="0"/>
        <pt x="18" y="234" on="1"/>
        <pt x="18" y="297" on="0"/>
        <pt x="76" y="417" on="0"/>
        <pt x="174" y="510" on="0"/>
        <pt x="303" y="567" on="0"/>
        <pt x="373" y="567" on="1"/>
        <pt x="429" y="567" on="0"/>
        <pt x="515" y="527" on="0"/>
        <pt x="573" y="460" on="0"/>
        <pt x="603" y="373" on="0"/>
        <pt x="603" y="327" on="1"/>
        <pt x="603" y="262" on="0"/>
        <pt x="543" y="141" on="0"/>
        <pt x="492" y="94" on="1"/>
        <pt x="561" y="0" on="1"/>
        <pt x="426" y="0" on="1"/>
      </contour>
      <contour>
        <pt x="279" y="124" on="1"/>
        <pt x="305" y="124" on="0"/>
        <pt x="329" y="132" on="1"/>
        <pt x="257" y="231" on="1"/>
        <pt x="392" y="231" on="1"/>
        <pt x="416" y="197" on="1"/>
        <pt x="436" y="223" on="0"/>
        <pt x="456" y="285" on="0"/>
        <pt x="456" y="315" on="1"/>
        <pt x="456" y="340" on="0"/>
        <pt x="442" y="385" on="0"/>
        <pt x="415" y="419" on="0"/>
        <pt x="373" y="439" on="0"/>
        <pt x="345" y="439" on="1"/>
        <pt x="304" y="439" on="0"/>
        <pt x="237" y="404" on="0"/>
        <pt x="191" y="349" on="0"/>
        <pt x="166" y="281" on="0"/>
        <pt x="166" y="248" on="1"/>
        <pt x="166" y="223" on="0"/>
        <pt x="180" y="178" on="0"/>
        <pt x="208" y="144" on="0"/>
        <pt x="250" y="124" on="0"/>
      </contour>
    </TTGlyph>
    <TTGlyph name="R" xMin="4" yMin="0" xMax="636" yMax="710">
      <contour>
        <pt x="4" y="0" on="1"/>
        <pt x="155" y="710" on="1"/>
        <pt x="460" y="710" on="1"/>
        <pt x="502" y="710" on="0"/>
        <pt x="567" y="676" on="0"/>
        <pt x="612" y="620" on="0"/>
        <pt x="636" y="548" on="0"/>
        <pt x="636" y="510" on="1"/>
        <pt x="636" y="473" on="0"/>
        <pt x="613" y="401" on="0"/>
        <pt x="572" y="336" on="0"/>
        <pt x="515" y="282" on="0"/>
        <pt x="481" y="264" on="1"/>
        <pt x="572" y="0" on="1"/>
        <pt x="387" y="0" on="1"/>
        <pt x="309" y="229" on="1"/>
        <pt x="216" y="229" on="1"/>
        <pt x="168" y="0" on="1"/>
      </contour>
      <contour>
        <pt x="383" y="372" on="1"/>
        <pt x="398" y="372" on="0"/>
        <pt x="428" y="391" on="0"/>
        <pt x="452" y="424" on="0"/>
        <pt x="467" y="468" on="0"/>
        <pt x="467" y="493" on="1"/>
        <pt x="467" y="526" on="0"/>
        <pt x="439" y="566" on="0"/>
        <pt x="419" y="566" on="1"/>
        <pt x="288" y="566" on="1"/>
        <pt x="247" y="372" on="1"/>
      </contour>
    </TTGlyph>
    <TTGlyph name="R.sc" xMin="-2" yMin="0" xMax="549" yMax="563">
      <contour>
        <pt x="118" y="563" on="1"/>
        <pt x="388" y="563" on="1"/>
        <pt x="426" y="563" on="0"/>
        <pt x="486" y="535" on="0"/>
        <pt x="527" y="490" on="0"/>
        <pt x="549" y="431" on="0"/>
        <pt x="549" y="400" on="1"/>
        <pt x="549" y="341" on="0"/>
        <pt x="475" y="238" on="0"/>
        <pt x="415" y="208" on="1"/>
        <pt x="509" y="0" on="1"/>
        <pt x="345" y="0" on="1"/>
        <pt x="264" y="176" on="1"/>
        <pt x="179" y="176" on="1"/>
        <pt x="141" y="0" on="1"/>
        <pt x="-2" y="0" on="1"/>
      </contour>
      <contour>
        <pt x="329" y="302" on="1"/>
        <pt x="342" y="302" on="0"/>
        <pt x="368" y="314" on="0"/>
        <pt x="388" y="336" on="0"/>
        <pt x="401" y="366" on="0"/>
        <pt x="401" y="384" on="1"/>
        <pt x="401" y="409" on="0"/>
        <pt x="373" y="438" on="0"/>
        <pt x="353" y="438" on="1"/>
        <pt x="234" y="438" on="1"/>
        <pt x="205" y="302" on="1"/>
      </contour>
    </TTGlyph>
    <TTGlyph name="Racute" xMin="4" yMin="0" xMax="636" yMax="918">
      <contour>
        <pt x="451" y="774" on="1"/>
        <pt x="345" y="788" on="1"/>
        <pt x="422" y="918" on="1"/>
        <pt x="566" y="918" on="1"/>
      </contour>
      <contour>
        <pt x="4" y="0" on="1"/>
        <pt x="155" y="710" on="1"/>
        <pt x="460" y="710" on="1"/>
        <pt x="502" y="710" on="0"/>
        <pt x="567" y="676" on="0"/>
        <pt x="612" y="620" on="0"/>
        <pt x="636" y="548" on="0"/>
        <pt x="636" y="510" on="1"/>
        <pt x="636" y="473" on="0"/>
        <pt x="613" y="401" on="0"/>
        <pt x="572" y="336" on="0"/>
        <pt x="515" y="282" on="0"/>
        <pt x="481" y="264" on="1"/>
        <pt x="572" y="0" on="1"/>
        <pt x="387" y="0" on="1"/>
        <pt x="309" y="229" on="1"/>
        <pt x="216" y="229" on="1"/>
        <pt x="168" y="0" on="1"/>
      </contour>
      <contour>
        <pt x="383" y="372" on="1"/>
        <pt x="398" y="372" on="0"/>
        <pt x="428" y="391" on="0"/>
        <pt x="452" y="424" on="0"/>
        <pt x="467" y="468" on="0"/>
        <pt x="467" y="493" on="1"/>
        <pt x="467" y="526" on="0"/>
        <pt x="439" y="566" on="0"/>
        <pt x="419" y="566" on="1"/>
        <pt x="288" y="566" on="1"/>
        <pt x="247" y="372" on="1"/>
      </contour>
    </TTGlyph>
    <TTGlyph name="Rcaron" xMin="4" yMin="0" xMax="636" yMax="918">
      <contour>
        <pt x="269" y="881" on="1"/>
        <pt x="358" y="918" on="1"/>
        <pt x="425" y="855" on="1"/>
        <pt x="519" y="918" on="1"/>
        <pt x="594" y="881" on="1"/>
        <pt x="466" y="774" on="1"/>
        <pt x="351" y="774" on="1"/>
      </contour>
      <contour>
        <pt x="4" y="0" on="1"/>
        <pt x="155" y="710" on="1"/>
        <pt x="460" y="710" on="1"/>
        <pt x="502" y="710" on="0"/>
        <pt x="567" y="676" on="0"/>
        <pt x="612" y="620" on="0"/>
        <pt x="636" y="548" on="0"/>
        <pt x="636" y="510" on="1"/>
        <pt x="636" y="473" on="0"/>
        <pt x="613" y="401" on="0"/>
        <pt x="572" y="336" on="0"/>
        <pt x="515" y="282" on="0"/>
        <pt x="481" y="264" on="1"/>
        <pt x="572" y="0" on="1"/>
        <pt x="387" y="0" on="1"/>
        <pt x="309" y="229" on="1"/>
        <pt x="216" y="229" on="1"/>
        <pt x="168" y="0" on="1"/>
      </contour>
      <contour>
        <pt x="383" y="372" on="1"/>
        <pt x="398" y="372" on="0"/>
        <pt x="428" y="391" on="0"/>
        <pt x="452" y="424" on="0"/>
        <pt x="467" y="468" on="0"/>
        <pt x="467" y="493" on="1"/>
        <pt x="467" y="526" on="0"/>
        <pt x="439" y="566" on="0"/>
        <pt x="419" y="566" on="1"/>
        <pt x="288" y="566" on="1"/>
        <pt x="247" y="372" on="1"/>
      </contour>
    </TTGlyph>
    <TTGlyph name="Rcommaaccent" xMin="4" yMin="-213" xMax="636" yMax="710">
      <contour>
        <pt x="168" y="-213" on="1"/>
        <pt x="213" y="-146" on="1"/>
        <pt x="166" y="-146" on="1"/>
        <pt x="187" y="-47" on="1"/>
        <pt x="320" y="-47" on="1"/>
        <pt x="299" y="-146" on="1"/>
        <pt x="238" y="-213" on="1"/>
      </contour>
      <contour>
        <pt x="4" y="0" on="1"/>
        <pt x="155" y="710" on="1"/>
        <pt x="460" y="710" on="1"/>
        <pt x="502" y="710" on="0"/>
        <pt x="567" y="676" on="0"/>
        <pt x="612" y="620" on="0"/>
        <pt x="636" y="548" on="0"/>
        <pt x="636" y="510" on="1"/>
        <pt x="636" y="473" on="0"/>
        <pt x="613" y="401" on="0"/>
        <pt x="572" y="336" on="0"/>
        <pt x="515" y="282" on="0"/>
        <pt x="481" y="264" on="1"/>
        <pt x="572" y="0" on="1"/>
        <pt x="387" y="0" on="1"/>
        <pt x="309" y="229" on="1"/>
        <pt x="216" y="229" on="1"/>
        <pt x="168" y="0" on="1"/>
      </contour>
      <contour>
        <pt x="383" y="372" on="1"/>
        <pt x="398" y="372" on="0"/>
        <pt x="428" y="391" on="0"/>
        <pt x="452" y="424" on="0"/>
        <pt x="467" y="468" on="0"/>
        <pt x="467" y="493" on="1"/>
        <pt x="467" y="526" on="0"/>
        <pt x="439" y="566" on="0"/>
        <pt x="419" y="566" on="1"/>
        <pt x="288" y="566" on="1"/>
        <pt x="247" y="372" on="1"/>
      </contour>
    </TTGlyph>
    <TTGlyph name="Rdblgrave" xMin="4" yMin="0" xMax="636" yMax="918">
      <contour>
        <pt x="421" y="918" on="1"/>
        <pt x="539" y="918" on="1"/>
        <pt x="553" y="788" on="1"/>
        <pt x="468" y="772" on="1"/>
      </contour>
      <contour>
        <pt x="251" y="918" on="1"/>
        <pt x="370" y="918" on="1"/>
        <pt x="383" y="788" on="1"/>
        <pt x="298" y="772" on="1"/>
      </contour>
      <contour>
        <pt x="4" y="0" on="1"/>
        <pt x="155" y="710" on="1"/>
        <pt x="460" y="710" on="1"/>
        <pt x="502" y="710" on="0"/>
        <pt x="567" y="676" on="0"/>
        <pt x="612" y="620" on="0"/>
        <pt x="636" y="548" on="0"/>
        <pt x="636" y="510" on="1"/>
        <pt x="636" y="473" on="0"/>
        <pt x="613" y="401" on="0"/>
        <pt x="572" y="336" on="0"/>
        <pt x="515" y="282" on="0"/>
        <pt x="481" y="264" on="1"/>
        <pt x="572" y="0" on="1"/>
        <pt x="387" y="0" on="1"/>
        <pt x="309" y="229" on="1"/>
        <pt x="216" y="229" on="1"/>
        <pt x="168" y="0" on="1"/>
      </contour>
      <contour>
        <pt x="383" y="372" on="1"/>
        <pt x="398" y="372" on="0"/>
        <pt x="428" y="391" on="0"/>
        <pt x="452" y="424" on="0"/>
        <pt x="467" y="468" on="0"/>
        <pt x="467" y="493" on="1"/>
        <pt x="467" y="526" on="0"/>
        <pt x="439" y="566" on="0"/>
        <pt x="419" y="566" on="1"/>
        <pt x="288" y="566" on="1"/>
        <pt x="247" y="372" on="1"/>
      </contour>
    </TTGlyph>
    <TTGlyph name="Rdotbelow" xMin="4" yMin="-204" xMax="636" yMax="710">
      <contour>
        <pt x="4" y="0" on="1"/>
        <pt x="155" y="710" on="1"/>
        <pt x="460" y="710" on="1"/>
        <pt x="502" y="710" on="0"/>
        <pt x="567" y="676" on="0"/>
        <pt x="612" y="620" on="0"/>
        <pt x="636" y="548" on="0"/>
        <pt x="636" y="510" on="1"/>
        <pt x="636" y="473" on="0"/>
        <pt x="613" y="401" on="0"/>
        <pt x="572" y="336" on="0"/>
        <pt x="515" y="282" on="0"/>
        <pt x="481" y="264" on="1"/>
        <pt x="572" y="0" on="1"/>
        <pt x="387" y="0" on="1"/>
        <pt x="309" y="229" on="1"/>
        <pt x="216" y="229" on="1"/>
        <pt x="168" y="0" on="1"/>
      </contour>
      <contour>
        <pt x="383" y="372" on="1"/>
        <pt x="398" y="372" on="0"/>
        <pt x="428" y="391" on="0"/>
        <pt x="452" y="424" on="0"/>
        <pt x="467" y="468" on="0"/>
        <pt x="467" y="493" on="1"/>
        <pt x="467" y="526" on="0"/>
        <pt x="439" y="566" on="0"/>
        <pt x="419" y="566" on="1"/>
        <pt x="288" y="566" on="1"/>
        <pt x="247" y="372" on="1"/>
      </contour>
      <contour>
        <pt x="149" y="-204" on="1"/>
        <pt x="178" y="-67" on="1"/>
        <pt x="322" y="-67" on="1"/>
        <pt x="293" y="-204" on="1"/>
      </contour>
    </TTGlyph>
    <TTGlyph name="Rinvertedbreve" xMin="4" yMin="0" xMax="636" yMax="916">
      <contour>
        <pt x="275" y="769" on="1"/>
        <pt x="282" y="801" on="0"/>
        <pt x="314" y="855" on="0"/>
        <pt x="360" y="894" on="0"/>
        <pt x="416" y="916" on="0"/>
        <pt x="447" y="916" on="1"/>
        <pt x="501" y="916" on="0"/>
        <pt x="560" y="850" on="0"/>
        <pt x="560" y="802" on="1"/>
        <pt x="560" y="787" on="0"/>
        <pt x="557" y="769" on="1"/>
        <pt x="473" y="769" on="1"/>
        <pt x="476" y="785" on="0"/>
        <pt x="476" y="799" on="1"/>
        <pt x="476" y="846" on="0"/>
        <pt x="432" y="846" on="1"/>
        <pt x="406" y="846" on="0"/>
        <pt x="366" y="811" on="0"/>
        <pt x="358" y="769" on="1"/>
      </contour>
      <contour>
        <pt x="4" y="0" on="1"/>
        <pt x="155" y="710" on="1"/>
        <pt x="460" y="710" on="1"/>
        <pt x="502" y="710" on="0"/>
        <pt x="567" y="676" on="0"/>
        <pt x="612" y="620" on="0"/>
        <pt x="636" y="548" on="0"/>
        <pt x="636" y="510" on="1"/>
        <pt x="636" y="473" on="0"/>
        <pt x="613" y="401" on="0"/>
        <pt x="572" y="336" on="0"/>
        <pt x="515" y="282" on="0"/>
        <pt x="481" y="264" on="1"/>
        <pt x="572" y="0" on="1"/>
        <pt x="387" y="0" on="1"/>
        <pt x="309" y="229" on="1"/>
        <pt x="216" y="229" on="1"/>
        <pt x="168" y="0" on="1"/>
      </contour>
      <contour>
        <pt x="383" y="372" on="1"/>
        <pt x="398" y="372" on="0"/>
        <pt x="428" y="391" on="0"/>
        <pt x="452" y="424" on="0"/>
        <pt x="467" y="468" on="0"/>
        <pt x="467" y="493" on="1"/>
        <pt x="467" y="526" on="0"/>
        <pt x="439" y="566" on="0"/>
        <pt x="419" y="566" on="1"/>
        <pt x="288" y="566" on="1"/>
        <pt x="247" y="372" on="1"/>
      </contour>
    </TTGlyph>
    <TTGlyph name="S" xMin="-27" yMin="-8" xMax="616" yMax="716">
      <contour>
        <pt x="244" y="-8" on="1"/>
        <pt x="169" y="-8" on="0"/>
        <pt x="25" y="38" on="0"/>
        <pt x="-27" y="80" on="1"/>
        <pt x="75" y="223" on="1"/>
        <pt x="77" y="218" on="0"/>
        <pt x="112" y="190" on="0"/>
        <pt x="167" y="162" on="0"/>
        <pt x="239" y="140" on="0"/>
        <pt x="278" y="140" on="1"/>
        <pt x="326" y="140" on="0"/>
        <pt x="366" y="175" on="0"/>
        <pt x="366" y="203" on="1"/>
        <pt x="366" y="220" on="0"/>
        <pt x="344" y="243" on="0"/>
        <pt x="305" y="262" on="0"/>
        <pt x="254" y="279" on="0"/>
        <pt x="225" y="289" on="1"/>
        <pt x="153" y="315" on="0"/>
        <pt x="82" y="385" on="0"/>
        <pt x="82" y="444" on="1"/>
        <pt x="82" y="508" on="0"/>
        <pt x="134" y="610" on="0"/>
        <pt x="219" y="679" on="0"/>
        <pt x="329" y="716" on="0"/>
        <pt x="387" y="716" on="1"/>
        <pt x="423" y="716" on="0"/>
        <pt x="489" y="702" on="0"/>
        <pt x="547" y="680" on="0"/>
        <pt x="596" y="652" on="0"/>
        <pt x="616" y="638" on="1"/>
        <pt x="516" y="502" on="1"/>
        <pt x="514" y="506" on="0"/>
        <pt x="485" y="528" on="0"/>
        <pt x="439" y="552" on="0"/>
        <pt x="381" y="570" on="0"/>
        <pt x="351" y="570" on="1"/>
        <pt x="309" y="570" on="0"/>
        <pt x="262" y="533" on="0"/>
        <pt x="262" y="500" on="1"/>
        <pt x="262" y="471" on="0"/>
        <pt x="324" y="442" on="0"/>
        <pt x="381" y="424" on="1"/>
        <pt x="419" y="412" on="0"/>
        <pt x="482" y="383" on="0"/>
        <pt x="527" y="343" on="0"/>
        <pt x="551" y="289" on="0"/>
        <pt x="551" y="252" on="1"/>
        <pt x="551" y="181" on="0"/>
        <pt x="497" y="82" on="0"/>
        <pt x="409" y="20" on="0"/>
        <pt x="299" y="-8" on="0"/>
      </contour>
    </TTGlyph>
    <TTGlyph name="S.sc" xMin="-30" yMin="-7" xMax="515" yMax="568">
      <contour>
        <pt x="205" y="-7" on="1"/>
        <pt x="141" y="-7" on="0"/>
        <pt x="15" y="30" on="0"/>
        <pt x="-30" y="61" on="1"/>
        <pt x="60" y="186" on="1"/>
        <pt x="64" y="178" on="0"/>
        <pt x="95" y="157" on="0"/>
        <pt x="142" y="136" on="0"/>
        <pt x="202" y="122" on="0"/>
        <pt x="235" y="122" on="1"/>
        <pt x="270" y="122" on="0"/>
        <pt x="303" y="144" on="0"/>
        <pt x="303" y="162" on="1"/>
        <pt x="303" y="174" on="0"/>
        <pt x="284" y="190" on="0"/>
        <pt x="251" y="203" on="0"/>
        <pt x="208" y="216" on="0"/>
        <pt x="183" y="224" on="1"/>
        <pt x="120" y="244" on="0"/>
        <pt x="59" y="304" on="0"/>
        <pt x="59" y="353" on="1"/>
        <pt x="59" y="404" on="0"/>
        <pt x="103" y="484" on="0"/>
        <pt x="175" y="539" on="0"/>
        <pt x="268" y="568" on="0"/>
        <pt x="318" y="568" on="1"/>
        <pt x="380" y="568" on="0"/>
        <pt x="481" y="528" on="0"/>
        <pt x="515" y="506" on="1"/>
        <pt x="428" y="387" on="1"/>
        <pt x="424" y="392" on="0"/>
        <pt x="398" y="410" on="0"/>
        <pt x="359" y="427" on="0"/>
        <pt x="311" y="440" on="0"/>
        <pt x="286" y="440" on="1"/>
        <pt x="216" y="440" on="0"/>
        <pt x="216" y="398" on="1"/>
        <pt x="216" y="377" on="0"/>
        <pt x="271" y="355" on="0"/>
        <pt x="319" y="341" on="1"/>
        <pt x="352" y="332" on="0"/>
        <pt x="406" y="308" on="0"/>
        <pt x="444" y="276" on="0"/>
        <pt x="465" y="232" on="0"/>
        <pt x="465" y="202" on="1"/>
        <pt x="465" y="144" on="0"/>
        <pt x="419" y="64" on="0"/>
        <pt x="345" y="15" on="0"/>
        <pt x="252" y="-7" on="0"/>
      </contour>
    </TTGlyph>
    <TTGlyph name="Sacute" xMin="-27" yMin="-8" xMax="616" yMax="930">
      <contour>
        <pt x="442" y="786" on="1"/>
        <pt x="336" y="800" on="1"/>
        <pt x="413" y="930" on="1"/>
        <pt x="557" y="930" on="1"/>
      </contour>
      <contour>
        <pt x="244" y="-8" on="1"/>
        <pt x="169" y="-8" on="0"/>
        <pt x="25" y="38" on="0"/>
        <pt x="-27" y="80" on="1"/>
        <pt x="75" y="223" on="1"/>
        <pt x="77" y="218" on="0"/>
        <pt x="112" y="190" on="0"/>
        <pt x="167" y="162" on="0"/>
        <pt x="239" y="140" on="0"/>
        <pt x="278" y="140" on="1"/>
        <pt x="326" y="140" on="0"/>
        <pt x="366" y="175" on="0"/>
        <pt x="366" y="203" on="1"/>
        <pt x="366" y="220" on="0"/>
        <pt x="344" y="243" on="0"/>
        <pt x="305" y="262" on="0"/>
        <pt x="254" y="279" on="0"/>
        <pt x="225" y="289" on="1"/>
        <pt x="153" y="315" on="0"/>
        <pt x="82" y="385" on="0"/>
        <pt x="82" y="444" on="1"/>
        <pt x="82" y="508" on="0"/>
        <pt x="134" y="610" on="0"/>
        <pt x="219" y="679" on="0"/>
        <pt x="329" y="716" on="0"/>
        <pt x="387" y="716" on="1"/>
        <pt x="423" y="716" on="0"/>
        <pt x="489" y="702" on="0"/>
        <pt x="547" y="680" on="0"/>
        <pt x="596" y="652" on="0"/>
        <pt x="616" y="638" on="1"/>
        <pt x="516" y="502" on="1"/>
        <pt x="514" y="506" on="0"/>
        <pt x="485" y="528" on="0"/>
        <pt x="439" y="552" on="0"/>
        <pt x="381" y="570" on="0"/>
        <pt x="351" y="570" on="1"/>
        <pt x="309" y="570" on="0"/>
        <pt x="262" y="533" on="0"/>
        <pt x="262" y="500" on="1"/>
        <pt x="262" y="471" on="0"/>
        <pt x="324" y="442" on="0"/>
        <pt x="381" y="424" on="1"/>
        <pt x="419" y="412" on="0"/>
        <pt x="482" y="383" on="0"/>
        <pt x="527" y="343" on="0"/>
        <pt x="551" y="289" on="0"/>
        <pt x="551" y="252" on="1"/>
        <pt x="551" y="181" on="0"/>
        <pt x="497" y="82" on="0"/>
        <pt x="409" y="20" on="0"/>
        <pt x="299" y="-8" on="0"/>
      </contour>
    </TTGlyph>
    <TTGlyph name="Scaron" xMin="-27" yMin="-8" xMax="616" yMax="930">
      <contour>
        <pt x="263" y="893" on="1"/>
        <pt x="352" y="930" on="1"/>
        <pt x="419" y="867" on="1"/>
        <pt x="513" y="930" on="1"/>
        <pt x="588" y="893" on="1"/>
        <pt x="460" y="786" on="1"/>
        <pt x="345" y="786" on="1"/>
      </contour>
      <contour>
        <pt x="244" y="-8" on="1"/>
        <pt x="169" y="-8" on="0"/>
        <pt x="25" y="38" on="0"/>
        <pt x="-27" y="80" on="1"/>
        <pt x="75" y="223" on="1"/>
        <pt x="77" y="218" on="0"/>
        <pt x="112" y="190" on="0"/>
        <pt x="167" y="162" on="0"/>
        <pt x="239" y="140" on="0"/>
        <pt x="278" y="140" on="1"/>
        <pt x="326" y="140" on="0"/>
        <pt x="366" y="175" on="0"/>
        <pt x="366" y="203" on="1"/>
        <pt x="366" y="220" on="0"/>
        <pt x="344" y="243" on="0"/>
        <pt x="305" y="262" on="0"/>
        <pt x="254" y="279" on="0"/>
        <pt x="225" y="289" on="1"/>
        <pt x="153" y="315" on="0"/>
        <pt x="82" y="385" on="0"/>
        <pt x="82" y="444" on="1"/>
        <pt x="82" y="508" on="0"/>
        <pt x="134" y="610" on="0"/>
        <pt x="219" y="679" on="0"/>
        <pt x="329" y="716" on="0"/>
        <pt x="387" y="716" on="1"/>
        <pt x="423" y="716" on="0"/>
        <pt x="489" y="702" on="0"/>
        <pt x="547" y="680" on="0"/>
        <pt x="596" y="652" on="0"/>
        <pt x="616" y="638" on="1"/>
        <pt x="516" y="502" on="1"/>
        <pt x="514" y="506" on="0"/>
        <pt x="485" y="528" on="0"/>
        <pt x="439" y="552" on="0"/>
        <pt x="381" y="570" on="0"/>
        <pt x="351" y="570" on="1"/>
        <pt x="309" y="570" on="0"/>
        <pt x="262" y="533" on="0"/>
        <pt x="262" y="500" on="1"/>
        <pt x="262" y="471" on="0"/>
        <pt x="324" y="442" on="0"/>
        <pt x="381" y="424" on="1"/>
        <pt x="419" y="412" on="0"/>
        <pt x="482" y="383" on="0"/>
        <pt x="527" y="343" on="0"/>
        <pt x="551" y="289" on="0"/>
        <pt x="551" y="252" on="1"/>
        <pt x="551" y="181" on="0"/>
        <pt x="497" y="82" on="0"/>
        <pt x="409" y="20" on="0"/>
        <pt x="299" y="-8" on="0"/>
      </contour>
    </TTGlyph>
    <TTGlyph name="Schwa" xMin="19" yMin="-5" xMax="715" yMax="714">
      <contour>
        <pt x="292" y="-5" on="1"/>
        <pt x="223" y="-5" on="0"/>
        <pt x="120" y="45" on="0"/>
        <pt x="53" y="127" on="0"/>
        <pt x="19" y="230" on="0"/>
        <pt x="19" y="283" on="1"/>
        <pt x="19" y="325" on="0"/>
        <pt x="36" y="386" on="0"/>
        <pt x="44" y="405" on="1"/>
        <pt x="537" y="405" on="1"/>
        <pt x="538" y="413" on="0"/>
        <pt x="539" y="427" on="0"/>
        <pt x="539" y="434" on="1"/>
        <pt x="539" y="500" on="0"/>
        <pt x="467" y="569" on="0"/>
        <pt x="414" y="569" on="1"/>
        <pt x="391" y="569" on="0"/>
        <pt x="345" y="556" on="0"/>
        <pt x="303" y="531" on="0"/>
        <pt x="268" y="496" on="0"/>
        <pt x="258" y="474" on="1"/>
        <pt x="99" y="526" on="1"/>
        <pt x="127" y="568" on="0"/>
        <pt x="202" y="638" on="0"/>
        <pt x="290" y="687" on="0"/>
        <pt x="391" y="714" on="0"/>
        <pt x="446" y="714" on="1"/>
        <pt x="513" y="714" on="0"/>
        <pt x="614" y="664" on="0"/>
        <pt x="681" y="583" on="0"/>
        <pt x="715" y="479" on="0"/>
        <pt x="715" y="424" on="1"/>
        <pt x="715" y="374" on="0"/>
        <pt x="687" y="271" on="0"/>
        <pt x="634" y="176" on="0"/>
        <pt x="558" y="92" on="0"/>
        <pt x="464" y="31" on="0"/>
        <pt x="354" y="-5" on="0"/>
      </contour>
      <contour>
        <pt x="325" y="139" on="1"/>
        <pt x="387" y="139" on="0"/>
        <pt x="486" y="216" on="0"/>
        <pt x="508" y="282" on="1"/>
        <pt x="193" y="282" on="1"/>
        <pt x="189" y="267" on="0"/>
        <pt x="189" y="251" on="1"/>
        <pt x="189" y="200" on="0"/>
        <pt x="264" y="139" on="0"/>
      </contour>
    </TTGlyph>
    <TTGlyph name="Scircumflex" xMin="-27" yMin="-8" xMax="616" yMax="930">
      <contour>
        <pt x="256" y="822" on="1"/>
        <pt x="384" y="930" on="1"/>
        <pt x="498" y="930" on="1"/>
        <pt x="580" y="822" on="1"/>
        <pt x="491" y="786" on="1"/>
        <pt x="424" y="849" on="1"/>
        <pt x="330" y="786" on="1"/>
      </contour>
      <contour>
        <pt x="244" y="-8" on="1"/>
        <pt x="169" y="-8" on="0"/>
        <pt x="25" y="38" on="0"/>
        <pt x="-27" y="80" on="1"/>
        <pt x="75" y="223" on="1"/>
        <pt x="77" y="218" on="0"/>
        <pt x="112" y="190" on="0"/>
        <pt x="167" y="162" on="0"/>
        <pt x="239" y="140" on="0"/>
        <pt x="278" y="140" on="1"/>
        <pt x="326" y="140" on="0"/>
        <pt x="366" y="175" on="0"/>
        <pt x="366" y="203" on="1"/>
        <pt x="366" y="220" on="0"/>
        <pt x="344" y="243" on="0"/>
        <pt x="305" y="262" on="0"/>
        <pt x="254" y="279" on="0"/>
        <pt x="225" y="289" on="1"/>
        <pt x="153" y="315" on="0"/>
        <pt x="82" y="385" on="0"/>
        <pt x="82" y="444" on="1"/>
        <pt x="82" y="508" on="0"/>
        <pt x="134" y="610" on="0"/>
        <pt x="219" y="679" on="0"/>
        <pt x="329" y="716" on="0"/>
        <pt x="387" y="716" on="1"/>
        <pt x="423" y="716" on="0"/>
        <pt x="489" y="702" on="0"/>
        <pt x="547" y="680" on="0"/>
        <pt x="596" y="652" on="0"/>
        <pt x="616" y="638" on="1"/>
        <pt x="516" y="502" on="1"/>
        <pt x="514" y="506" on="0"/>
        <pt x="485" y="528" on="0"/>
        <pt x="439" y="552" on="0"/>
        <pt x="381" y="570" on="0"/>
        <pt x="351" y="570" on="1"/>
        <pt x="309" y="570" on="0"/>
        <pt x="262" y="533" on="0"/>
        <pt x="262" y="500" on="1"/>
        <pt x="262" y="471" on="0"/>
        <pt x="324" y="442" on="0"/>
        <pt x="381" y="424" on="1"/>
        <pt x="419" y="412" on="0"/>
        <pt x="482" y="383" on="0"/>
        <pt x="527" y="343" on="0"/>
        <pt x="551" y="289" on="0"/>
        <pt x="551" y="252" on="1"/>
        <pt x="551" y="181" on="0"/>
        <pt x="497" y="82" on="0"/>
        <pt x="409" y="20" on="0"/>
        <pt x="299" y="-8" on="0"/>
      </contour>
    </TTGlyph>
    <TTGlyph name="Sdotbelow" xMin="-27" yMin="-204" xMax="616" yMax="716">
      <contour>
        <pt x="244" y="-8" on="1"/>
        <pt x="169" y="-8" on="0"/>
        <pt x="25" y="38" on="0"/>
        <pt x="-27" y="80" on="1"/>
        <pt x="75" y="223" on="1"/>
        <pt x="77" y="218" on="0"/>
        <pt x="112" y="190" on="0"/>
        <pt x="167" y="162" on="0"/>
        <pt x="239" y="140" on="0"/>
        <pt x="278" y="140" on="1"/>
        <pt x="326" y="140" on="0"/>
        <pt x="366" y="175" on="0"/>
        <pt x="366" y="203" on="1"/>
        <pt x="366" y="220" on="0"/>
        <pt x="344" y="243" on="0"/>
        <pt x="305" y="262" on="0"/>
        <pt x="254" y="279" on="0"/>
        <pt x="225" y="289" on="1"/>
        <pt x="153" y="315" on="0"/>
        <pt x="82" y="385" on="0"/>
        <pt x="82" y="444" on="1"/>
        <pt x="82" y="508" on="0"/>
        <pt x="134" y="610" on="0"/>
        <pt x="219" y="679" on="0"/>
        <pt x="329" y="716" on="0"/>
        <pt x="387" y="716" on="1"/>
        <pt x="423" y="716" on="0"/>
        <pt x="489" y="702" on="0"/>
        <pt x="547" y="680" on="0"/>
        <pt x="596" y="652" on="0"/>
        <pt x="616" y="638" on="1"/>
        <pt x="516" y="502" on="1"/>
        <pt x="514" y="506" on="0"/>
        <pt x="485" y="528" on="0"/>
        <pt x="439" y="552" on="0"/>
        <pt x="381" y="570" on="0"/>
        <pt x="351" y="570" on="1"/>
        <pt x="309" y="570" on="0"/>
        <pt x="262" y="533" on="0"/>
        <pt x="262" y="500" on="1"/>
        <pt x="262" y="471" on="0"/>
        <pt x="324" y="442" on="0"/>
        <pt x="381" y="424" on="1"/>
        <pt x="419" y="412" on="0"/>
        <pt x="482" y="383" on="0"/>
        <pt x="527" y="343" on="0"/>
        <pt x="551" y="289" on="0"/>
        <pt x="551" y="252" on="1"/>
        <pt x="551" y="181" on="0"/>
        <pt x="497" y="82" on="0"/>
        <pt x="409" y="20" on="0"/>
        <pt x="299" y="-8" on="0"/>
      </contour>
      <contour>
        <pt x="129" y="-204" on="1"/>
        <pt x="158" y="-67" on="1"/>
        <pt x="302" y="-67" on="1"/>
        <pt x="273" y="-204" on="1"/>
      </contour>
    </TTGlyph>
    <TTGlyph name="T" xMin="70" yMin="0" xMax="669" yMax="710">
      <contour>
        <pt x="273" y="566" on="1"/>
        <pt x="70" y="566" on="1"/>
        <pt x="100" y="710" on="1"/>
        <pt x="669" y="710" on="1"/>
        <pt x="639" y="566" on="1"/>
        <pt x="437" y="566" on="1"/>
        <pt x="316" y="0" on="1"/>
        <pt x="152" y="0" on="1"/>
      </contour>
    </TTGlyph>
    <TTGlyph name="T.sc" xMin="44" yMin="0" xMax="576" yMax="563">
      <contour>
        <pt x="226" y="438" on="1"/>
        <pt x="44" y="438" on="1"/>
        <pt x="70" y="563" on="1"/>
        <pt x="576" y="563" on="1"/>
        <pt x="549" y="438" on="1"/>
        <pt x="370" y="438" on="1"/>
        <pt x="276" y="0" on="1"/>
        <pt x="132" y="0" on="1"/>
      </contour>
    </TTGlyph>
    <TTGlyph name="Tbar" xMin="59" yMin="0" xMax="680" yMax="710">
      <contour>
        <pt x="76" y="368" on="1"/>
        <pt x="241" y="368" on="1"/>
        <pt x="283" y="566" on="1"/>
        <pt x="81" y="566" on="1"/>
        <pt x="111" y="710" on="1"/>
        <pt x="680" y="710" on="1"/>
        <pt x="649" y="566" on="1"/>
        <pt x="447" y="566" on="1"/>
        <pt x="405" y="368" on="1"/>
        <pt x="571" y="368" on="1"/>
        <pt x="555" y="292" on="1"/>
        <pt x="389" y="292" on="1"/>
        <pt x="328" y="0" on="1"/>
        <pt x="163" y="0" on="1"/>
        <pt x="225" y="292" on="1"/>
        <pt x="59" y="292" on="1"/>
      </contour>
    </TTGlyph>
    <TTGlyph name="Tcaron" xMin="70" yMin="0" xMax="669" yMax="916">
      <contour>
        <pt x="252" y="879" on="1"/>
        <pt x="341" y="916" on="1"/>
        <pt x="408" y="853" on="1"/>
        <pt x="502" y="916" on="1"/>
        <pt x="577" y="879" on="1"/>
        <pt x="449" y="772" on="1"/>
        <pt x="334" y="772" on="1"/>
      </contour>
      <contour>
        <pt x="273" y="566" on="1"/>
        <pt x="70" y="566" on="1"/>
        <pt x="100" y="710" on="1"/>
        <pt x="669" y="710" on="1"/>
        <pt x="639" y="566" on="1"/>
        <pt x="437" y="566" on="1"/>
        <pt x="316" y="0" on="1"/>
        <pt x="152" y="0" on="1"/>
      </contour>
    </TTGlyph>
    <TTGlyph name="Tdotbelow" xMin="70" yMin="-204" xMax="669" yMax="710">
      <contour>
        <pt x="119" y="-204" on="1"/>
        <pt x="148" y="-67" on="1"/>
        <pt x="292" y="-67" on="1"/>
        <pt x="263" y="-204" on="1"/>
      </contour>
      <contour>
        <pt x="273" y="566" on="1"/>
        <pt x="70" y="566" on="1"/>
        <pt x="100" y="710" on="1"/>
        <pt x="669" y="710" on="1"/>
        <pt x="639" y="566" on="1"/>
        <pt x="437" y="566" on="1"/>
        <pt x="316" y="0" on="1"/>
        <pt x="152" y="0" on="1"/>
      </contour>
    </TTGlyph>
    <TTGlyph name="Thorn" xMin="4" yMin="0" xMax="579" yMax="710">
      <contour>
        <pt x="155" y="710" on="1"/>
        <pt x="319" y="710" on="1"/>
        <pt x="293" y="586" on="1"/>
        <pt x="402" y="586" on="1"/>
        <pt x="444" y="586" on="0"/>
        <pt x="509" y="552" on="0"/>
        <pt x="555" y="497" on="0"/>
        <pt x="579" y="425" on="0"/>
        <pt x="579" y="387" on="1"/>
        <pt x="579" y="336" on="0"/>
        <pt x="535" y="235" on="0"/>
        <pt x="460" y="155" on="0"/>
        <pt x="361" y="106" on="0"/>
        <pt x="305" y="106" on="1"/>
        <pt x="190" y="106" on="1"/>
        <pt x="168" y="0" on="1"/>
        <pt x="4" y="0" on="1"/>
      </contour>
      <contour>
        <pt x="327" y="250" on="1"/>
        <pt x="342" y="250" on="0"/>
        <pt x="373" y="269" on="0"/>
        <pt x="398" y="302" on="0"/>
        <pt x="413" y="346" on="0"/>
        <pt x="413" y="370" on="1"/>
        <pt x="413" y="403" on="0"/>
        <pt x="384" y="443" on="0"/>
        <pt x="363" y="443" on="1"/>
        <pt x="262" y="443" on="1"/>
        <pt x="221" y="250" on="1"/>
      </contour>
    </TTGlyph>
    <TTGlyph name="U" xMin="55" yMin="-6" xMax="746" yMax="710">
      <contour>
        <pt x="293" y="-6" on="1"/>
        <pt x="228" y="-6" on="0"/>
        <pt x="138" y="31" on="0"/>
        <pt x="81" y="96" on="0"/>
        <pt x="55" y="185" on="0"/>
        <pt x="55" y="236" on="1"/>
        <pt x="55" y="290" on="0"/>
        <pt x="67" y="347" on="1"/>
        <pt x="145" y="710" on="1"/>
        <pt x="309" y="710" on="1"/>
        <pt x="231" y="347" on="1"/>
        <pt x="222" y="303" on="0"/>
        <pt x="222" y="266" on="1"/>
        <pt x="222" y="239" on="0"/>
        <pt x="233" y="193" on="0"/>
        <pt x="257" y="159" on="0"/>
        <pt x="296" y="140" on="0"/>
        <pt x="324" y="140" on="1"/>
        <pt x="362" y="140" on="0"/>
        <pt x="422" y="175" on="0"/>
        <pt x="466" y="233" on="0"/>
        <pt x="496" y="308" on="0"/>
        <pt x="505" y="347" on="1"/>
        <pt x="582" y="710" on="1"/>
        <pt x="746" y="710" on="1"/>
        <pt x="669" y="347" on="1"/>
        <pt x="653" y="273" on="0"/>
        <pt x="590" y="145" on="0"/>
        <pt x="496" y="49" on="0"/>
        <pt x="371" y="-6" on="0"/>
      </contour>
    </TTGlyph>
    <TTGlyph name="U.sc" xMin="38" yMin="-5" xMax="632" yMax="563">
      <contour>
        <pt x="250" y="-5" on="1"/>
        <pt x="193" y="-5" on="0"/>
        <pt x="112" y="25" on="0"/>
        <pt x="61" y="79" on="0"/>
        <pt x="38" y="151" on="0"/>
        <pt x="38" y="193" on="1"/>
        <pt x="38" y="232" on="0"/>
        <pt x="47" y="274" on="1"/>
        <pt x="109" y="563" on="1"/>
        <pt x="252" y="563" on="1"/>
        <pt x="191" y="274" on="1"/>
        <pt x="185" y="247" on="0"/>
        <pt x="185" y="222" on="1"/>
        <pt x="185" y="180" on="0"/>
        <pt x="226" y="123" on="0"/>
        <pt x="276" y="123" on="1"/>
        <pt x="310" y="123" on="0"/>
        <pt x="361" y="149" on="0"/>
        <pt x="398" y="191" on="0"/>
        <pt x="421" y="245" on="0"/>
        <pt x="427" y="274" on="1"/>
        <pt x="488" y="563" on="1"/>
        <pt x="632" y="563" on="1"/>
        <pt x="571" y="274" on="1"/>
        <pt x="559" y="215" on="0"/>
        <pt x="506" y="114" on="0"/>
        <pt x="425" y="38" on="0"/>
        <pt x="317" y="-5" on="0"/>
      </contour>
    </TTGlyph>
    <TTGlyph name="Uacute" xMin="54" yMin="-6" xMax="745" yMax="916">
      <contour>
        <pt x="490" y="772" on="1"/>
        <pt x="384" y="786" on="1"/>
        <pt x="461" y="916" on="1"/>
        <pt x="605" y="916" on="1"/>
      </contour>
      <contour>
        <pt x="292" y="-6" on="1"/>
        <pt x="227" y="-6" on="0"/>
        <pt x="137" y="31" on="0"/>
        <pt x="80" y="96" on="0"/>
        <pt x="54" y="185" on="0"/>
        <pt x="54" y="236" on="1"/>
        <pt x="54" y="290" on="0"/>
        <pt x="66" y="347" on="1"/>
        <pt x="144" y="710" on="1"/>
        <pt x="308" y="710" on="1"/>
        <pt x="230" y="347" on="1"/>
        <pt x="221" y="303" on="0"/>
        <pt x="221" y="266" on="1"/>
        <pt x="221" y="239" on="0"/>
        <pt x="232" y="193" on="0"/>
        <pt x="256" y="159" on="0"/>
        <pt x="295" y="140" on="0"/>
        <pt x="323" y="140" on="1"/>
        <pt x="361" y="140" on="0"/>
        <pt x="421" y="175" on="0"/>
        <pt x="465" y="233" on="0"/>
        <pt x="495" y="308" on="0"/>
        <pt x="504" y="347" on="1"/>
        <pt x="581" y="710" on="1"/>
        <pt x="745" y="710" on="1"/>
        <pt x="668" y="347" on="1"/>
        <pt x="652" y="273" on="0"/>
        <pt x="589" y="145" on="0"/>
        <pt x="495" y="49" on="0"/>
        <pt x="370" y="-6" on="0"/>
      </contour>
    </TTGlyph>
    <TTGlyph name="Ubreve" xMin="54" yMin="-6" xMax="745" yMax="916">
      <contour>
        <pt x="292" y="-6" on="1"/>
        <pt x="227" y="-6" on="0"/>
        <pt x="137" y="31" on="0"/>
        <pt x="80" y="96" on="0"/>
        <pt x="54" y="185" on="0"/>
        <pt x="54" y="236" on="1"/>
        <pt x="54" y="290" on="0"/>
        <pt x="66" y="347" on="1"/>
        <pt x="144" y="710" on="1"/>
        <pt x="308" y="710" on="1"/>
        <pt x="230" y="347" on="1"/>
        <pt x="221" y="303" on="0"/>
        <pt x="221" y="266" on="1"/>
        <pt x="221" y="239" on="0"/>
        <pt x="232" y="193" on="0"/>
        <pt x="256" y="159" on="0"/>
        <pt x="295" y="140" on="0"/>
        <pt x="323" y="140" on="1"/>
        <pt x="361" y="140" on="0"/>
        <pt x="421" y="175" on="0"/>
        <pt x="465" y="233" on="0"/>
        <pt x="495" y="308" on="0"/>
        <pt x="504" y="347" on="1"/>
        <pt x="581" y="710" on="1"/>
        <pt x="745" y="710" on="1"/>
        <pt x="668" y="347" on="1"/>
        <pt x="652" y="273" on="0"/>
        <pt x="589" y="145" on="0"/>
        <pt x="495" y="49" on="0"/>
        <pt x="370" y="-6" on="0"/>
      </contour>
      <contour>
        <pt x="456" y="839" on="1"/>
        <pt x="477" y="839" on="0"/>
        <pt x="518" y="882" on="0"/>
        <pt x="529" y="916" on="1"/>
        <pt x="613" y="916" on="1"/>
        <pt x="606" y="884" on="0"/>
        <pt x="574" y="830" on="0"/>
        <pt x="528" y="791" on="0"/>
        <pt x="472" y="769" on="0"/>
        <pt x="441" y="769" on="1"/>
        <pt x="387" y="769" on="0"/>
        <pt x="326" y="829" on="0"/>
        <pt x="326" y="879" on="1"/>
        <pt x="326" y="888" on="0"/>
        <pt x="329" y="906" on="0"/>
        <pt x="331" y="916" on="1"/>
        <pt x="415" y="916" on="1"/>
        <pt x="412" y="905" on="0"/>
        <pt x="412" y="895" on="1"/>
        <pt x="412" y="871" on="0"/>
        <pt x="436" y="839" on="0"/>
      </contour>
    </TTGlyph>
    <TTGlyph name="Ucircumflex" xMin="54" yMin="-6" xMax="745" yMax="916">
      <contour>
        <pt x="301" y="808" on="1"/>
        <pt x="429" y="916" on="1"/>
        <pt x="543" y="916" on="1"/>
        <pt x="625" y="808" on="1"/>
        <pt x="536" y="772" on="1"/>
        <pt x="469" y="835" on="1"/>
        <pt x="375" y="772" on="1"/>
      </contour>
      <contour>
        <pt x="292" y="-6" on="1"/>
        <pt x="227" y="-6" on="0"/>
        <pt x="137" y="31" on="0"/>
        <pt x="80" y="96" on="0"/>
        <pt x="54" y="185" on="0"/>
        <pt x="54" y="236" on="1"/>
        <pt x="54" y="290" on="0"/>
        <pt x="66" y="347" on="1"/>
        <pt x="144" y="710" on="1"/>
        <pt x="308" y="710" on="1"/>
        <pt x="230" y="347" on="1"/>
        <pt x="221" y="303" on="0"/>
        <pt x="221" y="266" on="1"/>
        <pt x="221" y="239" on="0"/>
        <pt x="232" y="193" on="0"/>
        <pt x="256" y="159" on="0"/>
        <pt x="295" y="140" on="0"/>
        <pt x="323" y="140" on="1"/>
        <pt x="361" y="140" on="0"/>
        <pt x="421" y="175" on="0"/>
        <pt x="465" y="233" on="0"/>
        <pt x="495" y="308" on="0"/>
        <pt x="504" y="347" on="1"/>
        <pt x="581" y="710" on="1"/>
        <pt x="745" y="710" on="1"/>
        <pt x="668" y="347" on="1"/>
        <pt x="652" y="273" on="0"/>
        <pt x="589" y="145" on="0"/>
        <pt x="495" y="49" on="0"/>
        <pt x="370" y="-6" on="0"/>
      </contour>
    </TTGlyph>
    <TTGlyph name="Udblgrave" xMin="54" yMin="-6" xMax="745" yMax="918">
      <contour>
        <pt x="473" y="918" on="1"/>
        <pt x="591" y="918" on="1"/>
        <pt x="605" y="788" on="1"/>
        <pt x="520" y="772" on="1"/>
      </contour>
      <contour>
        <pt x="303" y="918" on="1"/>
        <pt x="422" y="918" on="1"/>
        <pt x="435" y="788" on="1"/>
        <pt x="350" y="772" on="1"/>
      </contour>
      <contour>
        <pt x="292" y="-6" on="1"/>
        <pt x="227" y="-6" on="0"/>
        <pt x="137" y="31" on="0"/>
        <pt x="80" y="96" on="0"/>
        <pt x="54" y="185" on="0"/>
        <pt x="54" y="236" on="1"/>
        <pt x="54" y="290" on="0"/>
        <pt x="66" y="347" on="1"/>
        <pt x="144" y="710" on="1"/>
        <pt x="308" y="710" on="1"/>
        <pt x="230" y="347" on="1"/>
        <pt x="221" y="303" on="0"/>
        <pt x="221" y="266" on="1"/>
        <pt x="221" y="239" on="0"/>
        <pt x="232" y="193" on="0"/>
        <pt x="256" y="159" on="0"/>
        <pt x="295" y="140" on="0"/>
        <pt x="323" y="140" on="1"/>
        <pt x="361" y="140" on="0"/>
        <pt x="421" y="175" on="0"/>
        <pt x="465" y="233" on="0"/>
        <pt x="495" y="308" on="0"/>
        <pt x="504" y="347" on="1"/>
        <pt x="581" y="710" on="1"/>
        <pt x="745" y="710" on="1"/>
        <pt x="668" y="347" on="1"/>
        <pt x="652" y="273" on="0"/>
        <pt x="589" y="145" on="0"/>
        <pt x="495" y="49" on="0"/>
        <pt x="370" y="-6" on="0"/>
      </contour>
    </TTGlyph>
    <TTGlyph name="Udieresis" xMin="54" yMin="-6" xMax="745" yMax="909">
      <contour>
        <pt x="287" y="780" on="1"/>
        <pt x="315" y="909" on="1"/>
        <pt x="447" y="909" on="1"/>
        <pt x="419" y="780" on="1"/>
      </contour>
      <contour>
        <pt x="492" y="780" on="1"/>
        <pt x="520" y="909" on="1"/>
        <pt x="651" y="909" on="1"/>
        <pt x="624" y="780" on="1"/>
      </contour>
      <contour>
        <pt x="292" y="-6" on="1"/>
        <pt x="227" y="-6" on="0"/>
        <pt x="137" y="31" on="0"/>
        <pt x="80" y="96" on="0"/>
        <pt x="54" y="185" on="0"/>
        <pt x="54" y="236" on="1"/>
        <pt x="54" y="290" on="0"/>
        <pt x="66" y="347" on="1"/>
        <pt x="144" y="710" on="1"/>
        <pt x="308" y="710" on="1"/>
        <pt x="230" y="347" on="1"/>
        <pt x="221" y="303" on="0"/>
        <pt x="221" y="266" on="1"/>
        <pt x="221" y="239" on="0"/>
        <pt x="232" y="193" on="0"/>
        <pt x="256" y="159" on="0"/>
        <pt x="295" y="140" on="0"/>
        <pt x="323" y="140" on="1"/>
        <pt x="361" y="140" on="0"/>
        <pt x="421" y="175" on="0"/>
        <pt x="465" y="233" on="0"/>
        <pt x="495" y="308" on="0"/>
        <pt x="504" y="347" on="1"/>
        <pt x="581" y="710" on="1"/>
        <pt x="745" y="710" on="1"/>
        <pt x="668" y="347" on="1"/>
        <pt x="652" y="273" on="0"/>
        <pt x="589" y="145" on="0"/>
        <pt x="495" y="49" on="0"/>
        <pt x="370" y="-6" on="0"/>
      </contour>
    </TTGlyph>
    <TTGlyph name="Udotbelow" xMin="54" yMin="-204" xMax="745" yMax="710">
      <contour>
        <pt x="292" y="-6" on="1"/>
        <pt x="227" y="-6" on="0"/>
        <pt x="137" y="31" on="0"/>
        <pt x="80" y="96" on="0"/>
        <pt x="54" y="185" on="0"/>
        <pt x="54" y="236" on="1"/>
        <pt x="54" y="290" on="0"/>
        <pt x="66" y="347" on="1"/>
        <pt x="144" y="710" on="1"/>
        <pt x="308" y="710" on="1"/>
        <pt x="230" y="347" on="1"/>
        <pt x="221" y="303" on="0"/>
        <pt x="221" y="266" on="1"/>
        <pt x="221" y="239" on="0"/>
        <pt x="232" y="193" on="0"/>
        <pt x="256" y="159" on="0"/>
        <pt x="295" y="140" on="0"/>
        <pt x="323" y="140" on="1"/>
        <pt x="361" y="140" on="0"/>
        <pt x="421" y="175" on="0"/>
        <pt x="465" y="233" on="0"/>
        <pt x="495" y="308" on="0"/>
        <pt x="504" y="347" on="1"/>
        <pt x="581" y="710" on="1"/>
        <pt x="745" y="710" on="1"/>
        <pt x="668" y="347" on="1"/>
        <pt x="652" y="273" on="0"/>
        <pt x="589" y="145" on="0"/>
        <pt x="495" y="49" on="0"/>
        <pt x="370" y="-6" on="0"/>
      </contour>
      <contour>
        <pt x="176" y="-204" on="1"/>
        <pt x="205" y="-67" on="1"/>
        <pt x="349" y="-67" on="1"/>
        <pt x="320" y="-204" on="1"/>
      </contour>
    </TTGlyph>
    <TTGlyph name="Ugrave" xMin="54" yMin="-6" xMax="745" yMax="917">
      <contour>
        <pt x="292" y="-6" on="1"/>
        <pt x="227" y="-6" on="0"/>
        <pt x="137" y="31" on="0"/>
        <pt x="80" y="96" on="0"/>
        <pt x="54" y="185" on="0"/>
        <pt x="54" y="236" on="1"/>
        <pt x="54" y="290" on="0"/>
        <pt x="66" y="347" on="1"/>
        <pt x="144" y="710" on="1"/>
        <pt x="308" y="710" on="1"/>
        <pt x="230" y="347" on="1"/>
        <pt x="221" y="303" on="0"/>
        <pt x="221" y="266" on="1"/>
        <pt x="221" y="239" on="0"/>
        <pt x="232" y="193" on="0"/>
        <pt x="256" y="159" on="0"/>
        <pt x="295" y="140" on="0"/>
        <pt x="323" y="140" on="1"/>
        <pt x="361" y="140" on="0"/>
        <pt x="421" y="175" on="0"/>
        <pt x="465" y="233" on="0"/>
        <pt x="495" y="308" on="0"/>
        <pt x="504" y="347" on="1"/>
        <pt x="581" y="710" on="1"/>
        <pt x="745" y="710" on="1"/>
        <pt x="668" y="347" on="1"/>
        <pt x="652" y="273" on="0"/>
        <pt x="589" y="145" on="0"/>
        <pt x="495" y="49" on="0"/>
        <pt x="370" y="-6" on="0"/>
      </contour>
      <contour>
        <pt x="365" y="917" on="1"/>
        <pt x="509" y="917" on="1"/>
        <pt x="531" y="787" on="1"/>
        <pt x="420" y="771" on="1"/>
      </contour>
    </TTGlyph>
    <TTGlyph name="Uhungarumlaut" xMin="54" yMin="-6" xMax="745" yMax="917">
      <contour>
        <pt x="292" y="-6" on="1"/>
        <pt x="227" y="-6" on="0"/>
        <pt x="137" y="31" on="0"/>
        <pt x="80" y="96" on="0"/>
        <pt x="54" y="185" on="0"/>
        <pt x="54" y="236" on="1"/>
        <pt x="54" y="290" on="0"/>
        <pt x="66" y="347" on="1"/>
        <pt x="144" y="710" on="1"/>
        <pt x="308" y="710" on="1"/>
        <pt x="230" y="347" on="1"/>
        <pt x="221" y="303" on="0"/>
        <pt x="221" y="266" on="1"/>
        <pt x="221" y="239" on="0"/>
        <pt x="232" y="193" on="0"/>
        <pt x="256" y="159" on="0"/>
        <pt x="295" y="140" on="0"/>
        <pt x="323" y="140" on="1"/>
        <pt x="361" y="140" on="0"/>
        <pt x="421" y="175" on="0"/>
        <pt x="465" y="233" on="0"/>
        <pt x="495" y="308" on="0"/>
        <pt x="504" y="347" on="1"/>
        <pt x="581" y="710" on="1"/>
        <pt x="745" y="710" on="1"/>
        <pt x="668" y="347" on="1"/>
        <pt x="652" y="273" on="0"/>
        <pt x="589" y="145" on="0"/>
        <pt x="495" y="49" on="0"/>
        <pt x="370" y="-6" on="0"/>
      </contour>
      <contour>
        <pt x="380" y="775" on="1"/>
        <pt x="299" y="787" on="1"/>
        <pt x="367" y="917" on="1"/>
        <pt x="486" y="917" on="1"/>
      </contour>
      <contour>
        <pt x="550" y="775" on="1"/>
        <pt x="469" y="787" on="1"/>
        <pt x="536" y="917" on="1"/>
        <pt x="656" y="917" on="1"/>
      </contour>
    </TTGlyph>
    <TTGlyph name="Uinvertedbreve" xMin="54" yMin="-6" xMax="745" yMax="916">
      <contour>
        <pt x="320" y="769" on="1"/>
        <pt x="327" y="801" on="0"/>
        <pt x="359" y="855" on="0"/>
        <pt x="405" y="894" on="0"/>
        <pt x="461" y="916" on="0"/>
        <pt x="492" y="916" on="1"/>
        <pt x="546" y="916" on="0"/>
        <pt x="605" y="850" on="0"/>
        <pt x="605" y="802" on="1"/>
        <pt x="605" y="787" on="0"/>
        <pt x="602" y="769" on="1"/>
        <pt x="518" y="769" on="1"/>
        <pt x="521" y="785" on="0"/>
        <pt x="521" y="799" on="1"/>
        <pt x="521" y="846" on="0"/>
        <pt x="477" y="846" on="1"/>
        <pt x="451" y="846" on="0"/>
        <pt x="411" y="811" on="0"/>
        <pt x="403" y="769" on="1"/>
      </contour>
      <contour>
        <pt x="292" y="-6" on="1"/>
        <pt x="227" y="-6" on="0"/>
        <pt x="137" y="31" on="0"/>
        <pt x="80" y="96" on="0"/>
        <pt x="54" y="185" on="0"/>
        <pt x="54" y="236" on="1"/>
        <pt x="54" y="290" on="0"/>
        <pt x="66" y="347" on="1"/>
        <pt x="144" y="710" on="1"/>
        <pt x="308" y="710" on="1"/>
        <pt x="230" y="347" on="1"/>
        <pt x="221" y="303" on="0"/>
        <pt x="221" y="266" on="1"/>
        <pt x="221" y="239" on="0"/>
        <pt x="232" y="193" on="0"/>
        <pt x="256" y="159" on="0"/>
        <pt x="295" y="140" on="0"/>
        <pt x="323" y="140" on="1"/>
        <pt x="361" y="140" on="0"/>
        <pt x="421" y="175" on="0"/>
        <pt x="465" y="233" on="0"/>
        <pt x="495" y="308" on="0"/>
        <pt x="504" y="347" on="1"/>
        <pt x="581" y="710" on="1"/>
        <pt x="745" y="710" on="1"/>
        <pt x="668" y="347" on="1"/>
        <pt x="652" y="273" on="0"/>
        <pt x="589" y="145" on="0"/>
        <pt x="495" y="49" on="0"/>
        <pt x="370" y="-6" on="0"/>
      </contour>
    </TTGlyph>
    <TTGlyph name="Umacron" xMin="54" yMin="-6" xMax="745" yMax="903">
      <contour>
        <pt x="292" y="-6" on="1"/>
        <pt x="227" y="-6" on="0"/>
        <pt x="137" y="31" on="0"/>
        <pt x="80" y="96" on="0"/>
        <pt x="54" y="185" on="0"/>
        <pt x="54" y="236" on="1"/>
        <pt x="54" y="290" on="0"/>
        <pt x="66" y="347" on="1"/>
        <pt x="144" y="710" on="1"/>
        <pt x="308" y="710" on="1"/>
        <pt x="230" y="347" on="1"/>
        <pt x="221" y="303" on="0"/>
        <pt x="221" y="266" on="1"/>
        <pt x="221" y="239" on="0"/>
        <pt x="232" y="193" on="0"/>
        <pt x="256" y="159" on="0"/>
        <pt x="295" y="140" on="0"/>
        <pt x="323" y="140" on="1"/>
        <pt x="361" y="140" on="0"/>
        <pt x="421" y="175" on="0"/>
        <pt x="465" y="233" on="0"/>
        <pt x="495" y="308" on="0"/>
        <pt x="504" y="347" on="1"/>
        <pt x="581" y="710" on="1"/>
        <pt x="745" y="710" on="1"/>
        <pt x="668" y="347" on="1"/>
        <pt x="652" y="273" on="0"/>
        <pt x="589" y="145" on="0"/>
        <pt x="495" y="49" on="0"/>
        <pt x="370" y="-6" on="0"/>
      </contour>
      <contour>
        <pt x="316" y="806" on="1"/>
        <pt x="336" y="903" on="1"/>
        <pt x="627" y="903" on="1"/>
        <pt x="606" y="806" on="1"/>
      </contour>
    </TTGlyph>
    <TTGlyph name="Uogonek" xMin="54" yMin="-204" xMax="745" yMax="710">
      <contour>
        <pt x="271" y="-204" on="1"/>
        <pt x="214" y="-196" on="0"/>
        <pt x="159" y="-151" on="0"/>
        <pt x="159" y="-122" on="1"/>
        <pt x="159" y="-61" on="0"/>
        <pt x="256" y="-4" on="1"/>
        <pt x="201" y="1" on="0"/>
        <pt x="124" y="41" on="0"/>
        <pt x="76" y="105" on="0"/>
        <pt x="54" y="188" on="0"/>
        <pt x="54" y="236" on="1"/>
        <pt x="54" y="290" on="0"/>
        <pt x="66" y="347" on="1"/>
        <pt x="144" y="710" on="1"/>
        <pt x="308" y="710" on="1"/>
        <pt x="230" y="347" on="1"/>
        <pt x="221" y="303" on="0"/>
        <pt x="221" y="266" on="1"/>
        <pt x="221" y="239" on="0"/>
        <pt x="232" y="193" on="0"/>
        <pt x="256" y="159" on="0"/>
        <pt x="295" y="140" on="0"/>
        <pt x="323" y="140" on="1"/>
        <pt x="361" y="140" on="0"/>
        <pt x="421" y="175" on="0"/>
        <pt x="465" y="233" on="0"/>
        <pt x="495" y="308" on="0"/>
        <pt x="504" y="347" on="1"/>
        <pt x="581" y="710" on="1"/>
        <pt x="745" y="710" on="1"/>
        <pt x="668" y="347" on="1"/>
        <pt x="654" y="280" on="0"/>
        <pt x="599" y="162" on="0"/>
        <pt x="519" y="69" on="0"/>
        <pt x="413" y="7" on="0"/>
        <pt x="347" y="-2" on="1"/>
        <pt x="264" y="-50" on="0"/>
        <pt x="264" y="-87" on="1"/>
        <pt x="264" y="-101" on="0"/>
        <pt x="291" y="-119" on="0"/>
        <pt x="320" y="-120" on="1"/>
        <pt x="271" y="-204" on="1"/>
      </contour>
    </TTGlyph>
    <TTGlyph name="Uring" xMin="54" yMin="-6" xMax="745" yMax="916">
      <contour>
        <pt x="362" y="818" on="1"/>
        <pt x="362" y="866" on="0"/>
        <pt x="431" y="916" on="0"/>
        <pt x="486" y="916" on="1"/>
        <pt x="528" y="916" on="0"/>
        <pt x="574" y="882" on="0"/>
        <pt x="574" y="850" on="1"/>
        <pt x="574" y="803" on="0"/>
        <pt x="505" y="753" on="0"/>
        <pt x="451" y="753" on="1"/>
        <pt x="409" y="753" on="0"/>
        <pt x="362" y="786" on="0"/>
      </contour>
      <contour>
        <pt x="475" y="869" on="1"/>
        <pt x="457" y="869" on="0"/>
        <pt x="430" y="846" on="0"/>
        <pt x="430" y="829" on="1"/>
        <pt x="430" y="816" on="0"/>
        <pt x="447" y="800" on="0"/>
        <pt x="461" y="800" on="1"/>
        <pt x="478" y="800" on="0"/>
        <pt x="507" y="823" on="0"/>
        <pt x="507" y="841" on="1"/>
        <pt x="507" y="853" on="0"/>
        <pt x="489" y="869" on="0"/>
      </contour>
      <contour>
        <pt x="292" y="-6" on="1"/>
        <pt x="227" y="-6" on="0"/>
        <pt x="137" y="31" on="0"/>
        <pt x="80" y="96" on="0"/>
        <pt x="54" y="185" on="0"/>
        <pt x="54" y="236" on="1"/>
        <pt x="54" y="290" on="0"/>
        <pt x="66" y="347" on="1"/>
        <pt x="144" y="710" on="1"/>
        <pt x="308" y="710" on="1"/>
        <pt x="230" y="347" on="1"/>
        <pt x="221" y="303" on="0"/>
        <pt x="221" y="266" on="1"/>
        <pt x="221" y="239" on="0"/>
        <pt x="232" y="193" on="0"/>
        <pt x="256" y="159" on="0"/>
        <pt x="295" y="140" on="0"/>
        <pt x="323" y="140" on="1"/>
        <pt x="361" y="140" on="0"/>
        <pt x="421" y="175" on="0"/>
        <pt x="465" y="233" on="0"/>
        <pt x="495" y="308" on="0"/>
        <pt x="504" y="347" on="1"/>
        <pt x="581" y="710" on="1"/>
        <pt x="745" y="710" on="1"/>
        <pt x="668" y="347" on="1"/>
        <pt x="652" y="273" on="0"/>
        <pt x="589" y="145" on="0"/>
        <pt x="495" y="49" on="0"/>
        <pt x="370" y="-6" on="0"/>
      </contour>
    </TTGlyph>
    <TTGlyph name="Utilde" xMin="54" yMin="-6" xMax="745" yMax="916">
      <contour>
        <pt x="292" y="-6" on="1"/>
        <pt x="227" y="-6" on="0"/>
        <pt x="137" y="31" on="0"/>
        <pt x="80" y="96" on="0"/>
        <pt x="54" y="185" on="0"/>
        <pt x="54" y="236" on="1"/>
        <pt x="54" y="290" on="0"/>
        <pt x="66" y="347" on="1"/>
        <pt x="144" y="710" on="1"/>
        <pt x="308" y="710" on="1"/>
        <pt x="230" y="347" on="1"/>
        <pt x="221" y="303" on="0"/>
        <pt x="221" y="266" on="1"/>
        <pt x="221" y="239" on="0"/>
        <pt x="232" y="193" on="0"/>
        <pt x="256" y="159" on="0"/>
        <pt x="295" y="140" on="0"/>
        <pt x="323" y="140" on="1"/>
        <pt x="361" y="140" on="0"/>
        <pt x="421" y="175" on="0"/>
        <pt x="465" y="233" on="0"/>
        <pt x="495" y="308" on="0"/>
        <pt x="504" y="347" on="1"/>
        <pt x="581" y="710" on="1"/>
        <pt x="745" y="710" on="1"/>
        <pt x="668" y="347" on="1"/>
        <pt x="652" y="273" on="0"/>
        <pt x="589" y="145" on="0"/>
        <pt x="495" y="49" on="0"/>
        <pt x="370" y="-6" on="0"/>
      </contour>
      <contour>
        <pt x="519" y="774" on="1"/>
        <pt x="497" y="774" on="0"/>
        <pt x="467" y="788" on="0"/>
        <pt x="442" y="806" on="0"/>
        <pt x="418" y="820" on="0"/>
        <pt x="402" y="820" on="1"/>
        <pt x="386" y="820" on="0"/>
        <pt x="365" y="806" on="0"/>
        <pt x="353" y="788" on="0"/>
        <pt x="348" y="773" on="0"/>
        <pt x="348" y="772" on="1"/>
        <pt x="261" y="772" on="1"/>
        <pt x="263" y="783" on="0"/>
        <pt x="286" y="830" on="0"/>
        <pt x="326" y="878" on="0"/>
        <pt x="381" y="914" on="0"/>
        <pt x="415" y="914" on="1"/>
        <pt x="438" y="914" on="0"/>
        <pt x="468" y="899" on="0"/>
        <pt x="492" y="881" on="0"/>
        <pt x="515" y="866" on="0"/>
        <pt x="532" y="866" on="1"/>
        <pt x="548" y="866" on="0"/>
        <pt x="571" y="881" on="0"/>
        <pt x="585" y="899" on="0"/>
        <pt x="592" y="915" on="0"/>
        <pt x="592" y="916" on="1"/>
        <pt x="677" y="916" on="1"/>
        <pt x="675" y="908" on="0"/>
        <pt x="652" y="862" on="0"/>
        <pt x="611" y="812" on="0"/>
        <pt x="554" y="774" on="0"/>
      </contour>
    </TTGlyph>
    <TTGlyph name="V" xMin="82" yMin="0" xMax="728" yMax="710">
      <contour>
        <pt x="82" y="710" on="1"/>
        <pt x="255" y="710" on="1"/>
        <pt x="299" y="206" on="1"/>
        <pt x="556" y="710" on="1"/>
        <pt x="728" y="710" on="1"/>
        <pt x="324" y="0" on="1"/>
        <pt x="187" y="0" on="1"/>
      </contour>
    </TTGlyph>
    <TTGlyph name="V.sc" xMin="52" yMin="0" xMax="628" yMax="563">
      <contour>
        <pt x="52" y="563" on="1"/>
        <pt x="204" y="563" on="1"/>
        <pt x="265" y="203" on="1"/>
        <pt x="476" y="563" on="1"/>
        <pt x="628" y="563" on="1"/>
        <pt x="281" y="0" on="1"/>
        <pt x="162" y="0" on="1"/>
      </contour>
    </TTGlyph>
</ttFont>
